Busra-Regular.ufo
<glyph name="exclam" format="2">
  <advance width="574"/>
  <unicode hex="0021"/>
  <outline>
    <contour>
      <point x="253" y="367" type="curve"/>
      <point x="320" y="367" type="line"/>
      <point x="331" y="685"/>
      <point x="404" y="1219"/>
      <point x="404" y="1488" type="curve" smooth="yes"/>
      <point x="404" y="1597"/>
      <point x="362" y="1660"/>
      <point x="287" y="1660" type="curve" smooth="yes"/>
      <point x="223" y="1660"/>
      <point x="170" y="1597"/>
      <point x="170" y="1488" type="curve" smooth="yes"/>
      <point x="170" y="1219"/>
      <point x="242" y="685"/>
    </contour>
    <contour>
      <point x="287" y="1" type="curve" smooth="yes"/>
      <point x="357" y="1"/>
      <point x="413" y="57"/>
      <point x="413" y="120" type="curve" smooth="yes"/>
      <point x="413" y="186"/>
      <point x="357" y="241"/>
      <point x="287" y="241" type="curve" smooth="yes"/>
      <point x="220" y="241"/>
      <point x="165" y="186"/>
      <point x="165" y="120" type="curve" smooth="yes"/>
      <point x="165" y="57"/>
      <point x="220" y="1"/>
    </contour>
  </outline>
</glyph>
<glyph name="quotedbl" format="2">
  <advance width="816"/>
  <unicode hex="0022"/>
  <outline>
    <contour>
      <point x="245" y="1193" type="line"/>
      <point x="271" y="1407"/>
      <point x="327" y="1527"/>
      <point x="327" y="1702" type="curve" smooth="yes"/>
      <point x="327" y="1762"/>
      <point x="279" y="1811"/>
      <point x="218" y="1811" type="curve" smooth="yes"/>
      <point x="158" y="1811"/>
      <point x="110" y="1762"/>
      <point x="110" y="1702" type="curve" smooth="yes"/>
      <point x="110" y="1527"/>
      <point x="166" y="1407"/>
      <point x="193" y="1193" type="curve"/>
    </contour>
    <contour>
      <point x="621" y="1193" type="line"/>
      <point x="646" y="1407"/>
      <point x="706" y="1527"/>
      <point x="706" y="1702" type="curve" smooth="yes"/>
      <point x="706" y="1762"/>
      <point x="658" y="1811"/>
      <point x="594" y="1811" type="curve" smooth="yes"/>
      <point x="534" y="1811"/>
      <point x="486" y="1762"/>
      <point x="486" y="1702" type="curve" smooth="yes"/>
      <point x="486" y="1527"/>
      <point x="542" y="1407"/>
      <point x="571" y="1193" type="curve"/>
    </contour>
  </outline>
</glyph>
<glyph name="numbersign" format="2">
  <advance width="1063"/>
  <unicode hex="0023"/>
  <outline>
    <contour>
      <point x="86" y="0" type="line"/>
      <point x="245" y="0" type="line"/>
      <point x="563" y="1440" type="line"/>
      <point x="404" y="1440" type="line"/>
    </contour>
    <contour>
      <point x="0" y="416" type="line"/>
      <point x="1063" y="416" type="line"/>
      <point x="1063" y="526" type="line"/>
      <point x="0" y="514" type="line"/>
    </contour>
    <contour>
      <point x="0" y="914" type="line"/>
      <point x="1063" y="914" type="line"/>
      <point x="1063" y="1024" type="line"/>
      <point x="0" y="1024" type="line"/>
    </contour>
    <contour>
      <point x="500" y="0" type="line"/>
      <point x="659" y="0" type="line"/>
      <point x="977" y="1440" type="line"/>
      <point x="818" y="1440" type="line"/>
    </contour>
  </outline>
</glyph>
<glyph name="dollar" format="2">
  <advance width="1250"/>
  <unicode hex="0024"/>
  <outline>
    <contour>
      <point x="586" y="-200" type="line"/>
      <point x="696" y="-200" type="line"/>
      <point x="696" y="1832" type="line"/>
      <point x="580" y="1832" type="line"/>
    </contour>
    <contour>
      <point x="589" y="20" type="curve" smooth="yes"/>
      <point x="1006" y="20"/>
      <point x="1207" y="214"/>
      <point x="1207" y="448" type="curve" smooth="yes"/>
      <point x="1207" y="933"/>
      <point x="298" y="901"/>
      <point x="298" y="1256" type="curve" smooth="yes"/>
      <point x="298" y="1368"/>
      <point x="438" y="1497"/>
      <point x="691" y="1497" type="curve" smooth="yes"/>
      <point x="892" y="1497"/>
      <point x="984" y="1441"/>
      <point x="990" y="1403" type="curve"/>
      <point x="1044" y="1400" type="line"/>
      <point x="1020" y="1418"/>
      <point x="996" y="1426"/>
      <point x="974" y="1426" type="curve" smooth="yes"/>
      <point x="910" y="1426"/>
      <point x="860" y="1365"/>
      <point x="860" y="1310" type="curve" smooth="yes"/>
      <point x="860" y="1237"/>
      <point x="914" y="1177"/>
      <point x="996" y="1177" type="curve" smooth="yes"/>
      <point x="1077" y="1177"/>
      <point x="1147" y="1244"/>
      <point x="1147" y="1351" type="curve" smooth="yes"/>
      <point x="1147" y="1481"/>
      <point x="1002" y="1612"/>
      <point x="703" y="1612" type="curve" smooth="yes"/>
      <point x="326" y="1612"/>
      <point x="111" y="1451"/>
      <point x="111" y="1236" type="curve" smooth="yes"/>
      <point x="111" y="719"/>
      <point x="1018" y="766"/>
      <point x="1018" y="415" type="curve" smooth="yes"/>
      <point x="1018" y="277"/>
      <point x="886" y="135"/>
      <point x="593" y="135" type="curve" smooth="yes"/>
      <point x="364" y="135"/>
      <point x="230" y="218"/>
      <point x="230" y="269" type="curve"/>
      <point x="173" y="270" type="line"/>
      <point x="197" y="252"/>
      <point x="221" y="244"/>
      <point x="243" y="244" type="curve" smooth="yes"/>
      <point x="307" y="244"/>
      <point x="357" y="305"/>
      <point x="357" y="360" type="curve" smooth="yes"/>
      <point x="357" y="433"/>
      <point x="303" y="493"/>
      <point x="221" y="493" type="curve" smooth="yes"/>
      <point x="140" y="493"/>
      <point x="70" y="426"/>
      <point x="70" y="319" type="curve" smooth="yes"/>
      <point x="70" y="179"/>
      <point x="210" y="20"/>
    </contour>
  </outline>
</glyph>
<glyph name="percent" format="2">
  <advance width="1705"/>
  <unicode hex="0025"/>
  <outline>
    <contour>
      <point x="424" y="77" type="line"/>
      <point x="549" y="77" type="line"/>
      <point x="1277" y="1394" type="line"/>
      <point x="1152" y="1394" type="line"/>
    </contour>
    <contour>
      <point x="514" y="765" type="curve" smooth="yes"/>
      <point x="656" y="765"/>
      <point x="773" y="826"/>
      <point x="773" y="1084" type="curve" smooth="yes"/>
      <point x="773" y="1342"/>
      <point x="686" y="1403"/>
      <point x="514" y="1403" type="curve" smooth="yes"/>
      <point x="372" y="1403"/>
      <point x="255" y="1342"/>
      <point x="255" y="1084" type="curve" smooth="yes"/>
      <point x="255" y="826"/>
      <point x="372" y="765"/>
    </contour>
    <contour>
      <point x="514" y="845" type="curve" smooth="yes"/>
      <point x="456" y="845"/>
      <point x="414" y="914"/>
      <point x="414" y="1084" type="curve" smooth="yes"/>
      <point x="414" y="1255"/>
      <point x="456" y="1313"/>
      <point x="514" y="1313" type="curve" smooth="yes"/>
      <point x="572" y="1313"/>
      <point x="614" y="1254"/>
      <point x="614" y="1084" type="curve" smooth="yes"/>
      <point x="614" y="914"/>
      <point x="572" y="845"/>
    </contour>
    <contour>
      <point x="1188" y="65" type="curve" smooth="yes"/>
      <point x="1330" y="65"/>
      <point x="1447" y="126"/>
      <point x="1447" y="384" type="curve" smooth="yes"/>
      <point x="1447" y="642"/>
      <point x="1360" y="703"/>
      <point x="1188" y="703" type="curve" smooth="yes"/>
      <point x="1046" y="703"/>
      <point x="929" y="642"/>
      <point x="929" y="384" type="curve" smooth="yes"/>
      <point x="929" y="126"/>
      <point x="1046" y="65"/>
    </contour>
    <contour>
      <point x="1188" y="145" type="curve" smooth="yes"/>
      <point x="1130" y="145"/>
      <point x="1088" y="214"/>
      <point x="1088" y="384" type="curve" smooth="yes"/>
      <point x="1088" y="555"/>
      <point x="1130" y="613"/>
      <point x="1188" y="613" type="curve" smooth="yes"/>
      <point x="1246" y="613"/>
      <point x="1288" y="554"/>
      <point x="1288" y="384" type="curve" smooth="yes"/>
      <point x="1288" y="214"/>
      <point x="1246" y="145"/>
    </contour>
  </outline>
</glyph>
<glyph name="ampersand" format="2">
  <advance width="1283"/>
  <unicode hex="0026"/>
  <outline>
    <contour>
      <point x="1140" y="-1" type="line"/>
      <point x="936" y="77"/>
      <point x="262" y="678"/>
      <point x="262" y="1281" type="curve" smooth="yes"/>
      <point x="262" y="1570"/>
      <point x="388" y="1660"/>
      <point x="592" y="1660" type="curve" smooth="yes"/>
      <point x="804" y="1660"/>
      <point x="882" y="1549"/>
      <point x="882" y="1359" type="curve" smooth="yes"/>
      <point x="882" y="962"/>
      <point x="303" y="762"/>
      <point x="303" y="406" type="curve" smooth="yes"/>
      <point x="303" y="221"/>
      <point x="419" y="111"/>
      <point x="590" y="111" type="curve" smooth="yes"/>
      <point x="757" y="111"/>
      <point x="982" y="261"/>
      <point x="982" y="557" type="curve"/>
      <point x="833" y="629" type="line"/>
      <point x="833" y="706" type="line"/>
      <point x="1221" y="706" type="line"/>
      <point x="1221" y="629" type="line"/>
      <point x="1094" y="557" type="line"/>
      <point x="1094" y="318"/>
      <point x="913" y="-5"/>
      <point x="567" y="-5" type="curve" smooth="yes"/>
      <point x="303" y="-5"/>
      <point x="100" y="114"/>
      <point x="100" y="388" type="curve" smooth="yes"/>
      <point x="100" y="790"/>
      <point x="700" y="982"/>
      <point x="700" y="1353" type="curve" smooth="yes"/>
      <point x="700" y="1474"/>
      <point x="651" y="1549"/>
      <point x="582" y="1549" type="curve" smooth="yes"/>
      <point x="481" y="1549"/>
      <point x="444" y="1474"/>
      <point x="444" y="1326" type="curve" smooth="yes"/>
      <point x="444" y="682"/>
      <point x="992" y="227"/>
      <point x="1196" y="121" type="curve"/>
      <point x="1353" y="76" type="line"/>
      <point x="1353" y="-1" type="line"/>
    </contour>
  </outline>
</glyph>
<glyph name="quotesingle" format="2">
  <advance width="442"/>
  <unicode hex="0027"/>
  <outline>
    <contour>
      <point x="245" y="1183" type="line"/>
      <point x="272" y="1397"/>
      <point x="332" y="1517"/>
      <point x="332" y="1692" type="curve" smooth="yes"/>
      <point x="332" y="1752"/>
      <point x="282" y="1801"/>
      <point x="219" y="1801" type="curve" smooth="yes"/>
      <point x="159" y="1801"/>
      <point x="110" y="1752"/>
      <point x="110" y="1692" type="curve" smooth="yes"/>
      <point x="110" y="1517"/>
      <point x="166" y="1397"/>
      <point x="197" y="1183" type="curve"/>
    </contour>
  </outline>
</glyph>
<glyph name="parenleft" format="2">
  <advance width="996"/>
  <unicode hex="0028"/>
  <outline>
    <contour>
      <point x="509" y="881" type="curve" smooth="yes"/>
      <point x="509" y="1225"/>
      <point x="618" y="1874"/>
      <point x="775" y="1989" type="curve"/>
      <point x="786" y="1995"/>
      <point x="790" y="1999"/>
      <point x="790" y="2003" type="curve"/>
      <point x="790" y="2010"/>
      <point x="782" y="2018"/>
      <point x="771" y="2018" type="curve" smooth="yes"/>
      <point x="763" y="2018"/>
      <point x="754" y="2018"/>
      <point x="743" y="2014" type="curve"/>
      <point x="625" y="1985"/>
      <point x="289" y="1499"/>
      <point x="289" y="881" type="curve" smooth="yes"/>
      <point x="289" y="263"/>
      <point x="625" y="-223"/>
      <point x="743" y="-254" type="curve"/>
      <point x="754" y="-258"/>
      <point x="763" y="-258"/>
      <point x="771" y="-258" type="curve" smooth="yes"/>
      <point x="782" y="-258"/>
      <point x="790" y="-250"/>
      <point x="790" y="-242" type="curve"/>
      <point x="790" y="-239"/>
      <point x="786" y="-235"/>
      <point x="775" y="-227" type="curve"/>
      <point x="618" y="-111"/>
      <point x="509" y="537"/>
    </contour>
  </outline>
</glyph>
<glyph name="parenright" format="2">
  <advance width="996"/>
  <unicode hex="0029"/>
  <outline>
    <contour>
      <point x="487" y="821" type="curve" smooth="yes"/>
      <point x="487" y="577"/>
      <point x="378" y="-11"/>
      <point x="221" y="-127" type="curve"/>
      <point x="210" y="-135"/>
      <point x="206" y="-139"/>
      <point x="206" y="-142" type="curve"/>
      <point x="206" y="-150"/>
      <point x="214" y="-158"/>
      <point x="225" y="-158" type="curve" smooth="yes"/>
      <point x="233" y="-158"/>
      <point x="242" y="-158"/>
      <point x="253" y="-154" type="curve"/>
      <point x="371" y="-123"/>
      <point x="707" y="370"/>
      <point x="707" y="821" type="curve" smooth="yes"/>
      <point x="707" y="1279"/>
      <point x="371" y="1765"/>
      <point x="253" y="1794" type="curve"/>
      <point x="242" y="1798"/>
      <point x="233" y="1798"/>
      <point x="225" y="1798" type="curve" smooth="yes"/>
      <point x="214" y="1798"/>
      <point x="206" y="1790"/>
      <point x="206" y="1783" type="curve"/>
      <point x="206" y="1779"/>
      <point x="210" y="1775"/>
      <point x="221" y="1769" type="curve"/>
      <point x="378" y="1654"/>
      <point x="487" y="1065"/>
    </contour>
  </outline>
</glyph>
<glyph name="asterisk" format="2">
  <advance width="1162"/>
  <unicode hex="002A"/>
  <outline>
    <contour>
      <point x="549" y="1308" type="curve"/>
      <point x="472" y="1362"/>
      <point x="415" y="1427"/>
      <point x="378" y="1471" type="curve" smooth="yes"/>
      <point x="352" y="1502"/>
      <point x="289" y="1556"/>
      <point x="247" y="1556" type="curve" smooth="yes"/>
      <point x="195" y="1556"/>
      <point x="150" y="1498"/>
      <point x="150" y="1446" type="curve" smooth="yes"/>
      <point x="150" y="1374"/>
      <point x="229" y="1352"/>
      <point x="300" y="1336" type="curve" smooth="yes"/>
      <point x="353" y="1324"/>
      <point x="440" y="1302"/>
      <point x="526" y="1260" type="curve"/>
      <point x="440" y="1219"/>
      <point x="357" y="1200"/>
      <point x="299" y="1191" type="curve" smooth="yes"/>
      <point x="238" y="1181"/>
      <point x="150" y="1147"/>
      <point x="150" y="1079" type="curve" smooth="yes"/>
      <point x="150" y="1027"/>
      <point x="194" y="969"/>
      <point x="247" y="969" type="curve" smooth="yes"/>
      <point x="294" y="969"/>
      <point x="348" y="1022"/>
      <point x="377" y="1056" type="curve" smooth="yes"/>
      <point x="413" y="1098"/>
      <point x="472" y="1164"/>
      <point x="551" y="1217" type="curve"/>
      <point x="544" y="1122"/>
      <point x="520" y="1034"/>
      <point x="504" y="982" type="curve" smooth="yes"/>
      <point x="491" y="940"/>
      <point x="483" y="901"/>
      <point x="483" y="867" type="curve" smooth="yes"/>
      <point x="483" y="817"/>
      <point x="523" y="783"/>
      <point x="581" y="783" type="curve" smooth="yes"/>
      <point x="640" y="783"/>
      <point x="678" y="817"/>
      <point x="678" y="867" type="curve" smooth="yes"/>
      <point x="678" y="901"/>
      <point x="674" y="940"/>
      <point x="660" y="982" type="curve" smooth="yes"/>
      <point x="641" y="1038"/>
      <point x="616" y="1122"/>
      <point x="609" y="1217" type="curve"/>
      <point x="688" y="1164"/>
      <point x="748" y="1098"/>
      <point x="785" y="1056" type="curve" smooth="yes"/>
      <point x="815" y="1022"/>
      <point x="869" y="969"/>
      <point x="915" y="969" type="curve" smooth="yes"/>
      <point x="968" y="969"/>
      <point x="1012" y="1027"/>
      <point x="1012" y="1079" type="curve" smooth="yes"/>
      <point x="1012" y="1147"/>
      <point x="924" y="1181"/>
      <point x="863" y="1191" type="curve" smooth="yes"/>
      <point x="805" y="1200"/>
      <point x="720" y="1219"/>
      <point x="634" y="1260" type="curve"/>
      <point x="720" y="1302"/>
      <point x="809" y="1324"/>
      <point x="862" y="1336" type="curve" smooth="yes"/>
      <point x="933" y="1352"/>
      <point x="1012" y="1374"/>
      <point x="1012" y="1446" type="curve" smooth="yes"/>
      <point x="1012" y="1498"/>
      <point x="967" y="1556"/>
      <point x="915" y="1556" type="curve" smooth="yes"/>
      <point x="872" y="1556"/>
      <point x="812" y="1503"/>
      <point x="784" y="1471" type="curve" smooth="yes"/>
      <point x="745" y="1426"/>
      <point x="688" y="1362"/>
      <point x="609" y="1308" type="curve"/>
      <point x="616" y="1403"/>
      <point x="641" y="1487"/>
      <point x="660" y="1543" type="curve" smooth="yes"/>
      <point x="674" y="1585"/>
      <point x="678" y="1624"/>
      <point x="678" y="1658" type="curve" smooth="yes"/>
      <point x="678" y="1708"/>
      <point x="640" y="1742"/>
      <point x="581" y="1742" type="curve" smooth="yes"/>
      <point x="523" y="1742"/>
      <point x="483" y="1708"/>
      <point x="483" y="1658" type="curve" smooth="yes"/>
      <point x="483" y="1624"/>
      <point x="491" y="1585"/>
      <point x="504" y="1543" type="curve" smooth="yes"/>
      <point x="520" y="1491"/>
      <point x="542" y="1403"/>
    </contour>
  </outline>
</glyph>
<glyph name="plus" format="2">
  <advance width="1184"/>
  <unicode hex="002B"/>
  <outline>
    <contour>
      <point x="230" y="700" type="line"/>
      <point x="230" y="562" type="line"/>
      <point x="523" y="562" type="line"/>
      <point x="523" y="269" type="line"/>
      <point x="661" y="269" type="line"/>
      <point x="661" y="562" type="line"/>
      <point x="954" y="562" type="line"/>
      <point x="954" y="700" type="line"/>
      <point x="661" y="700" type="line"/>
      <point x="661" y="993" type="line"/>
      <point x="523" y="993" type="line"/>
      <point x="523" y="700" type="line"/>
    </contour>
  </outline>
</glyph>
<glyph name="comma" format="2">
  <advance width="703"/>
  <unicode hex="002C"/>
  <outline>
    <contour>
      <point x="160" y="-313" type="line"/>
      <point x="339" y="-298"/>
      <point x="497" y="-159"/>
      <point x="497" y="35" type="curve" smooth="yes"/>
      <point x="497" y="163"/>
      <point x="410" y="264"/>
      <point x="306" y="264" type="curve" smooth="yes"/>
      <point x="223" y="264"/>
      <point x="160" y="204"/>
      <point x="160" y="133" type="curve" smooth="yes"/>
      <point x="160" y="62"/>
      <point x="208" y="10"/>
      <point x="264" y="10" type="curve" smooth="yes"/>
      <point x="320" y="10"/>
      <point x="324" y="43"/>
      <point x="362" y="43" type="curve" smooth="yes"/>
      <point x="381" y="43"/>
      <point x="395" y="16"/>
      <point x="395" y="-17" type="curve" smooth="yes"/>
      <point x="395" y="-121"/>
      <point x="291" y="-227"/>
      <point x="160" y="-260" type="curve"/>
    </contour>
  </outline>
</glyph>
<glyph name="hyphen" format="2">
  <advance width="974"/>
  <unicode hex="002D"/>
  <outline>
    <contour>
      <point x="150" y="888" type="line"/>
      <point x="150" y="750" type="line"/>
      <point x="824" y="750" type="line"/>
      <point x="824" y="888" type="line"/>
    </contour>
    <contour>
      <point x="150" y="888" type="line"/>
      <point x="150" y="750" type="line"/>
      <point x="824" y="750" type="line"/>
      <point x="824" y="888" type="line"/>
    </contour>
  </outline>
</glyph>
<glyph name="period" format="2">
  <advance width="651"/>
  <unicode hex="002E"/>
  <outline>
    <contour>
      <point x="288" y="-13" type="curve" smooth="yes"/>
      <point x="360" y="-13"/>
      <point x="418" y="45"/>
      <point x="418" y="117" type="curve" smooth="yes"/>
      <point x="418" y="189"/>
      <point x="360" y="247"/>
      <point x="288" y="247" type="curve" smooth="yes"/>
      <point x="216" y="247"/>
      <point x="158" y="189"/>
      <point x="158" y="117" type="curve" smooth="yes"/>
      <point x="158" y="45"/>
      <point x="216" y="-13"/>
    </contour>
  </outline>
</glyph>
<glyph name="slash" format="2">
  <advance width="1062"/>
  <unicode hex="002F"/>
  <outline>
    <contour>
      <point x="50" y="0" type="line"/>
      <point x="239" y="0" type="line"/>
      <point x="1012" y="1471" type="line"/>
      <point x="824" y="1471" type="line"/>
    </contour>
  </outline>
</glyph>
<glyph name="zero" format="2">
  <advance width="1128"/>
  <unicode hex="0030"/>
  <outline>
    <contour>
      <point x="564" y="-20" type="curve" smooth="yes"/>
      <point x="799" y="-20"/>
      <point x="1003" y="88"/>
      <point x="1003" y="718" type="curve" smooth="yes"/>
      <point x="1003" y="1348"/>
      <point x="799" y="1455"/>
      <point x="564" y="1455" type="curve" smooth="yes"/>
      <point x="329" y="1455"/>
      <point x="125" y="1348"/>
      <point x="125" y="718" type="curve" smooth="yes"/>
      <point x="125" y="88"/>
      <point x="329" y="-20"/>
    </contour>
    <contour>
      <point x="564" y="91" type="curve" smooth="yes"/>
      <point x="448" y="91"/>
      <point x="318" y="233"/>
      <point x="318" y="718" type="curve" smooth="yes"/>
      <point x="318" y="1203"/>
      <point x="448" y="1344"/>
      <point x="564" y="1344" type="curve" smooth="yes"/>
      <point x="680" y="1344"/>
      <point x="810" y="1203"/>
      <point x="810" y="718" type="curve" smooth="yes"/>
      <point x="810" y="233"/>
      <point x="680" y="91"/>
    </contour>
  </outline>
</glyph>
<glyph name="one" format="2">
  <advance width="1250"/>
  <unicode hex="0031"/>
  <guideline x="472" y="1539" angle="219.2437"/>
  <outline>
    <contour>
      <point x="567" y="1416" type="line"/>
      <point x="567" y="150" type="line"/>
      <point x="240" y="85" type="line"/>
      <point x="240" y="0" type="line"/>
      <point x="1092" y="0" type="line"/>
      <point x="1092" y="85" type="line"/>
      <point x="765" y="150" type="line"/>
      <point x="765" y="1660" type="line"/>
      <point x="608" y="1660" type="line"/>
      <point x="180" y="1288" type="line"/>
      <point x="180" y="1171" type="line"/>
    </contour>
  </outline>
</glyph>
<glyph name="two" format="2">
  <advance width="1250"/>
  <unicode hex="0032"/>
  <outline>
    <contour>
      <point x="583" y="1540" type="curve" smooth="yes"/>
      <point x="780" y="1540"/>
      <point x="875" y="1409"/>
      <point x="875" y="1258" type="curve" smooth="yes"/>
      <point x="875" y="954"/>
      <point x="454" y="410"/>
      <point x="178" y="152" type="curve"/>
      <point x="178" y="0" type="line"/>
      <point x="1117" y="0" type="line"/>
      <point x="1117" y="378" type="line"/>
      <point x="1032" y="378" type="line"/>
      <point x="997" y="188" type="line"/>
      <point x="399" y="188" type="line"/>
      <point x="399" y="202" type="line"/>
      <point x="587" y="394"/>
      <point x="1078" y="856"/>
      <point x="1078" y="1286" type="curve" smooth="yes"/>
      <point x="1078" y="1451"/>
      <point x="963" y="1660"/>
      <point x="621" y="1660" type="curve" smooth="yes"/>
      <point x="282" y="1660"/>
      <point x="157" y="1527"/>
      <point x="157" y="1390" type="curve" smooth="yes"/>
      <point x="157" y="1283"/>
      <point x="227" y="1216"/>
      <point x="308" y="1216" type="curve" smooth="yes"/>
      <point x="390" y="1216"/>
      <point x="444" y="1276"/>
      <point x="444" y="1349" type="curve" smooth="yes"/>
      <point x="444" y="1406"/>
      <point x="390" y="1470"/>
      <point x="323" y="1465" type="curve"/>
      <point x="351" y="1502"/>
      <point x="443" y="1540"/>
    </contour>
  </outline>
</glyph>
<glyph name="three" format="2">
  <advance width="1250"/>
  <unicode hex="0033"/>
  <guideline x="803" y="1145" angle="90"/>
  <guideline x="393" y="1105" angle="270"/>
  <anchor x="605" y="-110" name="LL"/>
  <anchor x="605" y="1745" name="LU"/>
  <outline>
    <contour>
      <point x="580" y="-19" type="curve" smooth="yes"/>
      <point x="865" y="-19"/>
      <point x="1112" y="111"/>
      <point x="1112" y="419" type="curve" smooth="yes"/>
      <point x="1112" y="630"/>
      <point x="953" y="837"/>
      <point x="665" y="807" type="curve"/>
      <point x="558" y="718" type="line"/>
      <point x="920" y="814"/>
      <point x="1047" y="959"/>
      <point x="1047" y="1114" type="curve" smooth="yes"/>
      <point x="1047" y="1277"/>
      <point x="909" y="1440"/>
      <point x="576" y="1440" type="curve" smooth="yes"/>
      <point x="309" y="1440"/>
      <point x="157" y="1296"/>
      <point x="157" y="1128" type="curve" smooth="yes"/>
      <point x="157" y="1010"/>
      <point x="232" y="958"/>
      <point x="304" y="958" type="curve" smooth="yes"/>
      <point x="372" y="958"/>
      <point x="438" y="1004"/>
      <point x="438" y="1087" type="curve" smooth="yes"/>
      <point x="438" y="1146"/>
      <point x="384" y="1197"/>
      <point x="321" y="1197" type="curve" smooth="yes"/>
      <point x="298" y="1197"/>
      <point x="273" y="1190"/>
      <point x="250" y="1175" type="curve"/>
      <point x="287" y="1168" type="line"/>
      <point x="304" y="1277"/>
      <point x="412" y="1330"/>
      <point x="572" y="1330" type="curve" smooth="yes"/>
      <point x="731" y="1330"/>
      <point x="843" y="1236"/>
      <point x="843" y="1115" type="curve" smooth="yes"/>
      <point x="843" y="943"/>
      <point x="718" y="843"/>
      <point x="467" y="798" type="curve"/>
      <point x="467" y="700" type="line"/>
      <point x="793" y="700"/>
      <point x="911" y="639"/>
      <point x="911" y="397" type="curve" smooth="yes"/>
      <point x="911" y="184"/>
      <point x="799" y="93"/>
      <point x="583" y="93" type="curve" smooth="yes"/>
      <point x="390" y="93"/>
      <point x="255" y="163"/>
      <point x="246" y="243" type="curve"/>
      <point x="216" y="241" type="line"/>
      <point x="240" y="223"/>
      <point x="263" y="215"/>
      <point x="286" y="215" type="curve" smooth="yes"/>
      <point x="349" y="215"/>
      <point x="400" y="276"/>
      <point x="400" y="331" type="curve" smooth="yes"/>
      <point x="400" y="404"/>
      <point x="346" y="464"/>
      <point x="264" y="464" type="curve" smooth="yes"/>
      <point x="183" y="464"/>
      <point x="113" y="397"/>
      <point x="113" y="290" type="curve" smooth="yes"/>
      <point x="113" y="105"/>
      <point x="305" y="-19"/>
    </contour>
  </outline>
</glyph>
<glyph name="four" format="2">
  <advance width="1250"/>
  <unicode hex="0034"/>
  <guideline x="634" y="970" angle="234.5125"/>
  <guideline x="244" y="1105" angle="270"/>
  <anchor x="605" y="-110" name="LL"/>
  <anchor x="605" y="1745" name="LU"/>
  <outline>
    <contour>
      <point x="196" y="467" type="line"/>
      <point x="793" y="1253" type="line"/>
      <point x="767" y="1270" type="line"/>
      <point x="767" y="120" type="line"/>
      <point x="597" y="85" type="line"/>
      <point x="597" y="0" type="line"/>
      <point x="1125" y="0" type="line"/>
      <point x="1125" y="85" type="line"/>
      <point x="965" y="120" type="line"/>
      <point x="965" y="1455" type="line"/>
      <point x="767" y="1455" type="line"/>
      <point x="91" y="565" type="line"/>
      <point x="91" y="419" type="line"/>
      <point x="1129" y="419" type="line"/>
      <point x="1129" y="535" type="line"/>
      <point x="177" y="535" type="line"/>
    </contour>
  </outline>
</glyph>
<glyph name="five" format="2">
  <advance width="1100"/>
  <unicode hex="0035"/>
  <outline>
    <contour>
      <point x="510" y="90" type="curve" smooth="yes"/>
      <point x="715" y="90"/>
      <point x="782" y="236"/>
      <point x="782" y="421" type="curve" smooth="yes"/>
      <point x="782" y="656"/>
      <point x="693" y="784"/>
      <point x="472" y="784" type="curve" smooth="yes"/>
      <point x="379" y="784"/>
      <point x="242" y="759"/>
      <point x="161" y="749" type="curve"/>
      <point x="161" y="1440" type="line"/>
      <point x="905" y="1440" type="line"/>
      <point x="905" y="1154" type="line"/>
      <point x="820" y="1154" type="line"/>
      <point x="785" y="1324" type="line"/>
      <point x="349" y="1324" type="line"/>
      <point x="349" y="881" type="line"/>
      <point x="396" y="890"/>
      <point x="484" y="906"/>
      <point x="532" y="906" type="curve" smooth="yes"/>
      <point x="743" y="906"/>
      <point x="980" y="778"/>
      <point x="980" y="466" type="curve" smooth="yes"/>
      <point x="980" y="167"/>
      <point x="799" y="-20"/>
      <point x="522" y="-20" type="curve" smooth="yes"/>
      <point x="243" y="-20"/>
      <point x="113" y="98"/>
      <point x="113" y="245" type="curve" smooth="yes"/>
      <point x="113" y="349"/>
      <point x="175" y="409"/>
      <point x="258" y="409" type="curve" smooth="yes"/>
      <point x="342" y="409"/>
      <point x="394" y="361"/>
      <point x="394" y="286" type="curve" smooth="yes"/>
      <point x="394" y="229"/>
      <point x="335" y="171"/>
      <point x="268" y="176" type="curve"/>
      <point x="311" y="120"/>
      <point x="394" y="90"/>
    </contour>
  </outline>
</glyph>
<glyph name="six" format="2">
  <advance width="1250"/>
  <unicode hex="0036"/>
  <anchor x="675" y="-110" name="LL"/>
  <anchor x="675" y="1745" name="LU"/>
  <outline>
    <contour>
      <point x="335" y="738" type="curve" smooth="yes"/>
      <point x="335" y="1292"/>
      <point x="486" y="1545"/>
      <point x="729" y="1545" type="curve" smooth="yes"/>
      <point x="805" y="1545"/>
      <point x="900" y="1520"/>
      <point x="906" y="1421" type="curve"/>
      <point x="930" y="1484" type="line"/>
      <point x="863" y="1506"/>
      <point x="791" y="1425"/>
      <point x="791" y="1362" type="curve" smooth="yes"/>
      <point x="791" y="1294"/>
      <point x="849" y="1245"/>
      <point x="917" y="1245" type="curve" smooth="yes"/>
      <point x="987" y="1245"/>
      <point x="1054" y="1316"/>
      <point x="1054" y="1402" type="curve" smooth="yes"/>
      <point x="1054" y="1531"/>
      <point x="923" y="1660"/>
      <point x="718" y="1660" type="curve" smooth="yes"/>
      <point x="328" y="1660"/>
      <point x="132" y="1364"/>
      <point x="132" y="725" type="curve" smooth="yes"/>
      <point x="132" y="161"/>
      <point x="331" y="-20"/>
      <point x="662" y="-20" type="curve" smooth="yes"/>
      <point x="1011" y="-20"/>
      <point x="1133" y="171"/>
      <point x="1133" y="484" type="curve" smooth="yes"/>
      <point x="1133" y="769"/>
      <point x="976" y="953"/>
      <point x="692" y="953" type="curve" smooth="yes"/>
      <point x="522" y="953"/>
      <point x="288" y="785"/>
      <point x="288" y="605" type="curve"/>
      <point x="347" y="479" type="line"/>
      <point x="327" y="670"/>
      <point x="517" y="837"/>
      <point x="682" y="837" type="curve" smooth="yes"/>
      <point x="826" y="837"/>
      <point x="930" y="753"/>
      <point x="930" y="484" type="curve" smooth="yes"/>
      <point x="930" y="254"/>
      <point x="886" y="96"/>
      <point x="652" y="96" type="curve" smooth="yes"/>
      <point x="414" y="96"/>
      <point x="335" y="271"/>
    </contour>
  </outline>
</glyph>
<glyph name="seven" format="2">
  <advance width="1250"/>
  <unicode hex="0037"/>
  <guideline x="948" y="1145" angle="90"/>
  <anchor x="589" y="-110" name="LL"/>
  <anchor x="589" y="1745" name="LU"/>
  <outline>
    <contour>
      <point x="666" y="0" type="line"/>
      <point x="666" y="102" type="line"/>
      <point x="1072" y="1361" type="line"/>
      <point x="1072" y="1440" type="line"/>
      <point x="151" y="1440" type="line"/>
      <point x="151" y="1052" type="line"/>
      <point x="236" y="1052" type="line"/>
      <point x="271" y="1252" type="line"/>
      <point x="955" y="1252" type="line"/>
      <point x="938" y="1403" type="line"/>
      <point x="463" y="0" type="line"/>
    </contour>
  </outline>
</glyph>
<glyph name="eight" format="2">
  <advance width="1250"/>
  <unicode hex="0038"/>
  <anchor x="625" y="-110" name="LL"/>
  <anchor x="625" y="1745" name="LU"/>
  <outline>
    <contour>
      <point x="625" y="-20" type="curve" smooth="yes"/>
      <point x="907" y="-20"/>
      <point x="1121" y="111"/>
      <point x="1120" y="393" type="curve" smooth="yes"/>
      <point x="1119" y="665"/>
      <point x="876" y="821"/>
      <point x="625" y="821" type="curve" smooth="yes"/>
      <point x="374" y="821"/>
      <point x="130" y="666"/>
      <point x="130" y="393" type="curve" smooth="yes"/>
      <point x="130" y="111"/>
      <point x="334" y="-20"/>
    </contour>
    <contour>
      <point x="625" y="90" type="curve" smooth="yes"/>
      <point x="453" y="90"/>
      <point x="328" y="188"/>
      <point x="328" y="393" type="curve" smooth="yes"/>
      <point x="328" y="623"/>
      <point x="463" y="715"/>
      <point x="625" y="715" type="curve" smooth="yes"/>
      <point x="787" y="715"/>
      <point x="921" y="623"/>
      <point x="922" y="393" type="curve" smooth="yes"/>
      <point x="923" y="188"/>
      <point x="788" y="90"/>
    </contour>
    <contour>
      <point x="625" y="718" type="curve" smooth="yes"/>
      <point x="876" y="718"/>
      <point x="1070" y="851"/>
      <point x="1070" y="1074" type="curve" smooth="yes"/>
      <point x="1070" y="1307"/>
      <point x="876" y="1440"/>
      <point x="625" y="1440" type="curve" smooth="yes"/>
      <point x="374" y="1440"/>
      <point x="180" y="1307"/>
      <point x="180" y="1074" type="curve" smooth="yes"/>
      <point x="180" y="851"/>
      <point x="374" y="718"/>
    </contour>
    <contour>
      <point x="625" y="823" type="curve" smooth="yes"/>
      <point x="463" y="823"/>
      <point x="378" y="934"/>
      <point x="378" y="1074" type="curve" smooth="yes"/>
      <point x="378" y="1230"/>
      <point x="453" y="1330"/>
      <point x="625" y="1330" type="curve" smooth="yes"/>
      <point x="797" y="1330"/>
      <point x="872" y="1240"/>
      <point x="872" y="1074" type="curve" smooth="yes"/>
      <point x="872" y="934"/>
      <point x="787" y="823"/>
    </contour>
  </outline>
</glyph>
<glyph name="nine" format="2">
  <advance width="1250"/>
  <unicode hex="0039"/>
  <anchor x="575" y="-110" name="LL"/>
  <anchor x="575" y="1745" name="LU"/>
  <outline>
    <contour>
      <point x="918" y="831" type="curve" smooth="yes"/>
      <point x="918" y="329"/>
      <point x="902" y="95"/>
      <point x="574" y="95" type="curve" smooth="yes"/>
      <point x="437" y="95"/>
      <point x="368" y="123"/>
      <point x="349" y="188" type="curve"/>
      <point x="305" y="175" type="line"/>
      <point x="393" y="117"/>
      <point x="493" y="182"/>
      <point x="493" y="263" type="curve" smooth="yes"/>
      <point x="493" y="338"/>
      <point x="441" y="391"/>
      <point x="357" y="391" type="curve" smooth="yes"/>
      <point x="263" y="391"/>
      <point x="212" y="320"/>
      <point x="212" y="222" type="curve" smooth="yes"/>
      <point x="212" y="85"/>
      <point x="338" y="-20"/>
      <point x="601" y="-20" type="curve" smooth="yes"/>
      <point x="1029" y="-20"/>
      <point x="1118" y="292"/>
      <point x="1118" y="722" type="curve" smooth="yes"/>
      <point x="1118" y="1215"/>
      <point x="1087" y="1655"/>
      <point x="588" y="1655" type="curve" smooth="yes"/>
      <point x="239" y="1655"/>
      <point x="117" y="1404"/>
      <point x="117" y="1091" type="curve" smooth="yes"/>
      <point x="117" y="806"/>
      <point x="274" y="612"/>
      <point x="558" y="612" type="curve" smooth="yes"/>
      <point x="738" y="612"/>
      <point x="962" y="780"/>
      <point x="962" y="960" type="curve"/>
      <point x="909" y="1086" type="line"/>
      <point x="929" y="895"/>
      <point x="743" y="728"/>
      <point x="568" y="728" type="curve" smooth="yes"/>
      <point x="424" y="728"/>
      <point x="320" y="822"/>
      <point x="320" y="1091" type="curve" smooth="yes"/>
      <point x="320" y="1321"/>
      <point x="364" y="1539"/>
      <point x="598" y="1539" type="curve" smooth="yes"/>
      <point x="836" y="1539"/>
      <point x="918" y="1364"/>
    </contour>
  </outline>
</glyph>
<glyph name="less" format="2">
  <advance width="1339"/>
  <unicode hex="003C"/>
  <outline>
    <contour>
      <point x="1189" y="397" type="line"/>
      <point x="1189" y="546" type="line"/>
      <point x="447" y="831" type="line"/>
      <point x="1189" y="1116" type="line"/>
      <point x="1189" y="1265" type="line"/>
      <point x="150" y="859" type="line"/>
      <point x="150" y="803" type="line"/>
    </contour>
  </outline>
</glyph>
<glyph name="equal" format="2">
  <advance width="1200"/>
  <unicode hex="003D"/>
  <outline>
    <contour>
      <point x="150" y="969" type="line"/>
      <point x="150" y="778" type="line"/>
      <point x="1050" y="778" type="line"/>
      <point x="1050" y="969" type="line"/>
    </contour>
    <contour>
      <point x="150" y="545" type="line"/>
      <point x="150" y="352" type="line"/>
      <point x="1050" y="352" type="line"/>
      <point x="1050" y="545" type="line"/>
    </contour>
  </outline>
</glyph>
<glyph name="greater" format="2">
  <advance width="1339"/>
  <unicode hex="003E"/>
  <outline>
    <contour>
      <point x="150" y="297" type="line"/>
      <point x="1189" y="703" type="line"/>
      <point x="1189" y="759" type="line"/>
      <point x="150" y="1165" type="line"/>
      <point x="150" y="1040" type="line"/>
      <point x="942" y="731" type="line"/>
      <point x="150" y="422" type="line"/>
    </contour>
  </outline>
</glyph>
<glyph name="question" format="2">
  <advance width="1306"/>
  <unicode hex="003F"/>
  <guideline x="600" y="1660" angle="270"/>
  <outline>
    <component base="period" xOffset="268"/>
    <contour>
      <point x="494" y="428" type="curve"/>
      <point x="634" y="428" type="line"/>
      <point x="634" y="921"/>
      <point x="1086" y="871"/>
      <point x="1086" y="1296" type="curve" smooth="yes"/>
      <point x="1086" y="1568"/>
      <point x="857" y="1660"/>
      <point x="600" y="1660" type="curve" smooth="yes"/>
      <point x="385" y="1660"/>
      <point x="180" y="1557"/>
      <point x="180" y="1374" type="curve" smooth="yes"/>
      <point x="180" y="1267"/>
      <point x="250" y="1200"/>
      <point x="331" y="1200" type="curve" smooth="yes"/>
      <point x="413" y="1200"/>
      <point x="467" y="1260"/>
      <point x="467" y="1333" type="curve" smooth="yes"/>
      <point x="467" y="1407"/>
      <point x="372" y="1493"/>
      <point x="280" y="1423" type="curve"/>
      <point x="324" y="1428" type="line"/>
      <point x="332" y="1474"/>
      <point x="463" y="1534"/>
      <point x="595" y="1534" type="curve" smooth="yes"/>
      <point x="734" y="1534"/>
      <point x="863" y="1491"/>
      <point x="863" y="1288" type="curve" smooth="yes"/>
      <point x="863" y="1005"/>
      <point x="494" y="1002"/>
    </contour>
  </outline>
</glyph>
<glyph name="at" format="2">
  <advance width="2073"/>
  <unicode hex="0040"/>
  <outline>
    <contour>
      <point x="864" y="97" type="curve" smooth="yes"/>
      <point x="1107" y="97"/>
      <point x="1283" y="265"/>
      <point x="1313" y="343" type="curve"/>
      <point x="1269" y="415" type="line"/>
      <point x="1187" y="315"/>
      <point x="1058" y="214"/>
      <point x="922" y="214" type="curve" smooth="yes"/>
      <point x="801" y="214"/>
      <point x="722" y="303"/>
      <point x="722" y="612" type="curve" smooth="yes"/>
      <point x="722" y="848"/>
      <point x="782" y="1011"/>
      <point x="953" y="1011" type="curve" smooth="yes"/>
      <point x="1064" y="1011"/>
      <point x="1199" y="932"/>
      <point x="1248" y="843" type="curve"/>
      <point x="1303" y="934" type="line"/>
      <point x="1216" y="1050"/>
      <point x="1057" y="1132"/>
      <point x="924" y="1132" type="curve" smooth="yes"/>
      <point x="667" y="1132"/>
      <point x="518" y="967"/>
      <point x="518" y="612" type="curve" smooth="yes"/>
      <point x="518" y="209"/>
      <point x="694" y="97"/>
    </contour>
    <contour>
      <point x="1564" y="250" type="curve" smooth="yes"/>
      <point x="1512" y="207"/>
      <point x="1430" y="224"/>
      <point x="1430" y="321" type="curve" smooth="yes"/>
      <point x="1430" y="1146" type="line"/>
      <point x="1242" y="1146" type="line"/>
      <point x="1242" y="244" type="line" smooth="yes"/>
      <point x="1242" y="76"/>
      <point x="1394" y="-16"/>
      <point x="1558" y="104" type="curve" smooth="yes"/>
      <point x="1748" y="243"/>
      <point x="1875" y="544"/>
      <point x="1875" y="853" type="curve" smooth="yes"/>
      <point x="1875" y="1284"/>
      <point x="1515" y="1600"/>
      <point x="1032" y="1600" type="curve" smooth="yes"/>
      <point x="516" y="1600"/>
      <point x="108" y="1160"/>
      <point x="108" y="646" type="curve" smooth="yes"/>
      <point x="108" y="3"/>
      <point x="537" y="-336"/>
      <point x="1063" y="-336" type="curve" smooth="yes"/>
      <point x="1559" y="-336"/>
      <point x="1814" y="-124"/>
      <point x="1973" y="302" type="curve"/>
      <point x="1865" y="302" type="line"/>
      <point x="1737" y="-32"/>
      <point x="1535" y="-226"/>
      <point x="1063" y="-226" type="curve" smooth="yes"/>
      <point x="542" y="-226"/>
      <point x="218" y="120"/>
      <point x="218" y="646" type="curve" smooth="yes"/>
      <point x="218" y="1108"/>
      <point x="600" y="1490"/>
      <point x="1032" y="1490" type="curve" smooth="yes"/>
      <point x="1450" y="1490"/>
      <point x="1765" y="1224"/>
      <point x="1765" y="861" type="curve" smooth="yes"/>
      <point x="1765" y="579"/>
      <point x="1690" y="356"/>
    </contour>
  </outline>
</glyph>
<glyph name="A" format="2">
  <advance width="1504"/>
  <unicode hex="0041"/>
  <outline>
    <contour>
      <point x="403" y="668" type="line"/>
      <point x="383" y="548" type="line"/>
      <point x="1092" y="548" type="line"/>
      <point x="1070" y="668" type="line"/>
    </contour>
    <contour>
      <point x="275" y="120" type="line"/>
      <point x="769" y="1650" type="line"/>
      <point x="643" y="1650" type="line"/>
      <point x="150" y="125" type="line"/>
      <point x="0" y="85" type="line"/>
      <point x="0" y="0" type="line"/>
      <point x="445" y="0" type="line"/>
      <point x="445" y="85" type="line"/>
    </contour>
    <contour>
      <point x="1147" y="120" type="line"/>
      <point x="977" y="85" type="line"/>
      <point x="977" y="0" type="line"/>
      <point x="1504" y="0" type="line"/>
      <point x="1504" y="85" type="line"/>
      <point x="1354" y="125" type="line"/>
      <point x="861" y="1650" type="line"/>
      <point x="653" y="1650" type="line"/>
    </contour>
  </outline>
</glyph>
<glyph name="B" format="2">
  <advance width="1479"/>
  <unicode hex="0042"/>
  <anchor x="756" y="-110" name="LL"/>
  <anchor x="731" y="1745" name="LU"/>
  <outline>
    <contour>
      <point x="463" y="0" type="line"/>
      <point x="463" y="1650" type="line"/>
      <point x="115" y="1650" type="line"/>
      <point x="115" y="1565" type="line"/>
      <point x="265" y="1530" type="line"/>
      <point x="265" y="120" type="line"/>
      <point x="115" y="85" type="line"/>
      <point x="115" y="0" type="line"/>
    </contour>
    <contour>
      <point x="777" y="0" type="line"/>
      <point x="1147" y="0"/>
      <point x="1354" y="142"/>
      <point x="1354" y="466" type="curve" smooth="yes"/>
      <point x="1354" y="770"/>
      <point x="1024" y="926"/>
      <point x="747" y="926" type="curve" smooth="yes"/>
      <point x="270" y="926" type="line"/>
      <point x="270" y="821" type="line"/>
      <point x="759" y="821" type="line" smooth="yes"/>
      <point x="970" y="821"/>
      <point x="1141" y="720"/>
      <point x="1141" y="459" type="curve" smooth="yes"/>
      <point x="1141" y="258"/>
      <point x="1010" y="112"/>
      <point x="789" y="112" type="curve" smooth="yes"/>
      <point x="352" y="112" type="line"/>
      <point x="352" y="0" type="line"/>
    </contour>
    <contour>
      <point x="320" y="821" type="line"/>
      <point x="691" y="821" type="line" smooth="yes"/>
      <point x="1021" y="821"/>
      <point x="1287" y="965"/>
      <point x="1287" y="1265" type="curve" smooth="yes"/>
      <point x="1287" y="1565"/>
      <point x="1001" y="1650"/>
      <point x="661" y="1650" type="curve" smooth="yes"/>
      <point x="380" y="1650" type="line"/>
      <point x="380" y="1539" type="line"/>
      <point x="673" y="1539" type="line" smooth="yes"/>
      <point x="924" y="1539"/>
      <point x="1074" y="1485"/>
      <point x="1074" y="1258" type="curve" smooth="yes"/>
      <point x="1074" y="1045"/>
      <point x="899" y="930"/>
      <point x="663" y="930" type="curve" smooth="yes"/>
      <point x="320" y="930" type="line"/>
    </contour>
  </outline>
</glyph>
<glyph name="C" format="2">
  <advance width="1375"/>
  <unicode hex="0043"/>
  <anchor x="788" y="30" name="LH"/>
  <anchor x="774" y="-110" name="LL"/>
  <anchor x="774" y="1745" name="LU"/>
  <outline>
    <contour>
      <point x="798" y="1562" type="curve" smooth="yes"/>
      <point x="988" y="1562"/>
      <point x="1082" y="1508"/>
      <point x="1087" y="1466" type="curve"/>
      <point x="1141" y="1461" type="line"/>
      <point x="1049" y="1531"/>
      <point x="957" y="1445"/>
      <point x="957" y="1371" type="curve" smooth="yes"/>
      <point x="957" y="1298"/>
      <point x="1011" y="1238"/>
      <point x="1093" y="1238" type="curve" smooth="yes"/>
      <point x="1174" y="1238"/>
      <point x="1244" y="1305"/>
      <point x="1244" y="1412" type="curve" smooth="yes"/>
      <point x="1244" y="1549"/>
      <point x="1099" y="1682"/>
      <point x="810" y="1682" type="curve" smooth="yes"/>
      <point x="408" y="1682"/>
      <point x="125" y="1514"/>
      <point x="125" y="849" type="curve" smooth="yes"/>
      <point x="125" y="202"/>
      <point x="368" y="-20"/>
      <point x="788" y="-20" type="curve" smooth="yes"/>
      <point x="1080" y="-20"/>
      <point x="1290" y="191"/>
      <point x="1290" y="385" type="curve"/>
      <point x="1173" y="385" type="line"/>
      <point x="1173" y="248"/>
      <point x="1003" y="100"/>
      <point x="790" y="100" type="curve" smooth="yes"/>
      <point x="499" y="100"/>
      <point x="338" y="366"/>
      <point x="338" y="842" type="curve" smooth="yes"/>
      <point x="338" y="1349"/>
      <point x="462" y="1562"/>
    </contour>
  </outline>
</glyph>
<glyph name="D" format="2">
  <advance width="1557"/>
  <unicode hex="0044"/>
  <outline>
    <contour>
      <point x="247" y="229" type="line"/>
      <point x="247" y="75"/>
      <point x="191" y="37"/>
      <point x="41" y="37" type="curve"/>
      <point x="41" y="0" type="line"/>
      <point x="734" y="0" type="line" smooth="yes"/>
      <point x="1220" y="0"/>
      <point x="1489" y="329"/>
      <point x="1489" y="730" type="curve" smooth="yes"/>
      <point x="1489" y="944"/>
      <point x="1414" y="1127"/>
      <point x="1268" y="1264" type="curve" smooth="yes"/>
      <point x="1138" y="1385"/>
      <point x="947" y="1437"/>
      <point x="682" y="1437" type="curve" smooth="yes"/>
      <point x="41" y="1437" type="line"/>
      <point x="41" y="1400" type="line"/>
      <point x="191" y="1400"/>
      <point x="247" y="1362"/>
      <point x="247" y="1209" type="curve" smooth="yes"/>
    </contour>
    <contour>
      <point x="464" y="1329" type="line"/>
      <point x="532" y="1350"/>
      <point x="591" y="1366"/>
      <point x="696" y="1366" type="curve" smooth="yes"/>
      <point x="1007" y="1366"/>
      <point x="1231" y="1081"/>
      <point x="1231" y="726" type="curve" smooth="yes"/>
      <point x="1231" y="322"/>
      <point x="992" y="71"/>
      <point x="696" y="71" type="curve" smooth="yes"/>
      <point x="614" y="71"/>
      <point x="535" y="79"/>
      <point x="464" y="104" type="curve"/>
    </contour>
  </outline>
</glyph>
<glyph name="E" format="2">
  <advance width="1334"/>
  <unicode hex="0045"/>
  <outline>
    <contour>
      <point x="943" y="947" type="line"/>
      <point x="389" y="947" type="line"/>
      <point x="389" y="831" type="line"/>
      <point x="943" y="831" type="line"/>
      <point x="978" y="671" type="line"/>
      <point x="1073" y="671" type="line"/>
      <point x="1073" y="1107" type="line"/>
      <point x="978" y="1107" type="line"/>
    </contour>
    <contour>
      <point x="1104" y="1534" type="line"/>
      <point x="1139" y="1344" type="line"/>
      <point x="1234" y="1344" type="line"/>
      <point x="1234" y="1650" type="line"/>
      <point x="385" y="1650" type="line"/>
      <point x="385" y="1534" type="line"/>
    </contour>
    <contour>
      <point x="1104" y="116" type="line"/>
      <point x="390" y="116" type="line"/>
      <point x="385" y="0" type="line"/>
      <point x="1234" y="0" type="line"/>
      <point x="1234" y="306" type="line"/>
      <point x="1139" y="306" type="line"/>
    </contour>
    <contour>
      <point x="458" y="0" type="line"/>
      <point x="458" y="1650" type="line"/>
      <point x="115" y="1650" type="line"/>
      <point x="115" y="1565" type="line"/>
      <point x="265" y="1530" type="line"/>
      <point x="270" y="120" type="line"/>
      <point x="120" y="85" type="line"/>
      <point x="120" y="0" type="line"/>
    </contour>
  </outline>
</glyph>
<glyph name="F" format="2">
  <advance width="1314"/>
  <unicode hex="0046"/>
  <anchor x="784" y="-110" name="LL"/>
  <anchor x="784" y="1745" name="LU"/>
  <outline>
    <contour>
      <point x="628" y="0" type="line"/>
      <point x="628" y="85" type="line"/>
      <point x="463" y="120" type="line"/>
      <point x="463" y="1650" type="line"/>
      <point x="115" y="1650" type="line"/>
      <point x="115" y="1565" type="line"/>
      <point x="265" y="1530" type="line"/>
      <point x="265" y="120" type="line"/>
      <point x="115" y="85" type="line"/>
      <point x="115" y="0" type="line"/>
    </contour>
    <contour>
      <point x="1104" y="1534" type="line"/>
      <point x="1139" y="1344" type="line"/>
      <point x="1234" y="1344" type="line"/>
      <point x="1234" y="1650" type="line"/>
      <point x="385" y="1650" type="line"/>
      <point x="385" y="1534" type="line"/>
    </contour>
    <contour>
      <point x="943" y="947" type="line"/>
      <point x="389" y="947" type="line"/>
      <point x="389" y="831" type="line"/>
      <point x="943" y="831" type="line"/>
      <point x="978" y="671" type="line"/>
      <point x="1073" y="671" type="line"/>
      <point x="1073" y="1107" type="line"/>
      <point x="978" y="1107" type="line"/>
    </contour>
  </outline>
</glyph>
<glyph name="G" format="2">
  <advance width="1478"/>
  <unicode hex="0047"/>
  <anchor x="744" y="-110" name="LL"/>
  <anchor x="754" y="1745" name="LU"/>
  <outline>
    <contour>
      <point x="805" y="1562" type="curve" smooth="yes"/>
      <point x="987" y="1562"/>
      <point x="1097" y="1508"/>
      <point x="1096" y="1466" type="curve"/>
      <point x="1151" y="1461" type="line"/>
      <point x="1059" y="1531"/>
      <point x="967" y="1445"/>
      <point x="967" y="1371" type="curve" smooth="yes"/>
      <point x="967" y="1298"/>
      <point x="1021" y="1238"/>
      <point x="1103" y="1238" type="curve" smooth="yes"/>
      <point x="1184" y="1238"/>
      <point x="1254" y="1305"/>
      <point x="1254" y="1412" type="curve" smooth="yes"/>
      <point x="1254" y="1549"/>
      <point x="1104" y="1682"/>
      <point x="822" y="1682" type="curve" smooth="yes"/>
      <point x="420" y="1682"/>
      <point x="125" y="1514"/>
      <point x="125" y="849" type="curve" smooth="yes"/>
      <point x="125" y="202"/>
      <point x="349" y="-20"/>
      <point x="769" y="-20" type="curve" smooth="yes"/>
      <point x="914" y="-20"/>
      <point x="1233" y="81"/>
      <point x="1233" y="181" type="curve" smooth="yes"/>
      <point x="1233" y="594" type="line"/>
      <point x="1383" y="629" type="line"/>
      <point x="1383" y="714" type="line"/>
      <point x="865" y="714" type="line"/>
      <point x="865" y="629" type="line"/>
      <point x="1035" y="594" type="line"/>
      <point x="1035" y="247" type="line" smooth="yes"/>
      <point x="1035" y="165"/>
      <point x="902" y="100"/>
      <point x="771" y="100" type="curve" smooth="yes"/>
      <point x="480" y="100"/>
      <point x="338" y="366"/>
      <point x="338" y="842" type="curve" smooth="yes"/>
      <point x="338" y="1349"/>
      <point x="469" y="1562"/>
    </contour>
  </outline>
</glyph>
<glyph name="H" format="2">
  <advance width="1627"/>
  <unicode hex="0048"/>
  <anchor x="813" y="-110" name="LL"/>
  <anchor x="813" y="1745" name="LU"/>
  <outline>
    <contour>
      <point x="351" y="812" type="line"/>
      <point x="1277" y="812" type="line"/>
      <point x="1277" y="928" type="line"/>
      <point x="351" y="928" type="line"/>
    </contour>
    <contour>
      <point x="463" y="1530" type="line"/>
      <point x="633" y="1565" type="line"/>
      <point x="633" y="1650" type="line"/>
      <point x="115" y="1650" type="line"/>
      <point x="115" y="1565" type="line"/>
      <point x="265" y="1530" type="line"/>
      <point x="265" y="120" type="line"/>
      <point x="115" y="85" type="line"/>
      <point x="115" y="0" type="line"/>
      <point x="633" y="0" type="line"/>
      <point x="633" y="85" type="line"/>
      <point x="463" y="120" type="line"/>
    </contour>
    <contour>
      <point x="1164" y="1530" type="line"/>
      <point x="1164" y="120" type="line"/>
      <point x="994" y="85" type="line"/>
      <point x="994" y="0" type="line"/>
      <point x="1512" y="0" type="line"/>
      <point x="1512" y="85" type="line"/>
      <point x="1362" y="120" type="line"/>
      <point x="1362" y="1530" type="line"/>
      <point x="1512" y="1565" type="line"/>
      <point x="1512" y="1650" type="line"/>
      <point x="994" y="1650" type="line"/>
      <point x="994" y="1565" type="line"/>
    </contour>
  </outline>
</glyph>
<glyph name="I" format="2">
  <advance width="808"/>
  <unicode hex="0049"/>
  <anchor x="399" y="-110" name="LL"/>
  <anchor x="399" y="1745" name="LU"/>
  <outline>
    <contour>
      <point x="498" y="1530" type="line"/>
      <point x="688" y="1565" type="line"/>
      <point x="688" y="1650" type="line"/>
      <point x="120" y="1650" type="line"/>
      <point x="120" y="1565" type="line"/>
      <point x="300" y="1530" type="line"/>
      <point x="300" y="120" type="line"/>
      <point x="120" y="85" type="line"/>
      <point x="120" y="0" type="line"/>
      <point x="678" y="0" type="line"/>
      <point x="678" y="85" type="line"/>
      <point x="498" y="120" type="line"/>
    </contour>
  </outline>
</glyph>
<glyph name="J" format="2">
  <advance width="1210"/>
  <unicode hex="004A"/>
  <outline>
    <contour>
      <point x="413" y="-7" type="curve" smooth="yes"/>
      <point x="674" y="-7"/>
      <point x="905" y="87"/>
      <point x="905" y="427" type="curve" smooth="yes"/>
      <point x="905" y="1530" type="line"/>
      <point x="1055" y="1565" type="line"/>
      <point x="1055" y="1650" type="line"/>
      <point x="537" y="1650" type="line"/>
      <point x="537" y="1565" type="line"/>
      <point x="707" y="1530" type="line"/>
      <point x="707" y="408" type="line" smooth="yes"/>
      <point x="707" y="257"/>
      <point x="621" y="108"/>
      <point x="431" y="108" type="curve" smooth="yes"/>
      <point x="306" y="108"/>
      <point x="212" y="160"/>
      <point x="205" y="190" type="curve"/>
      <point x="261" y="199"/>
      <point x="302" y="244"/>
      <point x="302" y="304" type="curve" smooth="yes"/>
      <point x="302" y="369"/>
      <point x="251" y="420"/>
      <point x="176" y="420" type="curve" smooth="yes"/>
      <point x="102" y="420"/>
      <point x="34" y="378"/>
      <point x="34" y="269" type="curve" smooth="yes"/>
      <point x="34" y="108"/>
      <point x="220" y="-7"/>
    </contour>
  </outline>
</glyph>
<glyph name="K" format="2">
  <advance width="1508"/>
  <unicode hex="004B"/>
  <anchor x="774" y="-110" name="LL"/>
  <anchor x="774" y="1745" name="LU"/>
  <outline>
    <contour>
      <point x="1230" y="137" type="line"/>
      <point x="977" y="85" type="line"/>
      <point x="977" y="0" type="line"/>
      <point x="1553" y="0" type="line"/>
      <point x="1553" y="85" type="line"/>
      <point x="1388" y="125" type="line"/>
      <point x="668" y="1004" type="line"/>
      <point x="536" y="864" type="line"/>
      <point x="1201" y="55" type="line"/>
    </contour>
    <contour>
      <point x="1266" y="1526" type="line"/>
      <point x="1426" y="1565" type="line"/>
      <point x="1426" y="1650" type="line"/>
      <point x="920" y="1650" type="line"/>
      <point x="920" y="1565" type="line"/>
      <point x="1173" y="1513" type="line"/>
      <point x="1149" y="1590" type="line"/>
      <point x="303" y="730" type="line"/>
      <point x="388" y="633" type="line"/>
    </contour>
    <contour>
      <point x="458" y="1530" type="line"/>
      <point x="628" y="1565" type="line"/>
      <point x="628" y="1650" type="line"/>
      <point x="110" y="1650" type="line"/>
      <point x="110" y="1565" type="line"/>
      <point x="260" y="1530" type="line"/>
      <point x="260" y="120" type="line"/>
      <point x="110" y="85" type="line"/>
      <point x="110" y="0" type="line"/>
      <point x="628" y="0" type="line"/>
      <point x="628" y="85" type="line"/>
      <point x="458" y="120" type="line"/>
    </contour>
  </outline>
</glyph>
<glyph name="L" format="2">
  <advance width="1337"/>
  <unicode hex="004C"/>
  <outline>
    <contour>
      <point x="388" y="0" type="line"/>
      <point x="1247" y="0" type="line"/>
      <point x="1247" y="306" type="line"/>
      <point x="1152" y="306" type="line"/>
      <point x="1117" y="116" type="line"/>
      <point x="393" y="116" type="line"/>
    </contour>
    <contour>
      <point x="458" y="0" type="line"/>
      <point x="458" y="1530" type="line"/>
      <point x="628" y="1565" type="line"/>
      <point x="628" y="1650" type="line"/>
      <point x="115" y="1650" type="line"/>
      <point x="115" y="1565" type="line"/>
      <point x="265" y="1530" type="line"/>
      <point x="270" y="120" type="line"/>
      <point x="120" y="85" type="line"/>
      <point x="120" y="0" type="line"/>
    </contour>
  </outline>
</glyph>
<glyph name="M" format="2">
  <advance width="2173"/>
  <unicode hex="004D"/>
  <outline>
    <contour>
      <point x="1710" y="120" type="line"/>
      <point x="1540" y="85" type="line"/>
      <point x="1540" y="0" type="line"/>
      <point x="2058" y="0" type="line"/>
      <point x="2058" y="85" type="line"/>
      <point x="1908" y="120" type="line"/>
      <point x="1908" y="1530" type="line"/>
      <point x="2058" y="1565" type="line"/>
      <point x="2058" y="1650" type="line"/>
      <point x="1710" y="1650" type="line"/>
    </contour>
    <contour>
      <point x="251" y="1650" type="line"/>
      <point x="1007" y="0" type="line"/>
      <point x="1063" y="0" type="line"/>
      <point x="1135" y="161" type="line"/>
      <point x="448" y="1650" type="line"/>
    </contour>
    <contour>
      <point x="1664" y="1650" type="line"/>
      <point x="1001" y="0" type="line"/>
      <point x="1142" y="0" type="line"/>
      <point x="1720" y="1436" type="line"/>
      <point x="1730" y="1650" type="line"/>
    </contour>
    <contour>
      <point x="385" y="120" type="line"/>
      <point x="385" y="1650" type="line"/>
      <point x="115" y="1650" type="line"/>
      <point x="115" y="1565" type="line"/>
      <point x="265" y="1530" type="line"/>
      <point x="265" y="120" type="line"/>
      <point x="115" y="85" type="line"/>
      <point x="115" y="0" type="line"/>
      <point x="555" y="0" type="line"/>
      <point x="555" y="85" type="line"/>
    </contour>
  </outline>
</glyph>
<glyph name="N" format="2">
  <advance width="1627"/>
  <unicode hex="004E"/>
  <outline>
    <contour>
      <point x="388" y="120" type="line"/>
      <point x="388" y="1650" type="line"/>
      <point x="115" y="1650" type="line"/>
      <point x="115" y="1565" type="line"/>
      <point x="265" y="1530" type="line"/>
      <point x="265" y="120" type="line"/>
      <point x="115" y="85" type="line"/>
      <point x="115" y="0" type="line"/>
      <point x="558" y="0" type="line"/>
      <point x="558" y="85" type="line"/>
    </contour>
    <contour>
      <point x="1362" y="1530" type="line"/>
      <point x="1512" y="1565" type="line"/>
      <point x="1512" y="1650" type="line"/>
      <point x="1069" y="1650" type="line"/>
      <point x="1069" y="1565" type="line"/>
      <point x="1239" y="1530" type="line"/>
      <point x="1239" y="0" type="line"/>
      <point x="1362" y="0" type="line"/>
    </contour>
    <contour>
      <point x="246" y="1650" type="line"/>
      <point x="1125" y="0" type="line"/>
      <point x="1342" y="0" type="line"/>
      <point x="461" y="1650" type="line"/>
    </contour>
  </outline>
</glyph>
<glyph name="O" format="2">
  <advance width="1528"/>
  <unicode hex="004F"/>
  <anchor x="764" y="-110" name="LL"/>
  <anchor x="764" y="1775" name="LU"/>
  <outline>
    <contour>
      <point x="764" y="-20" type="curve" smooth="yes"/>
      <point x="1199" y="-20"/>
      <point x="1403" y="187"/>
      <point x="1403" y="823" type="curve" smooth="yes"/>
      <point x="1403" y="1459"/>
      <point x="1199" y="1666"/>
      <point x="764" y="1666" type="curve" smooth="yes"/>
      <point x="329" y="1666"/>
      <point x="125" y="1459"/>
      <point x="125" y="823" type="curve" smooth="yes"/>
      <point x="125" y="187"/>
      <point x="329" y="-20"/>
    </contour>
    <contour>
      <point x="764" y="91" type="curve" smooth="yes"/>
      <point x="448" y="91"/>
      <point x="338" y="333"/>
      <point x="338" y="823" type="curve" smooth="yes"/>
      <point x="338" y="1313"/>
      <point x="448" y="1555"/>
      <point x="764" y="1555" type="curve" smooth="yes"/>
      <point x="1080" y="1555"/>
      <point x="1190" y="1313"/>
      <point x="1190" y="823" type="curve" smooth="yes"/>
      <point x="1190" y="333"/>
      <point x="1080" y="91"/>
    </contour>
  </outline>
</glyph>
<glyph name="P" format="2">
  <advance width="1402"/>
  <unicode hex="0050"/>
  <outline>
    <contour>
      <point x="628" y="0" type="line"/>
      <point x="628" y="85" type="line"/>
      <point x="458" y="120" type="line"/>
      <point x="458" y="1650" type="line"/>
      <point x="115" y="1650" type="line"/>
      <point x="115" y="1565" type="line"/>
      <point x="265" y="1530" type="line"/>
      <point x="270" y="120" type="line"/>
      <point x="120" y="85" type="line"/>
      <point x="120" y="0" type="line"/>
    </contour>
    <contour>
      <point x="270" y="778" type="line"/>
      <point x="671" y="778" type="line" smooth="yes"/>
      <point x="1001" y="778"/>
      <point x="1287" y="883"/>
      <point x="1287" y="1223" type="curve" smooth="yes"/>
      <point x="1287" y="1577"/>
      <point x="1011" y="1650"/>
      <point x="671" y="1650" type="curve" smooth="yes"/>
      <point x="380" y="1650" type="line"/>
      <point x="380" y="1539" type="line"/>
      <point x="693" y="1539" type="line" smooth="yes"/>
      <point x="944" y="1539"/>
      <point x="1077" y="1483"/>
      <point x="1077" y="1216" type="curve" smooth="yes"/>
      <point x="1077" y="973"/>
      <point x="939" y="887"/>
      <point x="703" y="887" type="curve" smooth="yes"/>
      <point x="270" y="887" type="line"/>
    </contour>
  </outline>
</glyph>
<glyph name="Q" format="2">
  <advance width="1545"/>
  <unicode hex="0051"/>
  <anchor x="764" y="-110" name="LL"/>
  <anchor x="764" y="1775" name="LU"/>
  <outline>
    <component base="O"/>
    <contour>
      <point x="1347" y="-356" type="curve" smooth="yes"/>
      <point x="1448" y="-356"/>
      <point x="1553" y="-268"/>
      <point x="1553" y="-141" type="curve" smooth="yes"/>
      <point x="1553" y="-39"/>
      <point x="1482" y="9"/>
      <point x="1414" y="9" type="curve" smooth="yes"/>
      <point x="1351" y="9"/>
      <point x="1291" y="-32"/>
      <point x="1291" y="-111" type="curve" smooth="yes"/>
      <point x="1291" y="-164"/>
      <point x="1322" y="-220"/>
      <point x="1395" y="-220" type="curve"/>
      <point x="1385" y="-186" type="line"/>
      <point x="1372" y="-186"/>
      <point x="1362" y="-222"/>
      <point x="1308" y="-222" type="curve" smooth="yes"/>
      <point x="1267" y="-222"/>
      <point x="1193" y="-148"/>
      <point x="1152" y="-92" type="curve" smooth="yes"/>
      <point x="1070" y="19"/>
      <point x="986" y="70"/>
      <point x="791" y="70" type="curve"/>
      <point x="801" y="-16" type="line"/>
      <point x="909" y="-16"/>
      <point x="993" y="-62"/>
      <point x="1071" y="-168" type="curve" smooth="yes"/>
      <point x="1156" y="-284"/>
      <point x="1233" y="-356"/>
    </contour>
  </outline>
</glyph>
<glyph name="R" format="2">
  <advance width="1460"/>
  <unicode hex="0052"/>
  <outline>
    <contour>
      <point x="247" y="229" type="line"/>
      <point x="247" y="75"/>
      <point x="191" y="37"/>
      <point x="41" y="37" type="curve"/>
      <point x="41" y="0" type="line"/>
      <point x="666" y="0" type="line"/>
      <point x="666" y="37" type="line"/>
      <point x="520" y="37"/>
      <point x="464" y="75"/>
      <point x="464" y="229" type="curve" smooth="yes"/>
      <point x="464" y="678" type="line"/>
      <point x="618" y="678" type="line"/>
      <point x="1075" y="0" type="line"/>
      <point x="1482" y="0" type="line"/>
      <point x="1482" y="37" type="line"/>
      <point x="1370" y="37"/>
      <point x="1266" y="84"/>
      <point x="1156" y="247" type="curve" smooth="yes"/>
      <point x="853" y="696" type="line"/>
      <point x="1040" y="749"/>
      <point x="1171" y="884"/>
      <point x="1171" y="1063" type="curve" smooth="yes"/>
      <point x="1171" y="1280"/>
      <point x="1011" y="1437"/>
      <point x="696" y="1437" type="curve" smooth="yes"/>
      <point x="41" y="1437" type="line"/>
      <point x="41" y="1400" type="line"/>
      <point x="191" y="1400"/>
      <point x="247" y="1362"/>
      <point x="247" y="1209" type="curve" smooth="yes"/>
    </contour>
    <contour>
      <point x="464" y="1337" type="line"/>
      <point x="497" y="1351"/>
      <point x="599" y="1366"/>
      <point x="659" y="1366" type="curve" smooth="yes"/>
      <point x="819" y="1366"/>
      <point x="936" y="1227"/>
      <point x="936" y="1056" type="curve" smooth="yes"/>
      <point x="936" y="869"/>
      <point x="790" y="749"/>
      <point x="591" y="749" type="curve" smooth="yes"/>
      <point x="464" y="749" type="line"/>
    </contour>
  </outline>
</glyph>
<glyph name="S" format="2">
  <advance width="1377"/>
  <unicode hex="0053"/>
  <outline>
    <contour>
      <point x="639" y="-30" type="curve" smooth="yes"/>
      <point x="1076" y="-30"/>
      <point x="1257" y="154"/>
      <point x="1257" y="400" type="curve" smooth="yes"/>
      <point x="1257" y="887"/>
      <point x="348" y="905"/>
      <point x="348" y="1288" type="curve" smooth="yes"/>
      <point x="348" y="1406"/>
      <point x="488" y="1544"/>
      <point x="741" y="1544" type="curve" smooth="yes"/>
      <point x="911" y="1544"/>
      <point x="1003" y="1504"/>
      <point x="1031" y="1467" type="curve"/>
      <point x="964" y="1472"/>
      <point x="910" y="1408"/>
      <point x="910" y="1351" type="curve" smooth="yes"/>
      <point x="910" y="1278"/>
      <point x="964" y="1218"/>
      <point x="1046" y="1218" type="curve" smooth="yes"/>
      <point x="1127" y="1218"/>
      <point x="1197" y="1285"/>
      <point x="1197" y="1392" type="curve" smooth="yes"/>
      <point x="1197" y="1529"/>
      <point x="1052" y="1662"/>
      <point x="753" y="1662" type="curve" smooth="yes"/>
      <point x="376" y="1662"/>
      <point x="161" y="1493"/>
      <point x="161" y="1267" type="curve" smooth="yes"/>
      <point x="161" y="747"/>
      <point x="1066" y="744"/>
      <point x="1066" y="365" type="curve" smooth="yes"/>
      <point x="1066" y="220"/>
      <point x="946" y="88"/>
      <point x="643" y="88" type="curve" smooth="yes"/>
      <point x="433" y="88"/>
      <point x="314" y="148"/>
      <point x="286" y="185" type="curve"/>
      <point x="353" y="180"/>
      <point x="407" y="244"/>
      <point x="407" y="301" type="curve" smooth="yes"/>
      <point x="407" y="374"/>
      <point x="353" y="434"/>
      <point x="271" y="434" type="curve" smooth="yes"/>
      <point x="190" y="434"/>
      <point x="120" y="367"/>
      <point x="120" y="260" type="curve" smooth="yes"/>
      <point x="120" y="113"/>
      <point x="240" y="-30"/>
    </contour>
  </outline>
</glyph>
<glyph name="T" format="2">
  <advance width="1400"/>
  <unicode hex="0054"/>
  <outline>
    <contour>
      <point x="792" y="120" type="line"/>
      <point x="792" y="1581" type="line"/>
      <point x="599" y="1581" type="line"/>
      <point x="599" y="120" type="line"/>
      <point x="429" y="85" type="line"/>
      <point x="429" y="0" type="line"/>
      <point x="962" y="0" type="line"/>
      <point x="962" y="85" type="line"/>
    </contour>
    <contour>
      <point x="1320" y="1650" type="line"/>
      <point x="80" y="1650" type="line"/>
      <point x="80" y="1344" type="line"/>
      <point x="175" y="1344" type="line"/>
      <point x="210" y="1534" type="line"/>
      <point x="1190" y="1534" type="line"/>
      <point x="1225" y="1344" type="line"/>
      <point x="1320" y="1344" type="line"/>
    </contour>
  </outline>
</glyph>
<glyph name="U" format="2">
  <advance width="1664"/>
  <unicode hex="0055"/>
  <outline>
    <contour>
      <point x="1279" y="1530" type="line"/>
      <point x="1279" y="615" type="line" smooth="yes"/>
      <point x="1279" y="231"/>
      <point x="1119" y="100"/>
      <point x="866" y="100" type="curve" smooth="yes"/>
      <point x="575" y="100"/>
      <point x="463" y="231"/>
      <point x="463" y="615" type="curve" smooth="yes"/>
      <point x="463" y="1530" type="line"/>
      <point x="633" y="1565" type="line"/>
      <point x="633" y="1650" type="line"/>
      <point x="110" y="1650" type="line"/>
      <point x="110" y="1565" type="line"/>
      <point x="260" y="1530" type="line"/>
      <point x="260" y="615" type="line" smooth="yes"/>
      <point x="260" y="117"/>
      <point x="440" y="-20"/>
      <point x="860" y="-20" type="curve" smooth="yes"/>
      <point x="1172" y="-20"/>
      <point x="1404" y="117"/>
      <point x="1404" y="615" type="curve" smooth="yes"/>
      <point x="1404" y="1530" type="line"/>
      <point x="1554" y="1565" type="line"/>
      <point x="1554" y="1650" type="line"/>
      <point x="1109" y="1650" type="line"/>
      <point x="1109" y="1565" type="line"/>
    </contour>
  </outline>
</glyph>
<glyph name="V" format="2">
  <advance width="1516"/>
  <unicode hex="0056"/>
  <guideline x="792" y="2085" angle="270"/>
  <anchor x="792" y="-110" name="LL"/>
  <anchor x="792" y="1745" name="LU"/>
  <outline>
    <contour>
      <point x="1227" y="1530" type="line"/>
      <point x="734" y="0" type="line"/>
      <point x="866" y="0" type="line"/>
      <point x="1366" y="1525" type="line"/>
      <point x="1516" y="1565" type="line"/>
      <point x="1516" y="1650" type="line"/>
      <point x="1057" y="1650" type="line"/>
      <point x="1057" y="1565" type="line"/>
    </contour>
    <contour>
      <point x="357" y="1530" type="line"/>
      <point x="527" y="1565" type="line"/>
      <point x="527" y="1650" type="line"/>
      <point x="7" y="1650" type="line"/>
      <point x="7" y="1565" type="line"/>
      <point x="157" y="1525" type="line"/>
      <point x="655" y="0" type="line"/>
      <point x="852" y="0" type="line"/>
    </contour>
  </outline>
</glyph>
<glyph name="W" format="2">
  <advance width="2396"/>
  <unicode hex="0057"/>
  <outline>
    <contour>
      <point x="357" y="1530" type="line"/>
      <point x="527" y="1565" type="line"/>
      <point x="527" y="1650" type="line"/>
      <point x="0" y="1650" type="line"/>
      <point x="0" y="1565" type="line"/>
      <point x="150" y="1525" type="line"/>
      <point x="645" y="0" type="line"/>
      <point x="850" y="0" type="line"/>
    </contour>
    <contour>
      <point x="2118" y="1530" type="line"/>
      <point x="1624" y="0" type="line"/>
      <point x="1750" y="0" type="line"/>
      <point x="2246" y="1530" type="line"/>
      <point x="2396" y="1565" type="line"/>
      <point x="2396" y="1650" type="line"/>
      <point x="1948" y="1650" type="line"/>
      <point x="1948" y="1565" type="line"/>
    </contour>
    <contour>
      <point x="1244" y="1530" type="line"/>
      <point x="1414" y="1565" type="line"/>
      <point x="1414" y="1650" type="line"/>
      <point x="867" y="1650" type="line"/>
      <point x="867" y="1565" type="line"/>
      <point x="1037" y="1525" type="line"/>
      <point x="1535" y="0" type="line"/>
      <point x="1736" y="0" type="line"/>
    </contour>
    <contour>
      <point x="1190" y="1391" type="line"/>
      <point x="734" y="0" type="line"/>
      <point x="863" y="0" type="line"/>
      <point x="1263" y="1231" type="line"/>
    </contour>
  </outline>
</glyph>
<glyph name="X" format="2">
  <advance width="1448"/>
  <unicode hex="0058"/>
  <outline>
    <contour>
      <point x="1051" y="120" type="line"/>
      <point x="901" y="85" type="line"/>
      <point x="901" y="0" type="line"/>
      <point x="1408" y="0" type="line"/>
      <point x="1408" y="85" type="line"/>
      <point x="1258" y="125" type="line"/>
      <point x="394" y="1530" type="line"/>
      <point x="544" y="1565" type="line"/>
      <point x="544" y="1650" type="line"/>
      <point x="40" y="1650" type="line"/>
      <point x="40" y="1565" type="line"/>
      <point x="187" y="1525" type="line"/>
    </contour>
    <contour>
      <point x="777" y="782" type="line"/>
      <point x="1228" y="1525" type="line"/>
      <point x="1408" y="1565" type="line"/>
      <point x="1408" y="1650" type="line"/>
      <point x="944" y="1650" type="line"/>
      <point x="944" y="1565" type="line"/>
      <point x="1094" y="1525" type="line"/>
      <point x="710" y="898" type="line"/>
      <point x="637" y="856" type="line"/>
      <point x="190" y="120" type="line"/>
      <point x="40" y="85" type="line"/>
      <point x="40" y="0" type="line"/>
      <point x="472" y="0" type="line"/>
      <point x="472" y="85" type="line"/>
      <point x="322" y="120" type="line"/>
      <point x="708" y="750" type="line"/>
    </contour>
  </outline>
</glyph>
<glyph name="Y" format="2">
  <advance width="1509"/>
  <unicode hex="0059"/>
  <outline>
    <contour>
      <point x="1231" y="1530" type="line"/>
      <point x="718" y="575" type="line"/>
      <point x="847" y="574" type="line"/>
      <point x="1359" y="1525" type="line"/>
      <point x="1509" y="1565" type="line"/>
      <point x="1509" y="1650" type="line"/>
      <point x="1061" y="1650" type="line"/>
      <point x="1061" y="1565" type="line"/>
    </contour>
    <contour>
      <point x="357" y="1530" type="line"/>
      <point x="527" y="1565" type="line"/>
      <point x="527" y="1650" type="line"/>
      <point x="0" y="1650" type="line"/>
      <point x="0" y="1565" type="line"/>
      <point x="150" y="1525" type="line"/>
      <point x="661" y="575" type="line"/>
      <point x="824" y="575" type="line"/>
      <point x="824" y="662" type="line"/>
    </contour>
    <contour>
      <point x="854" y="120" type="line"/>
      <point x="854" y="684" type="line"/>
      <point x="661" y="684" type="line"/>
      <point x="661" y="120" type="line"/>
      <point x="491" y="85" type="line"/>
      <point x="491" y="0" type="line"/>
      <point x="1024" y="0" type="line"/>
      <point x="1024" y="85" type="line"/>
    </contour>
  </outline>
</glyph>
<glyph name="Z" format="2">
  <advance width="1296"/>
  <unicode hex="005A"/>
  <outline>
    <contour>
      <point x="340" y="116" type="line"/>
      <point x="1175" y="1571" type="line"/>
      <point x="1175" y="1650" type="line"/>
      <point x="114" y="1650" type="line"/>
      <point x="114" y="1334" type="line"/>
      <point x="209" y="1334" type="line"/>
      <point x="244" y="1534" type="line"/>
      <point x="934" y="1534" type="line"/>
      <point x="100" y="79" type="line"/>
      <point x="100" y="0" type="line"/>
      <point x="1196" y="0" type="line"/>
      <point x="1196" y="318" type="line"/>
      <point x="1101" y="318" type="line"/>
      <point x="1066" y="116" type="line"/>
    </contour>
  </outline>
</glyph>
<glyph name="bracketleft" format="2">
  <advance width="655"/>
  <unicode hex="005B"/>
  <outline>
    <contour>
      <point x="148" y="-392" type="line"/>
      <point x="630" y="-392" type="line"/>
      <point x="630" y="-295" type="line"/>
      <point x="336" y="-295" type="line"/>
      <point x="336" y="2034" type="line"/>
      <point x="630" y="2034" type="line"/>
      <point x="630" y="2130" type="line"/>
      <point x="148" y="2130" type="line"/>
    </contour>
  </outline>
</glyph>
<glyph name="backslash" format="2">
  <advance width="1062"/>
  <unicode hex="005C"/>
  <outline>
    <contour>
      <point x="1012" y="-30" type="line"/>
      <point x="238" y="1670" type="line"/>
      <point x="50" y="1670" type="line"/>
      <point x="823" y="-30" type="line"/>
    </contour>
  </outline>
</glyph>
<glyph name="bracketright" format="2">
  <advance width="777"/>
  <unicode hex="005D"/>
  <outline>
    <contour>
      <point x="507" y="-248" type="line"/>
      <point x="507" y="2008" type="line"/>
      <point x="25" y="2008" type="line"/>
      <point x="25" y="1912" type="line"/>
      <point x="319" y="1912" type="line"/>
      <point x="319" y="-151" type="line"/>
      <point x="25" y="-151" type="line"/>
      <point x="25" y="-248" type="line"/>
    </contour>
  </outline>
</glyph>
<glyph name="asciicircum" format="2">
  <advance width="1048"/>
  <unicode hex="005E"/>
  <outline>
    <contour>
      <point x="154" y="982" type="line"/>
      <point x="520" y="1600" type="line"/>
      <point x="890" y="982" type="line"/>
      <point x="1021" y="982" type="line"/>
      <point x="557" y="1761" type="line"/>
      <point x="491" y="1761" type="line"/>
      <point x="27" y="982" type="line"/>
    </contour>
  </outline>
</glyph>
<glyph name="underscore" format="2">
  <advance width="1225"/>
  <unicode hex="005F"/>
  <outline>
    <contour>
      <point x="0" y="-30" type="line"/>
      <point x="0" y="-168" type="line"/>
      <point x="1225" y="-168" type="line"/>
      <point x="1225" y="-30" type="line"/>
    </contour>
  </outline>
</glyph>
<glyph name="a" format="2">
  <advance width="1293"/>
  <unicode hex="0061"/>
  <guideline x="355" y="326" angle="270.3734"/>
  <anchor x="590" y="-110" name="LL"/>
  <anchor x="607" y="1350" name="LU"/>
  <anchor x="520" y="0" name="PB"/>
  <anchor x="530" y="0" name="def"/>
  <outline>
    <contour>
      <point x="457" y="-20" type="curve" smooth="yes"/>
      <point x="725" y="-20"/>
      <point x="906" y="148"/>
      <point x="936" y="226" type="curve"/>
      <point x="892" y="298" type="line"/>
      <point x="810" y="198"/>
      <point x="675" y="97"/>
      <point x="520" y="97" type="curve" smooth="yes"/>
      <point x="406" y="97"/>
      <point x="318" y="197"/>
      <point x="318" y="316" type="curve" smooth="yes"/>
      <point x="318" y="555"/>
      <point x="572" y="597"/>
      <point x="917" y="597" type="curve"/>
      <point x="917" y="703" type="line"/>
      <point x="470" y="703"/>
      <point x="120" y="648"/>
      <point x="120" y="305" type="curve" smooth="yes"/>
      <point x="120" y="86"/>
      <point x="288" y="-20"/>
    </contour>
    <contour>
      <point x="862" y="0" type="line"/>
      <point x="1200" y="0" type="line"/>
      <point x="1200" y="86" type="line"/>
      <point x="1050" y="121" type="line"/>
      <point x="1050" y="960" type="line" smooth="yes"/>
      <point x="1050" y="1171"/>
      <point x="875" y="1260"/>
      <point x="579" y="1260" type="curve" smooth="yes"/>
      <point x="295" y="1260"/>
      <point x="141" y="1134"/>
      <point x="141" y="995" type="curve" smooth="yes"/>
      <point x="141" y="905"/>
      <point x="208" y="832"/>
      <point x="290" y="832" type="curve" smooth="yes"/>
      <point x="366" y="832"/>
      <point x="426" y="883"/>
      <point x="426" y="964" type="curve" smooth="yes"/>
      <point x="426" y="1033"/>
      <point x="325" y="1111"/>
      <point x="237" y="1045" type="curve"/>
      <point x="275" y="1038" type="line"/>
      <point x="318" y="1105"/>
      <point x="393" y="1150"/>
      <point x="555" y="1150" type="curve" smooth="yes"/>
      <point x="772" y="1150"/>
      <point x="862" y="1081"/>
      <point x="862" y="971" type="curve" smooth="yes"/>
    </contour>
  </outline>
</glyph>
<glyph name="c" format="2">
  <advance width="1155"/>
  <unicode hex="0063"/>
  <anchor x="642" y="30" name="LH"/>
  <anchor x="626" y="-110" name="LL"/>
  <anchor x="626" y="1350" name="LU"/>
  <anchor x="520" y="0" name="PB"/>
  <anchor x="560" y="0" name="def"/>
  <outline>
    <contour>
      <point x="643" y="-20" type="curve" smooth="yes"/>
      <point x="887" y="-20"/>
      <point x="1020" y="129"/>
      <point x="1040" y="325" type="curve"/>
      <point x="930" y="325" type="line"/>
      <point x="910" y="202"/>
      <point x="847" y="90"/>
      <point x="645" y="90" type="curve" smooth="yes"/>
      <point x="437" y="90"/>
      <point x="323" y="276"/>
      <point x="323" y="627" type="curve" smooth="yes"/>
      <point x="323" y="1035"/>
      <point x="437" y="1140"/>
      <point x="668" y="1140" type="curve" smooth="yes"/>
      <point x="805" y="1140"/>
      <point x="874" y="1112"/>
      <point x="893" y="1047" type="curve"/>
      <point x="937" y="1060" type="line"/>
      <point x="914" y="1075"/>
      <point x="889" y="1082"/>
      <point x="866" y="1082" type="curve" smooth="yes"/>
      <point x="803" y="1082"/>
      <point x="749" y="1031"/>
      <point x="749" y="972" type="curve" smooth="yes"/>
      <point x="749" y="897"/>
      <point x="801" y="844"/>
      <point x="885" y="844" type="curve" smooth="yes"/>
      <point x="979" y="844"/>
      <point x="1030" y="915"/>
      <point x="1030" y="1013" type="curve" smooth="yes"/>
      <point x="1030" y="1150"/>
      <point x="904" y="1255"/>
      <point x="641" y="1255" type="curve" smooth="yes"/>
      <point x="378" y="1255"/>
      <point x="125" y="1129"/>
      <point x="125" y="603" type="curve" smooth="yes"/>
      <point x="125" y="128"/>
      <point x="363" y="-20"/>
    </contour>
  </outline>
</glyph>
<glyph name="d" format="2">
  <advance width="1078"/>
  <unicode hex="0064"/>
  <anchor x="520" y="0" name="PB"/>
  <anchor x="560" y="200" name="def"/>
  <outline>
    <contour>
      <point x="734" y="-23" type="line"/>
      <point x="786" y="-23" type="line"/>
      <point x="1081" y="112" type="line"/>
      <point x="1067" y="142" type="line"/>
      <point x="1044" y="127"/>
      <point x="1018" y="123"/>
      <point x="1000" y="123" type="curve" smooth="yes"/>
      <point x="928" y="123"/>
      <point x="909" y="161"/>
      <point x="909" y="289" type="curve" smooth="yes"/>
      <point x="909" y="1471" type="line"/>
      <point x="857" y="1471" type="line"/>
      <point x="569" y="1343" type="line"/>
      <point x="584" y="1302" type="line"/>
      <point x="622" y="1314"/>
      <point x="647" y="1321"/>
      <point x="670" y="1321" type="curve" smooth="yes"/>
      <point x="734" y="1321"/>
      <point x="734" y="1273"/>
      <point x="734" y="1164" type="curve" smooth="yes"/>
      <point x="734" y="902" type="line"/>
      <point x="682" y="954"/>
      <point x="618" y="992"/>
      <point x="532" y="992" type="curve" smooth="yes"/>
      <point x="277" y="992"/>
      <point x="67" y="738"/>
      <point x="67" y="472" type="curve" smooth="yes"/>
      <point x="67" y="206"/>
      <point x="235" y="-23"/>
      <point x="441" y="-23" type="curve" smooth="yes"/>
      <point x="543" y="-23"/>
      <point x="651" y="23"/>
      <point x="734" y="94" type="curve"/>
    </contour>
    <contour>
      <point x="734" y="183" type="line"/>
      <point x="688" y="131"/>
      <point x="614" y="86"/>
      <point x="543" y="86" type="curve" smooth="yes"/>
      <point x="385" y="86"/>
      <point x="262" y="285"/>
      <point x="262" y="528" type="curve" smooth="yes"/>
      <point x="262" y="759"/>
      <point x="374" y="921"/>
      <point x="513" y="921" type="curve" smooth="yes"/>
      <point x="622" y="921"/>
      <point x="734" y="816"/>
      <point x="734" y="663" type="curve" smooth="yes"/>
    </contour>
  </outline>
</glyph>
<glyph name="e" format="2">
  <advance width="1201"/>
  <unicode hex="0065"/>
  <anchor x="520" y="0" name="PB"/>
  <anchor x="560" y="0" name="def"/>
  <outline>
    <contour>
      <point x="649" y="-20" type="curve" smooth="yes"/>
      <point x="863" y="-20"/>
      <point x="1057" y="139"/>
      <point x="1057" y="335" type="curve"/>
      <point x="937" y="335" type="line"/>
      <point x="937" y="212"/>
      <point x="817" y="100"/>
      <point x="651" y="100" type="curve" smooth="yes"/>
      <point x="424" y="100"/>
      <point x="323" y="269"/>
      <point x="323" y="575" type="curve" smooth="yes"/>
      <point x="323" y="783" type="line" smooth="yes"/>
      <point x="323" y="1024"/>
      <point x="421" y="1145"/>
      <point x="602" y="1145" type="curve" smooth="yes"/>
      <point x="770" y="1145"/>
      <point x="885" y="1078"/>
      <point x="885" y="798" type="curve" smooth="yes"/>
      <point x="885" y="635" type="line"/>
      <point x="1083" y="635" type="line"/>
      <point x="1083" y="783" type="line" smooth="yes"/>
      <point x="1083" y="1119"/>
      <point x="862" y="1255"/>
      <point x="607" y="1255" type="curve" smooth="yes"/>
      <point x="300" y="1255"/>
      <point x="125" y="1094"/>
      <point x="125" y="620" type="curve" smooth="yes"/>
      <point x="125" y="121"/>
      <point x="324" y="-20"/>
    </contour>
    <contour>
      <point x="268" y="746" type="line"/>
      <point x="268" y="635" type="line"/>
      <point x="1031" y="635" type="line"/>
      <point x="1031" y="746" type="line"/>
    </contour>
  </outline>
</glyph>
<glyph name="g" format="2">
  <advance width="1314"/>
  <unicode hex="0067"/>
  <anchor x="520" y="-200" name="PB"/>
  <anchor x="560" y="0" name="def"/>
  <outline>
    <contour>
      <point x="667" y="-603" type="curve" smooth="yes"/>
      <point x="1000" y="-603"/>
      <point x="1225" y="-453"/>
      <point x="1225" y="-178" type="curve" smooth="yes"/>
      <point x="1225" y="41"/>
      <point x="1083" y="152"/>
      <point x="736" y="152" type="curve" smooth="yes"/>
      <point x="555" y="152"/>
      <point x="396" y="152"/>
      <point x="396" y="301" type="curve" smooth="yes"/>
      <point x="396" y="340"/>
      <point x="426" y="395"/>
      <point x="484" y="425" type="curve"/>
      <point x="401" y="480" type="line"/>
      <point x="340" y="456"/>
      <point x="209" y="390"/>
      <point x="209" y="235" type="curve" smooth="yes"/>
      <point x="209" y="44"/>
      <point x="450" y="44"/>
      <point x="696" y="44" type="curve" smooth="yes"/>
      <point x="927" y="44"/>
      <point x="1026" y="9"/>
      <point x="1026" y="-191" type="curve" smooth="yes"/>
      <point x="1026" y="-408"/>
      <point x="891" y="-493"/>
      <point x="691" y="-493" type="curve" smooth="yes"/>
      <point x="509" y="-493"/>
      <point x="324" y="-403"/>
      <point x="324" y="-238" type="curve" smooth="yes"/>
      <point x="324" y="-86"/>
      <point x="396" y="-8"/>
      <point x="519" y="59" type="curve"/>
      <point x="484" y="80"/>
      <point x="460" y="93"/>
      <point x="425" y="102" type="curve"/>
      <point x="252" y="45"/>
      <point x="125" y="-64"/>
      <point x="125" y="-245" type="curve" smooth="yes"/>
      <point x="125" y="-475"/>
      <point x="334" y="-603"/>
    </contour>
    <contour>
      <point x="620" y="398" type="curve" smooth="yes"/>
      <point x="901" y="398"/>
      <point x="1085" y="504"/>
      <point x="1095" y="827" type="curve" smooth="yes"/>
      <point x="1105" y="1160"/>
      <point x="901" y="1255"/>
      <point x="620" y="1255" type="curve" smooth="yes"/>
      <point x="339" y="1255"/>
      <point x="145" y="1150"/>
      <point x="145" y="827" type="curve" smooth="yes"/>
      <point x="145" y="504"/>
      <point x="339" y="398"/>
    </contour>
    <contour>
      <point x="620" y="508" type="curve" smooth="yes"/>
      <point x="472" y="508"/>
      <point x="343" y="597"/>
      <point x="343" y="827" type="curve" smooth="yes"/>
      <point x="343" y="1057"/>
      <point x="472" y="1145"/>
      <point x="620" y="1145" type="curve" smooth="yes"/>
      <point x="768" y="1145"/>
      <point x="897" y="1057"/>
      <point x="897" y="827" type="curve" smooth="yes"/>
      <point x="897" y="597"/>
      <point x="768" y="508"/>
    </contour>
    <contour>
      <point x="1239" y="1112" type="curve" smooth="yes"/>
      <point x="1309" y="1112"/>
      <point x="1360" y="1153"/>
      <point x="1360" y="1257" type="curve" smooth="yes"/>
      <point x="1360" y="1325"/>
      <point x="1303" y="1385"/>
      <point x="1205" y="1385" type="curve" smooth="yes"/>
      <point x="1093" y="1385"/>
      <point x="959" y="1314"/>
      <point x="846" y="1169" type="curve"/>
      <point x="919" y="1116" type="line"/>
      <point x="975" y="1194"/>
      <point x="1095" y="1247"/>
      <point x="1129" y="1254" type="curve"/>
      <point x="1119" y="1188"/>
      <point x="1172" y="1112"/>
    </contour>
  </outline>
</glyph>
<glyph name="h" format="2">
  <advance width="1399"/>
  <unicode hex="0068"/>
  <anchor x="692" y="-110" name="LL"/>
  <anchor x="692" y="1880" name="LU"/>
  <anchor x="520" y="0" name="PB"/>
  <anchor x="580" y="200" name="def"/>
  <outline>
    <contour>
      <point x="408" y="120" type="line"/>
      <point x="408" y="1793" type="line"/>
      <point x="70" y="1793" type="line"/>
      <point x="70" y="1708" type="line"/>
      <point x="220" y="1673" type="line"/>
      <point x="220" y="120" type="line"/>
      <point x="70" y="85" type="line"/>
      <point x="70" y="0" type="line"/>
      <point x="558" y="0" type="line"/>
      <point x="558" y="85" type="line"/>
    </contour>
    <contour>
      <point x="818" y="0" type="line"/>
      <point x="1306" y="0" type="line"/>
      <point x="1306" y="85" type="line"/>
      <point x="1156" y="120" type="line"/>
      <point x="1156" y="968" type="line" smooth="yes"/>
      <point x="1156" y="1142"/>
      <point x="1026" y="1255"/>
      <point x="830" y="1255" type="curve" smooth="yes"/>
      <point x="649" y="1255"/>
      <point x="483" y="1179"/>
      <point x="359" y="1091" type="curve"/>
      <point x="389" y="1004" type="line"/>
      <point x="538" y="1100"/>
      <point x="673" y="1136"/>
      <point x="780" y="1136" type="curve" smooth="yes"/>
      <point x="881" y="1136"/>
      <point x="968" y="1071"/>
      <point x="968" y="956" type="curve" smooth="yes"/>
      <point x="968" y="120" type="line"/>
      <point x="818" y="85" type="line"/>
    </contour>
  </outline>
</glyph>
<glyph name="i" format="2">
  <advance width="588"/>
  <unicode hex="0069"/>
  <outline>
    <contour>
      <point x="303" y="1471" type="curve" smooth="yes"/>
      <point x="251" y="1471"/>
      <point x="202" y="1426"/>
      <point x="202" y="1374" type="curve" smooth="yes"/>
      <point x="202" y="1321"/>
      <point x="251" y="1276"/>
      <point x="303" y="1276" type="curve" smooth="yes"/>
      <point x="360" y="1276"/>
      <point x="404" y="1321"/>
      <point x="404" y="1374" type="curve" smooth="yes"/>
      <point x="404" y="1426"/>
      <point x="360" y="1471"/>
    </contour>
    <contour>
      <point x="217" y="225" type="line" smooth="yes"/>
      <point x="217" y="90"/>
      <point x="195" y="37"/>
      <point x="67" y="37" type="curve"/>
      <point x="67" y="0" type="line"/>
      <point x="547" y="0" type="line"/>
      <point x="547" y="37" type="line"/>
      <point x="420" y="37"/>
      <point x="393" y="90"/>
      <point x="393" y="225" type="curve" smooth="yes"/>
      <point x="393" y="992" type="line"/>
      <point x="341" y="992" type="line"/>
      <point x="52" y="861" type="line"/>
      <point x="67" y="823" type="line"/>
      <point x="104" y="834"/>
      <point x="135" y="842"/>
      <point x="154" y="842" type="curve" smooth="yes"/>
      <point x="217" y="842"/>
      <point x="217" y="794"/>
      <point x="217" y="682" type="curve" smooth="yes"/>
    </contour>
  </outline>
</glyph>
<glyph name="j" format="2">
  <advance width="638"/>
  <unicode hex="006A"/>
  <anchor x="400" y="-200" name="PB"/>
  <anchor x="440" y="200" name="def"/>
  <outline>
    <contour>
      <point x="345" y="1480" type="curve" smooth="yes"/>
      <point x="422" y="1480"/>
      <point x="483" y="1541"/>
      <point x="483" y="1618" type="curve" smooth="yes"/>
      <point x="483" y="1695"/>
      <point x="422" y="1755"/>
      <point x="345" y="1755" type="curve" smooth="yes"/>
      <point x="268" y="1755"/>
      <point x="207" y="1695"/>
      <point x="207" y="1618" type="curve" smooth="yes"/>
      <point x="207" y="1541"/>
      <point x="268" y="1480"/>
    </contour>
    <contour>
      <point x="63" y="-500" type="curve" smooth="yes"/>
      <point x="-1" y="-500"/>
      <point x="-57" y="-469"/>
      <point x="-76" y="-432" type="curve"/>
      <point x="-29" y="-414"/>
      <point x="10" y="-368"/>
      <point x="10" y="-322" type="curve" smooth="yes"/>
      <point x="10" y="-254"/>
      <point x="-54" y="-205"/>
      <point x="-122" y="-205" type="curve" smooth="yes"/>
      <point x="-187" y="-205"/>
      <point x="-253" y="-266"/>
      <point x="-253" y="-352" type="curve" smooth="yes"/>
      <point x="-253" y="-481"/>
      <point x="-142" y="-610"/>
      <point x="63" y="-610" type="curve" smooth="yes"/>
      <point x="280" y="-610"/>
      <point x="439" y="-516"/>
      <point x="439" y="-175" type="curve" smooth="yes"/>
      <point x="439" y="1240" type="line"/>
      <point x="81" y="1240" type="line"/>
      <point x="81" y="1155" type="line"/>
      <point x="251" y="1120" type="line"/>
      <point x="251" y="-226" type="line" smooth="yes"/>
      <point x="251" y="-441"/>
      <point x="180" y="-500"/>
    </contour>
  </outline>
</glyph>
<glyph name="k" format="2">
  <advance width="1298"/>
  <unicode hex="006B"/>
  <anchor x="520" y="0" name="PB"/>
  <anchor x="600" y="200" name="def"/>
  <outline>
    <contour>
      <point x="408" y="120" type="line"/>
      <point x="408" y="1793" type="line"/>
      <point x="70" y="1793" type="line"/>
      <point x="70" y="1708" type="line"/>
      <point x="220" y="1678" type="line"/>
      <point x="220" y="120" type="line"/>
      <point x="70" y="85" type="line"/>
      <point x="70" y="0" type="line"/>
      <point x="568" y="0" type="line"/>
      <point x="568" y="85" type="line"/>
    </contour>
    <contour>
      <point x="947" y="125" type="line"/>
      <point x="791" y="90" type="line"/>
      <point x="791" y="5" type="line"/>
      <point x="1339" y="5" type="line"/>
      <point x="1339" y="90" type="line"/>
      <point x="1162" y="135" type="line"/>
      <point x="690" y="759" type="line"/>
      <point x="570" y="630" type="line"/>
    </contour>
    <contour>
      <point x="1065" y="1115" type="line"/>
      <point x="1224" y="1155" type="line"/>
      <point x="1224" y="1240" type="line"/>
      <point x="750" y="1240" type="line"/>
      <point x="750" y="1155" type="line"/>
      <point x="915" y="1120" type="line"/>
      <point x="356" y="497" type="line"/>
      <point x="356" y="350" type="line"/>
    </contour>
  </outline>
</glyph>
<glyph name="l" format="2">
  <advance width="584"/>
  <unicode hex="006C"/>
  <anchor x="520" y="0" name="PB"/>
  <anchor x="440" y="200" name="def"/>
  <outline>
    <contour>
      <point x="382" y="1471" type="line"/>
      <point x="333" y="1471" type="line"/>
      <point x="41" y="1343" type="line"/>
      <point x="56" y="1302" type="line"/>
      <point x="94" y="1314"/>
      <point x="123" y="1321"/>
      <point x="142" y="1321" type="curve" smooth="yes"/>
      <point x="206" y="1321"/>
      <point x="206" y="1273"/>
      <point x="206" y="1164" type="curve" smooth="yes"/>
      <point x="206" y="225" type="line" smooth="yes"/>
      <point x="206" y="90"/>
      <point x="183" y="37"/>
      <point x="56" y="37" type="curve"/>
      <point x="56" y="0" type="line"/>
      <point x="535" y="0" type="line"/>
      <point x="535" y="37" type="line"/>
      <point x="408" y="37"/>
      <point x="382" y="90"/>
      <point x="382" y="225" type="curve" smooth="yes"/>
    </contour>
  </outline>
</glyph>
<glyph name="m" format="2">
  <advance width="2091"/>
  <unicode hex="006D"/>
  <anchor x="1055" y="-110" name="LL"/>
  <anchor x="1055" y="1350" name="LU"/>
  <anchor x="520" y="0" name="PB"/>
  <anchor x="760" y="0" name="def"/>
  <outline>
    <contour>
      <point x="450" y="120" type="line"/>
      <point x="450" y="1240" type="line"/>
      <point x="112" y="1240" type="line"/>
      <point x="112" y="1155" type="line"/>
      <point x="262" y="1120" type="line"/>
      <point x="262" y="120" type="line"/>
      <point x="112" y="85" type="line"/>
      <point x="112" y="0" type="line"/>
      <point x="600" y="0" type="line"/>
      <point x="600" y="85" type="line"/>
    </contour>
    <contour>
      <point x="811" y="0" type="line"/>
      <point x="1299" y="0" type="line"/>
      <point x="1299" y="85" type="line"/>
      <point x="1149" y="120" type="line"/>
      <point x="1149" y="968" type="line" smooth="yes"/>
      <point x="1149" y="1142"/>
      <point x="1029" y="1255"/>
      <point x="833" y="1255" type="curve" smooth="yes"/>
      <point x="652" y="1255"/>
      <point x="504" y="1179"/>
      <point x="380" y="1091" type="curve"/>
      <point x="410" y="1004" type="line"/>
      <point x="559" y="1100"/>
      <point x="676" y="1136"/>
      <point x="783" y="1136" type="curve" smooth="yes"/>
      <point x="884" y="1136"/>
      <point x="961" y="1071"/>
      <point x="961" y="956" type="curve" smooth="yes"/>
      <point x="961" y="120" type="line"/>
      <point x="811" y="85" type="line"/>
    </contour>
    <contour>
      <point x="1510" y="0" type="line"/>
      <point x="1998" y="0" type="line"/>
      <point x="1998" y="85" type="line"/>
      <point x="1848" y="120" type="line"/>
      <point x="1848" y="968" type="line" smooth="yes"/>
      <point x="1848" y="1142"/>
      <point x="1728" y="1255"/>
      <point x="1532" y="1255" type="curve" smooth="yes"/>
      <point x="1351" y="1255"/>
      <point x="1203" y="1179"/>
      <point x="1079" y="1091" type="curve"/>
      <point x="1109" y="1004" type="line"/>
      <point x="1258" y="1100"/>
      <point x="1375" y="1136"/>
      <point x="1482" y="1136" type="curve" smooth="yes"/>
      <point x="1583" y="1136"/>
      <point x="1660" y="1071"/>
      <point x="1660" y="956" type="curve" smooth="yes"/>
      <point x="1660" y="120" type="line"/>
      <point x="1510" y="85" type="line"/>
    </contour>
  </outline>
</glyph>
<glyph name="n" format="2">
  <advance width="1441"/>
  <unicode hex="006E"/>
  <anchor x="730" y="-110" name="LL"/>
  <anchor x="730" y="1350" name="LU"/>
  <anchor x="520" y="0" name="PB"/>
  <anchor x="580" y="0" name="def"/>
  <outline>
    <contour>
      <point x="450" y="120" type="line"/>
      <point x="450" y="1240" type="line"/>
      <point x="112" y="1240" type="line"/>
      <point x="112" y="1155" type="line"/>
      <point x="262" y="1120" type="line"/>
      <point x="262" y="120" type="line"/>
      <point x="112" y="85" type="line"/>
      <point x="112" y="0" type="line"/>
      <point x="600" y="0" type="line"/>
      <point x="600" y="85" type="line"/>
    </contour>
    <contour>
      <point x="860" y="0" type="line"/>
      <point x="1348" y="0" type="line"/>
      <point x="1348" y="85" type="line"/>
      <point x="1198" y="120" type="line"/>
      <point x="1198" y="968" type="line" smooth="yes"/>
      <point x="1198" y="1142"/>
      <point x="1068" y="1255"/>
      <point x="872" y="1255" type="curve" smooth="yes"/>
      <point x="691" y="1255"/>
      <point x="528" y="1173"/>
      <point x="404" y="1085" type="curve"/>
      <point x="431" y="1004" type="line"/>
      <point x="580" y="1100"/>
      <point x="715" y="1136"/>
      <point x="822" y="1136" type="curve" smooth="yes"/>
      <point x="923" y="1136"/>
      <point x="1010" y="1071"/>
      <point x="1010" y="956" type="curve" smooth="yes"/>
      <point x="1010" y="120" type="line"/>
      <point x="860" y="85" type="line"/>
    </contour>
  </outline>
</glyph>
<glyph name="o" format="2">
  <advance width="1246"/>
  <unicode hex="006F"/>
  <anchor x="897" y="1010" name="LH"/>
  <anchor x="620" y="-110" name="LL"/>
  <anchor x="620" y="1350" name="LU"/>
  <anchor x="519" y="0" name="PB"/>
  <anchor x="579" y="0" name="def"/>
  <outline>
    <contour>
      <point x="623" y="-20" type="curve" smooth="yes"/>
      <point x="907" y="-20"/>
      <point x="1121" y="103"/>
      <point x="1121" y="618" type="curve" smooth="yes"/>
      <point x="1121" y="1133"/>
      <point x="907" y="1256"/>
      <point x="623" y="1256" type="curve" smooth="yes"/>
      <point x="339" y="1256"/>
      <point x="125" y="1133"/>
      <point x="125" y="618" type="curve" smooth="yes"/>
      <point x="125" y="103"/>
      <point x="339" y="-20"/>
    </contour>
    <contour>
      <point x="622" y="90" type="curve" smooth="yes"/>
      <point x="406" y="90"/>
      <point x="322" y="198"/>
      <point x="322" y="618" type="curve" smooth="yes"/>
      <point x="322" y="1038"/>
      <point x="406" y="1146"/>
      <point x="622" y="1146" type="curve" smooth="yes"/>
      <point x="838" y="1146"/>
      <point x="922" y="1038"/>
      <point x="922" y="618" type="curve" smooth="yes"/>
      <point x="922" y="198"/>
      <point x="838" y="90"/>
    </contour>
  </outline>
</glyph>
<glyph name="p" format="2">
  <advance width="1302"/>
  <unicode hex="0070"/>
  <anchor x="520" y="-200" name="PB"/>
  <anchor x="580" y="0" name="def"/>
  <outline>
    <contour>
      <point x="408" y="-480" type="line"/>
      <point x="408" y="1239" type="line"/>
      <point x="70" y="1239" type="line"/>
      <point x="70" y="1154" type="line"/>
      <point x="220" y="1119" type="line"/>
      <point x="220" y="-480" type="line"/>
      <point x="70" y="-515" type="line"/>
      <point x="70" y="-600" type="line"/>
      <point x="578" y="-600" type="line"/>
      <point x="578" y="-515" type="line"/>
    </contour>
    <contour>
      <point x="1177" y="636" type="curve" smooth="yes"/>
      <point x="1177" y="1179"/>
      <point x="1024" y="1255"/>
      <point x="804" y="1255" type="curve" smooth="yes"/>
      <point x="611" y="1255"/>
      <point x="448" y="1170"/>
      <point x="341" y="1091" type="curve"/>
      <point x="371" y="1004" type="line"/>
      <point x="520" y="1100"/>
      <point x="632" y="1136"/>
      <point x="758" y="1136" type="curve" smooth="yes"/>
      <point x="899" y="1136"/>
      <point x="979" y="1075"/>
      <point x="979" y="636" type="curve" smooth="yes"/>
      <point x="979" y="271"/>
      <point x="890" y="101"/>
      <point x="699" y="101" type="curve" smooth="yes"/>
      <point x="588" y="101"/>
      <point x="424" y="170"/>
      <point x="375" y="259" type="curve"/>
      <point x="320" y="168" type="line"/>
      <point x="407" y="52"/>
      <point x="595" y="-20"/>
      <point x="728" y="-20" type="curve" smooth="yes"/>
      <point x="1005" y="-20"/>
      <point x="1177" y="146"/>
    </contour>
  </outline>
</glyph>
<glyph name="q" format="2">
  <advance width="1302"/>
  <unicode hex="0071"/>
  <anchor x="618" y="-690" name="LL"/>
  <anchor x="618" y="1350" name="LU"/>
  <anchor x="520" y="-200" name="PB"/>
  <anchor x="560" y="0" name="def"/>
  <outline>
    <contour>
      <point x="894" y="1138" type="line"/>
      <point x="894" y="-480" type="line"/>
      <point x="724" y="-515" type="line"/>
      <point x="724" y="-600" type="line"/>
      <point x="1232" y="-600" type="line"/>
      <point x="1232" y="-515" type="line"/>
      <point x="1082" y="-480" type="line"/>
      <point x="1082" y="1051" type="line"/>
    </contour>
    <contour>
      <point x="323" y="606" type="curve" smooth="yes"/>
      <point x="323" y="967"/>
      <point x="415" y="1150"/>
      <point x="606" y="1150" type="curve" smooth="yes"/>
      <point x="757" y="1150"/>
      <point x="894" y="1063"/>
      <point x="894" y="1004" type="curve"/>
      <point x="1082" y="1051" type="line"/>
      <point x="1082" y="1138"/>
      <point x="820" y="1255"/>
      <point x="607" y="1255" type="curve" smooth="yes"/>
      <point x="300" y="1255"/>
      <point x="125" y="1086"/>
      <point x="125" y="600" type="curve" smooth="yes"/>
      <point x="125" y="57"/>
      <point x="305" y="-20"/>
      <point x="495" y="-20" type="curve" smooth="yes"/>
      <point x="738" y="-20"/>
      <point x="934" y="148"/>
      <point x="964" y="226" type="curve"/>
      <point x="920" y="298" type="line"/>
      <point x="838" y="198"/>
      <point x="689" y="97"/>
      <point x="553" y="97" type="curve" smooth="yes"/>
      <point x="412" y="97"/>
      <point x="323" y="167"/>
    </contour>
  </outline>
</glyph>
<glyph name="t" format="2">
  <advance width="814"/>
  <unicode hex="0074"/>
  <anchor x="520" y="0" name="PB"/>
  <anchor x="440" y="160" name="def"/>
  <outline>
    <contour>
      <point x="562" y="-20" type="curve" smooth="yes"/>
      <point x="634" y="-20"/>
      <point x="697" y="5"/>
      <point x="744" y="47" type="curve"/>
      <point x="683" y="126" type="line"/>
      <point x="661" y="104"/>
      <point x="630" y="90"/>
      <point x="589" y="90" type="curve" smooth="yes"/>
      <point x="482" y="90"/>
      <point x="435" y="154"/>
      <point x="435" y="236" type="curve" smooth="yes"/>
      <point x="435" y="1460" type="line"/>
      <point x="247" y="1460" type="line"/>
      <point x="247" y="232" type="line" smooth="yes"/>
      <point x="247" y="81"/>
      <point x="355" y="-20"/>
    </contour>
    <contour>
      <point x="110" y="1120" type="line"/>
      <point x="667" y="1120" type="line"/>
      <point x="667" y="1240" type="line"/>
      <point x="110" y="1240" type="line"/>
    </contour>
  </outline>
</glyph>
<glyph name="u" format="2">
  <advance width="1422"/>
  <unicode hex="0075"/>
  <anchor x="701" y="-110" name="LL"/>
  <anchor x="701" y="1350" name="LU"/>
  <anchor x="520" y="0" name="PB"/>
  <anchor x="580" y="0" name="def"/>
  <outline>
    <contour>
      <point x="1179" y="120" type="line"/>
      <point x="1179" y="1240" type="line"/>
      <point x="821" y="1240" type="line"/>
      <point x="821" y="1155" type="line"/>
      <point x="991" y="1120" type="line"/>
      <point x="991" y="0" type="line"/>
      <point x="1329" y="0" type="line"/>
      <point x="1329" y="85" type="line"/>
    </contour>
    <contour>
      <point x="625" y="97" type="curve" smooth="yes"/>
      <point x="511" y="97"/>
      <point x="431" y="164"/>
      <point x="431" y="279" type="curve" smooth="yes"/>
      <point x="431" y="1240" type="line"/>
      <point x="93" y="1240" type="line"/>
      <point x="93" y="1155" type="line"/>
      <point x="243" y="1120" type="line"/>
      <point x="243" y="267" type="line" smooth="yes"/>
      <point x="243" y="93"/>
      <point x="383" y="-20"/>
      <point x="574" y="-20" type="curve" smooth="yes"/>
      <point x="849" y="-20"/>
      <point x="1023" y="148"/>
      <point x="1053" y="226" type="curve"/>
      <point x="1009" y="298" type="line"/>
      <point x="927" y="198"/>
      <point x="787" y="97"/>
    </contour>
  </outline>
</glyph>
<glyph name="v" format="2">
  <advance width="1202"/>
  <unicode hex="0076"/>
  <anchor x="631" y="-110" name="LL"/>
  <anchor x="631" y="1350" name="LU"/>
  <anchor x="520" y="0" name="PB"/>
  <anchor x="502" y="0" name="def"/>
  <outline>
    <contour>
      <point x="98" y="1190" type="line"/>
      <point x="504" y="0" type="line"/>
      <point x="698" y="0" type="line"/>
      <point x="1103" y="1190" type="line"/>
      <point x="995" y="1086" type="line"/>
      <point x="1228" y="1155" type="line"/>
      <point x="1228" y="1240" type="line"/>
      <point x="790" y="1240" type="line"/>
      <point x="790" y="1155" type="line"/>
      <point x="1041" y="1103" type="line"/>
      <point x="985" y="1200" type="line"/>
      <point x="643" y="177" type="line"/>
      <point x="631" y="177" type="line"/>
      <point x="288" y="1200" type="line"/>
      <point x="232" y="1103" type="line"/>
      <point x="483" y="1155" type="line"/>
      <point x="483" y="1240" type="line"/>
      <point x="-27" y="1240" type="line"/>
      <point x="-27" y="1155" type="line"/>
      <point x="206" y="1086" type="line"/>
    </contour>
  </outline>
</glyph>
<glyph name="w" format="2">
  <advance width="1820"/>
  <unicode hex="0077"/>
  <anchor x="915" y="-110" name="LL"/>
  <anchor x="915" y="1350" name="LU"/>
  <anchor x="520" y="0" name="PB"/>
  <anchor x="502" y="0" name="def"/>
  <outline>
    <contour>
      <point x="674" y="0" type="line"/>
      <point x="970" y="866" type="line"/>
      <point x="899" y="1022" type="line"/>
      <point x="592" y="71" type="line"/>
      <point x="703" y="152" type="line"/>
      <point x="510" y="152" type="line"/>
      <point x="622" y="71" type="line"/>
      <point x="293" y="1201" type="line"/>
      <point x="235" y="1111" type="line"/>
      <point x="467" y="1165" type="line"/>
      <point x="467" y="1240" type="line"/>
      <point x="-29" y="1240" type="line"/>
      <point x="-29" y="1165" type="line"/>
      <point x="203" y="1096" type="line"/>
      <point x="97" y="1191" type="line"/>
      <point x="467" y="0" type="line"/>
    </contour>
    <contour>
      <point x="1366" y="152" type="line"/>
      <point x="1174" y="152" type="line"/>
      <point x="1284" y="70" type="line"/>
      <point x="978" y="1202" type="line"/>
      <point x="918" y="1111" type="line"/>
      <point x="1150" y="1165" type="line"/>
      <point x="1150" y="1240" type="line"/>
      <point x="650" y="1240" type="line"/>
      <point x="650" y="1165" type="line"/>
      <point x="882" y="1111" type="line"/>
      <point x="776" y="1201" type="line"/>
      <point x="1130" y="0" type="line"/>
      <point x="1337" y="0" type="line"/>
      <point x="1721" y="1191" type="line"/>
      <point x="1614" y="1096" type="line"/>
      <point x="1847" y="1165" type="line"/>
      <point x="1847" y="1240" type="line"/>
      <point x="1428" y="1240" type="line"/>
      <point x="1428" y="1165" type="line"/>
      <point x="1660" y="1111" type="line"/>
      <point x="1603" y="1201" type="line"/>
      <point x="1256" y="71" type="line"/>
    </contour>
  </outline>
</glyph>
<glyph name="x" format="2">
  <advance width="1324"/>
  <unicode hex="0078"/>
  <guideline x="698" y="1440" angle="270"/>
  <anchor x="631" y="-110" name="LL"/>
  <anchor x="698" y="1350" name="LU"/>
  <anchor x="520" y="0" name="PB"/>
  <anchor x="502" y="0" name="def"/>
  <outline>
    <contour>
      <point x="983" y="140" type="line"/>
      <point x="757" y="85" type="line"/>
      <point x="757" y="0" type="line"/>
      <point x="1274" y="0" type="line"/>
      <point x="1274" y="85" type="line"/>
      <point x="1038" y="154" type="line"/>
      <point x="1168" y="61" type="line"/>
      <point x="372" y="1189" type="line"/>
      <point x="339" y="1100" type="line"/>
      <point x="568" y="1155" type="line"/>
      <point x="568" y="1240" type="line"/>
      <point x="50" y="1240" type="line"/>
      <point x="50" y="1155" type="line"/>
      <point x="284" y="1086" type="line"/>
      <point x="154" y="1179" type="line"/>
      <point x="950" y="51" type="line"/>
    </contour>
    <contour>
      <point x="723" y="591" type="line"/>
      <point x="1154" y="1178" type="line"/>
      <point x="1022" y="1088" type="line"/>
      <point x="1274" y="1155" type="line"/>
      <point x="1274" y="1240" type="line"/>
      <point x="824" y="1240" type="line"/>
      <point x="824" y="1155" type="line"/>
      <point x="1053" y="1100" type="line"/>
      <point x="1021" y="1188" type="line"/>
      <point x="646" y="678" type="line"/>
      <point x="597" y="652" type="line"/>
      <point x="172" y="61" type="line"/>
      <point x="303" y="152" type="line"/>
      <point x="50" y="85" type="line"/>
      <point x="50" y="0" type="line"/>
      <point x="500" y="0" type="line"/>
      <point x="500" y="85" type="line"/>
      <point x="272" y="140" type="line"/>
      <point x="305" y="51" type="line"/>
      <point x="674" y="565" type="line"/>
    </contour>
  </outline>
</glyph>
<glyph name="y" format="2">
  <advance width="1350"/>
  <unicode hex="0079"/>
  <anchor x="520" y="-200" name="PB"/>
  <anchor x="502" y="0" name="def"/>
  <outline>
    <contour>
      <point x="704" y="-131" type="line"/>
      <point x="801" y="108" type="line"/>
      <point x="436" y="1120" type="line"/>
      <point x="604" y="1155" type="line"/>
      <point x="604" y="1240" type="line"/>
      <point x="70" y="1240" type="line"/>
      <point x="70" y="1155" type="line"/>
      <point x="241" y="1110" type="line"/>
    </contour>
    <contour>
      <point x="307" y="-493" type="curve" smooth="yes"/>
      <point x="250" y="-493"/>
      <point x="184" y="-469"/>
      <point x="165" y="-432" type="curve"/>
      <point x="212" y="-414"/>
      <point x="251" y="-358"/>
      <point x="251" y="-312" type="curve" smooth="yes"/>
      <point x="251" y="-244"/>
      <point x="193" y="-195"/>
      <point x="125" y="-195" type="curve" smooth="yes"/>
      <point x="55" y="-195"/>
      <point x="-12" y="-266"/>
      <point x="-12" y="-352" type="curve" smooth="yes"/>
      <point x="-12" y="-481"/>
      <point x="99" y="-610"/>
      <point x="314" y="-610" type="curve" smooth="yes"/>
      <point x="506" y="-610"/>
      <point x="617" y="-461"/>
      <point x="718" y="-192" type="curve" smooth="yes"/>
      <point x="1208" y="1110" type="line"/>
      <point x="1360" y="1155" type="line"/>
      <point x="1360" y="1240" type="line"/>
      <point x="920" y="1240" type="line"/>
      <point x="920" y="1155" type="line"/>
      <point x="1088" y="1120" type="line"/>
      <point x="589" y="-206" type="line" smooth="yes"/>
      <point x="515" y="-404"/>
      <point x="415" y="-493"/>
    </contour>
  </outline>
</glyph>
<glyph name="z" format="2">
  <advance width="1127"/>
  <unicode hex="007A"/>
  <anchor x="581" y="-110" name="LL"/>
  <anchor x="581" y="1350" name="LU"/>
  <anchor x="520" y="0" name="PB"/>
  <anchor x="502" y="0" name="def"/>
  <outline>
    <contour>
      <point x="334" y="111" type="line"/>
      <point x="1005" y="1161" type="line"/>
      <point x="1005" y="1240" type="line"/>
      <point x="138" y="1240" type="line"/>
      <point x="138" y="960" type="line"/>
      <point x="223" y="960" type="line"/>
      <point x="258" y="1130" type="line"/>
      <point x="771" y="1130" type="line"/>
      <point x="100" y="80" type="line"/>
      <point x="100" y="0" type="line"/>
      <point x="1027" y="0" type="line"/>
      <point x="1027" y="281" type="line"/>
      <point x="942" y="281" type="line"/>
      <point x="907" y="111" type="line"/>
    </contour>
  </outline>
</glyph>
<glyph name="braceleft" format="2">
  <advance width="704"/>
  <unicode hex="007B"/>
  <guideline y="1714"/>
  <guideline x="665"/>
  <outline>
    <contour>
      <point x="665" y="2018" type="line"/>
      <point x="435" y="2018"/>
      <point x="247" y="1804"/>
      <point x="247" y="1516" type="curve" smooth="yes"/>
      <point x="247" y="1423"/>
      <point x="281" y="1366"/>
      <point x="281" y="1231" type="curve" smooth="yes"/>
      <point x="281" y="1041"/>
      <point x="173" y="918"/>
      <point x="40" y="918" type="curve"/>
      <point x="40" y="859" type="line"/>
      <point x="173" y="859"/>
      <point x="281" y="736"/>
      <point x="281" y="542" type="curve" smooth="yes"/>
      <point x="281" y="424"/>
      <point x="247" y="371"/>
      <point x="247" y="257" type="curve" smooth="yes"/>
      <point x="247" y="-35"/>
      <point x="435" y="-258"/>
      <point x="665" y="-258" type="curve"/>
      <point x="665" y="-218" type="line"/>
      <point x="517" y="-203"/>
      <point x="399" y="-35"/>
      <point x="399" y="187" type="curve" smooth="yes"/>
      <point x="399" y="301"/>
      <point x="432" y="371"/>
      <point x="432" y="469" type="curve" smooth="yes"/>
      <point x="432" y="674"/>
      <point x="306" y="853"/>
      <point x="152" y="892" type="curve"/>
      <point x="306" y="945"/>
      <point x="432" y="1119"/>
      <point x="432" y="1304" type="curve" smooth="yes"/>
      <point x="432" y="1390"/>
      <point x="399" y="1467"/>
      <point x="399" y="1585" type="curve" smooth="yes"/>
      <point x="399" y="1799"/>
      <point x="517" y="1963"/>
      <point x="665" y="1979" type="curve"/>
    </contour>
  </outline>
</glyph>
<glyph name="bar" format="2">
  <advance width="538"/>
  <unicode hex="007C"/>
  <outline>
    <contour>
      <point x="200" y="2037" type="line"/>
      <point x="200" y="-387" type="line"/>
      <point x="338" y="-387" type="line"/>
      <point x="338" y="2037" type="line"/>
    </contour>
  </outline>
</glyph>
<glyph name="braceright" format="2">
  <advance width="704"/>
  <unicode hex="007D"/>
  <outline>
    <contour>
      <point x="39" y="2018" type="curve"/>
      <point x="39" y="1979" type="line"/>
      <point x="187" y="1963"/>
      <point x="305" y="1799"/>
      <point x="305" y="1585" type="curve" smooth="yes"/>
      <point x="305" y="1467"/>
      <point x="272" y="1390"/>
      <point x="272" y="1304" type="curve" smooth="yes"/>
      <point x="272" y="1119"/>
      <point x="398" y="945"/>
      <point x="552" y="892" type="curve"/>
      <point x="398" y="853"/>
      <point x="272" y="674"/>
      <point x="272" y="469" type="curve" smooth="yes"/>
      <point x="272" y="371"/>
      <point x="305" y="301"/>
      <point x="305" y="187" type="curve" smooth="yes"/>
      <point x="305" y="-35"/>
      <point x="187" y="-203"/>
      <point x="39" y="-218" type="curve"/>
      <point x="39" y="-258" type="line"/>
      <point x="269" y="-258"/>
      <point x="457" y="-35"/>
      <point x="457" y="257" type="curve" smooth="yes"/>
      <point x="457" y="371"/>
      <point x="423" y="424"/>
      <point x="423" y="542" type="curve" smooth="yes"/>
      <point x="423" y="736"/>
      <point x="531" y="859"/>
      <point x="664" y="859" type="curve"/>
      <point x="664" y="918" type="line"/>
      <point x="531" y="918"/>
      <point x="423" y="1041"/>
      <point x="423" y="1231" type="curve" smooth="yes"/>
      <point x="423" y="1366"/>
      <point x="457" y="1423"/>
      <point x="457" y="1516" type="curve" smooth="yes"/>
      <point x="457" y="1804"/>
      <point x="269" y="2018"/>
    </contour>
  </outline>
</glyph>
<glyph name="asciitilde" format="2">
  <advance width="1283"/>
  <unicode hex="007E"/>
  <anchor x="638" y="927" name="LU"/>
  <outline>
    <contour>
      <point x="188" y="631" type="line"/>
      <point x="207" y="706"/>
      <point x="239" y="783"/>
      <point x="377" y="783" type="curve" smooth="yes"/>
      <point x="561" y="783"/>
      <point x="671" y="638"/>
      <point x="887" y="638" type="curve" smooth="yes"/>
      <point x="1102" y="638"/>
      <point x="1191" y="818"/>
      <point x="1191" y="982" type="curve"/>
      <point x="1087" y="982" type="line"/>
      <point x="1068" y="907"/>
      <point x="1036" y="829"/>
      <point x="898" y="829" type="curve" smooth="yes"/>
      <point x="714" y="829"/>
      <point x="604" y="974"/>
      <point x="388" y="974" type="curve" smooth="yes"/>
      <point x="174" y="974"/>
      <point x="84" y="794"/>
      <point x="84" y="631" type="curve"/>
    </contour>
  </outline>
</glyph>
<glyph name="exclamdown" format="2">
  <advance width="608"/>
  <unicode hex="00A1"/>
  <outline>
    <contour>
      <point x="340" y="694" type="curve"/>
      <point x="273" y="694" type="line"/>
      <point x="252" y="376"/>
      <point x="189" y="-158"/>
      <point x="189" y="-427" type="curve" smooth="yes"/>
      <point x="189" y="-536"/>
      <point x="231" y="-599"/>
      <point x="306" y="-599" type="curve" smooth="yes"/>
      <point x="370" y="-599"/>
      <point x="423" y="-536"/>
      <point x="423" y="-427" type="curve" smooth="yes"/>
      <point x="423" y="-158"/>
      <point x="351" y="376"/>
    </contour>
    <contour>
      <point x="306" y="1060" type="curve" smooth="yes"/>
      <point x="236" y="1060"/>
      <point x="180" y="1004"/>
      <point x="180" y="941" type="curve" smooth="yes"/>
      <point x="180" y="875"/>
      <point x="236" y="820"/>
      <point x="306" y="820" type="curve" smooth="yes"/>
      <point x="373" y="820"/>
      <point x="428" y="875"/>
      <point x="428" y="941" type="curve" smooth="yes"/>
      <point x="428" y="1004"/>
      <point x="373" y="1060"/>
    </contour>
  </outline>
</glyph>
<glyph name="cent" format="2">
  <advance width="1215"/>
  <unicode hex="00A2"/>
  <anchor x="550" y="0" name="PB"/>
  <anchor x="590" y="0" name="def"/>
  <outline>
    <contour>
      <point x="682" y="-200" type="line"/>
      <point x="682" y="1455" type="line"/>
      <point x="566" y="1455" type="line"/>
      <point x="572" y="-200" type="line"/>
    </contour>
    <contour>
      <point x="689" y="1120" type="curve" smooth="yes"/>
      <point x="878" y="1120"/>
      <point x="935" y="1094"/>
      <point x="959" y="1034" type="curve"/>
      <point x="1005" y="1040" type="line"/>
      <point x="917" y="1098"/>
      <point x="817" y="1033"/>
      <point x="817" y="952" type="curve" smooth="yes"/>
      <point x="817" y="877"/>
      <point x="869" y="824"/>
      <point x="953" y="824" type="curve" smooth="yes"/>
      <point x="1047" y="824"/>
      <point x="1098" y="895"/>
      <point x="1098" y="993" type="curve" smooth="yes"/>
      <point x="1098" y="1140"/>
      <point x="972" y="1235"/>
      <point x="665" y="1235" type="curve" smooth="yes"/>
      <point x="376" y="1235"/>
      <point x="125" y="1119"/>
      <point x="125" y="603" type="curve" smooth="yes"/>
      <point x="125" y="128"/>
      <point x="363" y="20"/>
      <point x="673" y="20" type="curve" smooth="yes"/>
      <point x="917" y="20"/>
      <point x="1100" y="149"/>
      <point x="1100" y="345" type="curve"/>
      <point x="990" y="345" type="line"/>
      <point x="990" y="222"/>
      <point x="877" y="130"/>
      <point x="675" y="130" type="curve" smooth="yes"/>
      <point x="457" y="130"/>
      <point x="323" y="276"/>
      <point x="323" y="627" type="curve" smooth="yes"/>
      <point x="323" y="1015"/>
      <point x="455" y="1120"/>
    </contour>
  </outline>
</glyph>
<glyph name="sterling" format="2">
  <advance width="1129"/>
  <unicode hex="00A3"/>
  <outline>
    <contour>
      <point x="98" y="0" type="line"/>
      <point x="1088" y="0" type="line"/>
      <point x="1088" y="286" type="line"/>
      <point x="1003" y="286" type="line"/>
      <point x="968" y="110" type="line"/>
      <point x="377" y="110" type="line"/>
      <point x="434" y="163"/>
      <point x="487" y="288"/>
      <point x="487" y="470" type="curve" smooth="yes"/>
      <point x="487" y="709"/>
      <point x="475" y="899"/>
      <point x="475" y="1089" type="curve" smooth="yes"/>
      <point x="475" y="1228"/>
      <point x="523" y="1355"/>
      <point x="682" y="1355" type="curve" smooth="yes"/>
      <point x="786" y="1355"/>
      <point x="822" y="1337"/>
      <point x="839" y="1299" type="curve"/>
      <point x="772" y="1304"/>
      <point x="703" y="1250"/>
      <point x="703" y="1189" type="curve" smooth="yes"/>
      <point x="703" y="1114"/>
      <point x="765" y="1061"/>
      <point x="849" y="1061" type="curve" smooth="yes"/>
      <point x="937" y="1061"/>
      <point x="989" y="1132"/>
      <point x="989" y="1230" type="curve" smooth="yes"/>
      <point x="989" y="1347"/>
      <point x="901" y="1456"/>
      <point x="667" y="1456" type="curve" smooth="yes"/>
      <point x="383" y="1456"/>
      <point x="282" y="1224"/>
      <point x="282" y="982" type="curve" smooth="yes"/>
      <point x="282" y="793"/>
      <point x="294" y="604"/>
      <point x="294" y="415" type="curve" smooth="yes"/>
      <point x="294" y="310"/>
      <point x="244" y="148"/>
      <point x="98" y="90" type="curve"/>
    </contour>
    <contour>
      <point x="130" y="730" type="line"/>
      <point x="770" y="730" type="line"/>
      <point x="770" y="840" type="line"/>
      <point x="130" y="840" type="line"/>
    </contour>
  </outline>
</glyph>
<glyph name="currency" format="2">
  <advance width="1119"/>
  <unicode hex="00A4"/>
  <outline>
    <contour>
      <point x="181" y="722" type="curve" smooth="yes"/>
      <point x="181" y="924"/>
      <point x="350" y="1080"/>
      <point x="561" y="1080" type="curve" smooth="yes"/>
      <point x="769" y="1080"/>
      <point x="942" y="924"/>
      <point x="942" y="722" type="curve" smooth="yes"/>
      <point x="942" y="517"/>
      <point x="769" y="363"/>
      <point x="561" y="363" type="curve" smooth="yes"/>
      <point x="350" y="363"/>
      <point x="181" y="517"/>
    </contour>
    <contour>
      <point x="249" y="361" type="line"/>
      <point x="327" y="287"/>
      <point x="441" y="251"/>
      <point x="561" y="251" type="curve" smooth="yes"/>
      <point x="682" y="251"/>
      <point x="792" y="287"/>
      <point x="874" y="361" type="curve"/>
      <point x="1037" y="202" type="line"/>
      <point x="1100" y="266" type="line"/>
      <point x="938" y="421" type="line"/>
      <point x="1009" y="499"/>
      <point x="1052" y="607"/>
      <point x="1052" y="722" type="curve" smooth="yes"/>
      <point x="1052" y="834"/>
      <point x="1009" y="942"/>
      <point x="938" y="1020" type="curve"/>
      <point x="1101" y="1179" type="line"/>
      <point x="1037" y="1239" type="line"/>
      <point x="874" y="1083" type="line"/>
      <point x="792" y="1154"/>
      <point x="682" y="1190"/>
      <point x="561" y="1190" type="curve" smooth="yes"/>
      <point x="441" y="1190"/>
      <point x="327" y="1154"/>
      <point x="249" y="1083" type="curve"/>
      <point x="86" y="1239" type="line"/>
      <point x="23" y="1179" type="line"/>
      <point x="185" y="1020" type="line"/>
      <point x="110" y="938"/>
      <point x="71" y="834"/>
      <point x="71" y="722" type="curve" smooth="yes"/>
      <point x="71" y="607"/>
      <point x="110" y="495"/>
      <point x="185" y="421" type="curve"/>
      <point x="23" y="266" type="line"/>
      <point x="86" y="202" type="line"/>
    </contour>
  </outline>
</glyph>
<glyph name="yen" format="2">
  <advance width="1509"/>
  <unicode hex="00A5"/>
  <outline>
    <component base="Y"/>
    <contour>
      <point x="268" y="687" type="line"/>
      <point x="268" y="577" type="line"/>
      <point x="1201" y="577" type="line"/>
      <point x="1201" y="687" type="line"/>
    </contour>
    <contour>
      <point x="268" y="467" type="line"/>
      <point x="268" y="357" type="line"/>
      <point x="1201" y="357" type="line"/>
      <point x="1201" y="467" type="line"/>
    </contour>
  </outline>
</glyph>
<glyph name="brokenbar" format="2">
  <advance width="538"/>
  <unicode hex="00A6"/>
  <outline>
    <contour>
      <point x="338" y="481" type="line"/>
      <point x="200" y="481" type="line"/>
      <point x="200" y="-292" type="line"/>
      <point x="338" y="-292" type="line"/>
    </contour>
    <contour>
      <point x="338" y="1818" type="line"/>
      <point x="200" y="1818" type="line"/>
      <point x="200" y="1045" type="line"/>
      <point x="338" y="1045" type="line"/>
    </contour>
  </outline>
</glyph>
<glyph name="section" format="2">
  <advance width="1056"/>
  <unicode hex="00A7"/>
  <outline>
    <contour>
      <point x="438" y="1131" type="curve"/>
      <point x="573" y="1000"/>
      <point x="775" y="940"/>
      <point x="775" y="731" type="curve" smooth="yes"/>
      <point x="775" y="633"/>
      <point x="692" y="551"/>
      <point x="606" y="502" type="curve"/>
      <point x="475" y="625"/>
      <point x="269" y="696"/>
      <point x="269" y="892" type="curve" smooth="yes"/>
      <point x="269" y="1000"/>
      <point x="344" y="1079"/>
    </contour>
    <contour>
      <point x="359" y="1556" type="curve" smooth="yes"/>
      <point x="359" y="1653"/>
      <point x="443" y="1692"/>
      <point x="537" y="1692" type="curve" smooth="yes"/>
      <point x="616" y="1692"/>
      <point x="664" y="1660"/>
      <point x="681" y="1622" type="curve"/>
      <point x="614" y="1627"/>
      <point x="585" y="1573"/>
      <point x="585" y="1522" type="curve" smooth="yes"/>
      <point x="585" y="1472"/>
      <point x="632" y="1424"/>
      <point x="691" y="1424" type="curve" smooth="yes"/>
      <point x="754" y="1424"/>
      <point x="801" y="1480"/>
      <point x="801" y="1563" type="curve" smooth="yes"/>
      <point x="801" y="1680"/>
      <point x="733" y="1789"/>
      <point x="524" y="1789" type="curve" smooth="yes"/>
      <point x="361" y="1789"/>
      <point x="242" y="1679"/>
      <point x="242" y="1490" type="curve" smooth="yes"/>
      <point x="242" y="1389"/>
      <point x="299" y="1265"/>
      <point x="370" y="1194" type="curve"/>
      <point x="232" y="1116"/>
      <point x="127" y="988"/>
      <point x="127" y="828" type="curve" smooth="yes"/>
      <point x="127" y="483"/>
      <point x="686" y="346"/>
      <point x="686" y="84" type="curve" smooth="yes"/>
      <point x="686" y="-13"/>
      <point x="602" y="-52"/>
      <point x="508" y="-52" type="curve" smooth="yes"/>
      <point x="429" y="-52"/>
      <point x="381" y="-20"/>
      <point x="364" y="18" type="curve"/>
      <point x="431" y="13"/>
      <point x="460" y="67"/>
      <point x="460" y="118" type="curve" smooth="yes"/>
      <point x="460" y="168"/>
      <point x="413" y="216"/>
      <point x="354" y="216" type="curve" smooth="yes"/>
      <point x="291" y="216"/>
      <point x="244" y="160"/>
      <point x="244" y="77" type="curve" smooth="yes"/>
      <point x="244" y="-40"/>
      <point x="312" y="-149"/>
      <point x="521" y="-149" type="curve" smooth="yes"/>
      <point x="704" y="-149"/>
      <point x="803" y="-19"/>
      <point x="803" y="180" type="curve" smooth="yes"/>
      <point x="803" y="289"/>
      <point x="745" y="367"/>
      <point x="674" y="442" type="curve"/>
      <point x="805" y="510"/>
      <point x="917" y="652"/>
      <point x="917" y="801" type="curve" smooth="yes"/>
      <point x="917" y="1169"/>
      <point x="359" y="1275"/>
    </contour>
  </outline>
</glyph>
<glyph name="dieresis" format="2">
  <advance width="944"/>
  <unicode hex="00A8"/>
  <outline>
    <contour>
      <point x="187" y="1374" type="curve" smooth="yes"/>
      <point x="187" y="1318"/>
      <point x="235" y="1269"/>
      <point x="292" y="1269" type="curve" smooth="yes"/>
      <point x="348" y="1269"/>
      <point x="397" y="1318"/>
      <point x="397" y="1374" type="curve" smooth="yes"/>
      <point x="397" y="1430"/>
      <point x="348" y="1478"/>
      <point x="292" y="1478" type="curve" smooth="yes"/>
      <point x="235" y="1478"/>
      <point x="187" y="1430"/>
    </contour>
    <contour>
      <point x="561" y="1374" type="curve" smooth="yes"/>
      <point x="561" y="1318"/>
      <point x="610" y="1269"/>
      <point x="666" y="1269" type="curve" smooth="yes"/>
      <point x="722" y="1269"/>
      <point x="771" y="1318"/>
      <point x="771" y="1374" type="curve" smooth="yes"/>
      <point x="771" y="1430"/>
      <point x="722" y="1478"/>
      <point x="666" y="1478" type="curve" smooth="yes"/>
      <point x="610" y="1478"/>
      <point x="561" y="1430"/>
    </contour>
  </outline>
</glyph>
<glyph name="copyright" format="2">
  <advance width="1704"/>
  <unicode hex="00A9"/>
  <outline>
    <contour>
      <point x="904" y="1129" type="curve" smooth="yes"/>
      <point x="1022" y="1129"/>
      <point x="1061" y="1096"/>
      <point x="1061" y="1069" type="curve"/>
      <point x="1121" y="1041" type="line"/>
      <point x="1099" y="1075"/>
      <point x="1075" y="1088"/>
      <point x="1054" y="1088" type="curve" smooth="yes"/>
      <point x="1011" y="1088"/>
      <point x="989" y="1056"/>
      <point x="989" y="1022" type="curve" smooth="yes"/>
      <point x="989" y="987"/>
      <point x="1014" y="951"/>
      <point x="1064" y="951" type="curve" smooth="yes"/>
      <point x="1105" y="951"/>
      <point x="1149" y="982"/>
      <point x="1149" y="1047" type="curve" smooth="yes"/>
      <point x="1149" y="1122"/>
      <point x="1069" y="1203"/>
      <point x="911" y="1203" type="curve" smooth="yes"/>
      <point x="689" y="1203"/>
      <point x="530" y="1091"/>
      <point x="530" y="725" type="curve" smooth="yes"/>
      <point x="530" y="369"/>
      <point x="667" y="247"/>
      <point x="898" y="247" type="curve" smooth="yes"/>
      <point x="1059" y="247"/>
      <point x="1175" y="363"/>
      <point x="1175" y="470" type="curve"/>
      <point x="1102" y="470" type="line"/>
      <point x="1102" y="394"/>
      <point x="1017" y="321"/>
      <point x="900" y="321" type="curve" smooth="yes"/>
      <point x="739" y="321"/>
      <point x="651" y="459"/>
      <point x="651" y="721" type="curve" smooth="yes"/>
      <point x="651" y="1000"/>
      <point x="719" y="1129"/>
    </contour>
    <contour>
      <point x="852" y="-27" type="curve" smooth="yes"/>
      <point x="1267" y="-27"/>
      <point x="1604" y="310"/>
      <point x="1604" y="725" type="curve" smooth="yes"/>
      <point x="1604" y="1140"/>
      <point x="1267" y="1477"/>
      <point x="852" y="1477" type="curve" smooth="yes"/>
      <point x="437" y="1477"/>
      <point x="100" y="1140"/>
      <point x="100" y="725" type="curve" smooth="yes"/>
      <point x="100" y="310"/>
      <point x="437" y="-27"/>
    </contour>
    <contour>
      <point x="852" y="70" type="curve" smooth="yes"/>
      <point x="490" y="70"/>
      <point x="197" y="363"/>
      <point x="197" y="725" type="curve" smooth="yes"/>
      <point x="197" y="1087"/>
      <point x="490" y="1380"/>
      <point x="852" y="1380" type="curve" smooth="yes"/>
      <point x="1214" y="1380"/>
      <point x="1507" y="1087"/>
      <point x="1507" y="725" type="curve" smooth="yes"/>
      <point x="1507" y="363"/>
      <point x="1214" y="70"/>
    </contour>
  </outline>
</glyph>
<glyph name="ordfeminine" format="2">
  <advance width="818"/>
  <unicode hex="00AA"/>
  <anchor x="310" y="950" name="PB"/>
  <anchor x="316" y="950" name="def"/>
  <outline>
    <contour>
      <point x="122" y="885" type="line"/>
      <point x="657" y="885" type="line"/>
      <point x="657" y="968" type="line"/>
      <point x="122" y="968" type="line"/>
    </contour>
    <contour>
      <point x="272" y="1076" type="curve" smooth="yes"/>
      <point x="433" y="1076"/>
      <point x="542" y="1168"/>
      <point x="560" y="1211" type="curve"/>
      <point x="533" y="1254" type="line"/>
      <point x="484" y="1199"/>
      <point x="403" y="1143"/>
      <point x="310" y="1143" type="curve" smooth="yes"/>
      <point x="242" y="1143"/>
      <point x="209" y="1200"/>
      <point x="209" y="1266" type="curve" smooth="yes"/>
      <point x="209" y="1402"/>
      <point x="341" y="1422"/>
      <point x="548" y="1422" type="curve"/>
      <point x="548" y="1484" type="line"/>
      <point x="280" y="1484"/>
      <point x="70" y="1453"/>
      <point x="70" y="1260" type="curve" smooth="yes"/>
      <point x="70" y="1139"/>
      <point x="171" y="1076"/>
    </contour>
    <contour>
      <point x="515" y="1088" type="line"/>
      <point x="718" y="1088" type="line"/>
      <point x="718" y="1134" type="line"/>
      <point x="638" y="1154" type="line"/>
      <point x="638" y="1635" type="line" smooth="yes"/>
      <point x="638" y="1751"/>
      <point x="517" y="1797"/>
      <point x="339" y="1797" type="curve" smooth="yes"/>
      <point x="169" y="1797"/>
      <point x="77" y="1726"/>
      <point x="77" y="1650" type="curve" smooth="yes"/>
      <point x="77" y="1600"/>
      <point x="112" y="1560"/>
      <point x="161" y="1560" type="curve" smooth="yes"/>
      <point x="207" y="1560"/>
      <point x="238" y="1588"/>
      <point x="238" y="1632" type="curve" smooth="yes"/>
      <point x="238" y="1662"/>
      <point x="212" y="1694"/>
      <point x="172" y="1691" type="curve"/>
      <point x="200" y="1718"/>
      <point x="245" y="1735"/>
      <point x="325" y="1735" type="curve" smooth="yes"/>
      <point x="455" y="1735"/>
      <point x="515" y="1702"/>
      <point x="515" y="1641" type="curve" smooth="yes"/>
    </contour>
  </outline>
</glyph>
<glyph name="logicalnot" format="2">
  <advance width="1294"/>
  <unicode hex="00AC"/>
  <outline>
    <contour>
      <point x="120" y="1019" type="line"/>
      <point x="120" y="881" type="line"/>
      <point x="1036" y="881" type="line"/>
      <point x="1036" y="585" type="line"/>
      <point x="1174" y="585" type="line"/>
      <point x="1174" y="1019" type="line"/>
    </contour>
  </outline>
</glyph>
<glyph name="registered" format="2">
  <advance width="1609"/>
  <unicode hex="00AE"/>
  <outline>
    <component base="R" xScale="0.57" yScale="0.57" xOffset="364" yOffset="246"/>
    <contour>
      <point x="797" y="56" type="curve" smooth="yes"/>
      <point x="428" y="56"/>
      <point x="128" y="356"/>
      <point x="128" y="725" type="curve" smooth="yes"/>
      <point x="128" y="1094"/>
      <point x="428" y="1394"/>
      <point x="797" y="1394" type="curve" smooth="yes"/>
      <point x="1166" y="1394"/>
      <point x="1466" y="1094"/>
      <point x="1466" y="725" type="curve" smooth="yes"/>
      <point x="1466" y="356"/>
      <point x="1166" y="56"/>
    </contour>
    <contour>
      <point x="797" y="-27" type="curve" smooth="yes"/>
      <point x="1212" y="-27"/>
      <point x="1549" y="310"/>
      <point x="1549" y="725" type="curve" smooth="yes"/>
      <point x="1549" y="1140"/>
      <point x="1212" y="1477"/>
      <point x="797" y="1477" type="curve" smooth="yes"/>
      <point x="382" y="1477"/>
      <point x="45" y="1140"/>
      <point x="45" y="725" type="curve" smooth="yes"/>
      <point x="45" y="310"/>
      <point x="382" y="-27"/>
    </contour>
  </outline>
</glyph>
<glyph name="degree" format="2">
  <advance width="840"/>
  <unicode hex="00B0"/>
  <outline>
    <contour>
      <point x="420" y="890" type="curve" smooth="yes"/>
      <point x="605" y="890"/>
      <point x="745" y="1030"/>
      <point x="745" y="1215" type="curve" smooth="yes"/>
      <point x="745" y="1400"/>
      <point x="605" y="1540"/>
      <point x="420" y="1540" type="curve" smooth="yes"/>
      <point x="235" y="1540"/>
      <point x="95" y="1400"/>
      <point x="95" y="1215" type="curve" smooth="yes"/>
      <point x="95" y="1030"/>
      <point x="235" y="890"/>
    </contour>
    <contour>
      <point x="420" y="1020" type="curve" smooth="yes"/>
      <point x="312" y="1020"/>
      <point x="225" y="1107"/>
      <point x="225" y="1215" type="curve" smooth="yes"/>
      <point x="225" y="1323"/>
      <point x="312" y="1410"/>
      <point x="420" y="1410" type="curve" smooth="yes"/>
      <point x="528" y="1410"/>
      <point x="615" y="1323"/>
      <point x="615" y="1215" type="curve" smooth="yes"/>
      <point x="615" y="1107"/>
      <point x="528" y="1020"/>
    </contour>
  </outline>
</glyph>
<glyph name="plusminus" format="2">
  <advance width="1184"/>
  <unicode hex="00B1"/>
  <outline>
    <contour>
      <point x="230" y="346" type="line"/>
      <point x="230" y="208" type="line"/>
      <point x="954" y="208" type="line"/>
      <point x="954" y="346" type="line"/>
    </contour>
    <contour>
      <point x="230" y="900" type="line"/>
      <point x="230" y="762" type="line"/>
      <point x="523" y="762" type="line"/>
      <point x="523" y="469" type="line"/>
      <point x="661" y="469" type="line"/>
      <point x="661" y="762" type="line"/>
      <point x="954" y="762" type="line"/>
      <point x="954" y="900" type="line"/>
      <point x="661" y="900" type="line"/>
      <point x="661" y="1193" type="line"/>
      <point x="523" y="1193" type="line"/>
      <point x="523" y="900" type="line"/>
    </contour>
  </outline>
</glyph>
<glyph name="threesuperior" format="2">
  <advance width="902"/>
  <unicode hex="00B3"/>
  <guideline x="446" y="1558" angle="45.1929"/>
  <outline>
    <contour>
      <point x="423" y="945" type="curve" smooth="yes"/>
      <point x="299" y="945"/>
      <point x="241" y="978"/>
      <point x="223" y="998" type="curve"/>
      <point x="267" y="996"/>
      <point x="302" y="1031"/>
      <point x="302" y="1062" type="curve" smooth="yes"/>
      <point x="302" y="1102"/>
      <point x="267" y="1135"/>
      <point x="213" y="1135" type="curve" smooth="yes"/>
      <point x="161" y="1135"/>
      <point x="119" y="1098"/>
      <point x="119" y="1040" type="curve" smooth="yes"/>
      <point x="119" y="970"/>
      <point x="189" y="874"/>
      <point x="433" y="874" type="curve" smooth="yes"/>
      <point x="626" y="874"/>
      <point x="789" y="995"/>
      <point x="789" y="1159" type="curve" smooth="yes"/>
      <point x="789" y="1331"/>
      <point x="566" y="1433"/>
      <point x="446" y="1409" type="curve"/>
      <point x="742" y="1707" type="line"/>
      <point x="740" y="1793" type="line"/>
      <point x="165" y="1793" type="line"/>
      <point x="165" y="1618" type="line"/>
      <point x="219" y="1618" type="line"/>
      <point x="242" y="1723" type="line"/>
      <point x="610" y="1723" type="line"/>
      <point x="297" y="1408" type="line"/>
      <point x="310" y="1328" type="line"/>
      <point x="496" y="1365"/>
      <point x="656" y="1273"/>
      <point x="656" y="1144" type="curve" smooth="yes"/>
      <point x="656" y="1031"/>
      <point x="561" y="945"/>
    </contour>
  </outline>
</glyph>
<glyph name="uni00B5" format="2">
  <advance width="1363"/>
  <unicode hex="00B5"/>
  <outline>
    <contour>
      <point x="521" y="-20" type="curve" smooth="yes"/>
      <point x="776" y="-20"/>
      <point x="927" y="147"/>
      <point x="1000" y="266" type="curve"/>
      <point x="956" y="358" type="line"/>
      <point x="874" y="222"/>
      <point x="724" y="97"/>
      <point x="572" y="97" type="curve" smooth="yes"/>
      <point x="458" y="97"/>
      <point x="378" y="164"/>
      <point x="378" y="279" type="curve" smooth="yes"/>
      <point x="378" y="1240" type="line"/>
      <point x="190" y="1240" type="line"/>
      <point x="190" y="307" type="line" smooth="yes"/>
      <point x="190" y="125"/>
      <point x="330" y="-20"/>
    </contour>
    <contour>
      <point x="1041" y="-20" type="curve" smooth="yes"/>
      <point x="1098" y="-20"/>
      <point x="1208" y="6"/>
      <point x="1290" y="30" type="curve"/>
      <point x="1290" y="105" type="line"/>
      <point x="1142" y="105"/>
      <point x="1090" y="119"/>
      <point x="1090" y="203" type="curve" smooth="yes"/>
      <point x="1090" y="1240" type="line"/>
      <point x="902" y="1240" type="line"/>
      <point x="902" y="218" type="line" smooth="yes"/>
      <point x="902" y="79"/>
      <point x="941" y="-20"/>
    </contour>
    <contour>
      <point x="190" y="480" type="line"/>
      <point x="190" y="412"/>
      <point x="190" y="24"/>
      <point x="190" y="-40" type="curve" smooth="yes"/>
      <point x="190" y="-230"/>
      <point x="140" y="-365"/>
      <point x="140" y="-465" type="curve" smooth="yes"/>
      <point x="140" y="-535"/>
      <point x="183" y="-603"/>
      <point x="273" y="-603" type="curve" smooth="yes"/>
      <point x="363" y="-603"/>
      <point x="406" y="-535"/>
      <point x="406" y="-465" type="curve" smooth="yes"/>
      <point x="406" y="-365"/>
      <point x="296" y="-190"/>
      <point x="296" y="-40" type="curve" smooth="yes"/>
      <point x="296" y="480" type="line"/>
    </contour>
  </outline>
</glyph>
<glyph name="paragraph" format="2">
  <advance width="1138"/>
  <unicode hex="00B6"/>
  <outline>
    <contour>
      <point x="963" y="1661" type="line"/>
      <point x="1081" y="1661" type="line"/>
      <point x="1081" y="1771" type="line"/>
      <point x="532" y="1771" type="line" smooth="yes"/>
      <point x="217" y="1771"/>
      <point x="64" y="1618"/>
      <point x="64" y="1363" type="curve" smooth="yes"/>
      <point x="64" y="1071"/>
      <point x="270" y="966"/>
      <point x="565" y="966" type="curve"/>
      <point x="565" y="-112" type="line"/>
      <point x="675" y="-112" type="line"/>
      <point x="675" y="1661" type="line"/>
      <point x="853" y="1661" type="line"/>
      <point x="853" y="-112" type="line"/>
      <point x="963" y="-112" type="line"/>
    </contour>
  </outline>
</glyph>
<glyph name="onesuperior" format="2">
  <advance width="632"/>
  <unicode hex="00B9"/>
  <outline>
    <contour>
      <point x="158" y="707" type="line"/>
      <point x="520" y="707" type="line"/>
      <point x="520" y="745" type="line"/>
      <point x="426" y="745"/>
      <point x="408" y="759"/>
      <point x="408" y="827" type="curve" smooth="yes"/>
      <point x="408" y="1471" type="line"/>
      <point x="363" y="1471" type="line"/>
      <point x="139" y="1377" type="line"/>
      <point x="158" y="1343" type="line"/>
      <point x="179" y="1355"/>
      <point x="206" y="1366"/>
      <point x="232" y="1366" type="curve" smooth="yes"/>
      <point x="266" y="1366"/>
      <point x="270" y="1347"/>
      <point x="270" y="1254" type="curve" smooth="yes"/>
      <point x="270" y="827" type="line" smooth="yes"/>
      <point x="270" y="759"/>
      <point x="254" y="745"/>
      <point x="158" y="745" type="curve"/>
    </contour>
  </outline>
</glyph>
<glyph name="ordmasculine" format="2">
  <advance width="767"/>
  <unicode hex="00BA"/>
  <anchor x="306" y="950" name="PB"/>
  <anchor x="342" y="950" name="def"/>
  <outline>
    <contour>
      <point x="368" y="1076" type="curve" smooth="yes"/>
      <point x="539" y="1076"/>
      <point x="667" y="1153"/>
      <point x="667" y="1437" type="curve" smooth="yes"/>
      <point x="667" y="1720"/>
      <point x="539" y="1797"/>
      <point x="368" y="1797" type="curve" smooth="yes"/>
      <point x="198" y="1797"/>
      <point x="70" y="1720"/>
      <point x="70" y="1437" type="curve" smooth="yes"/>
      <point x="70" y="1153"/>
      <point x="198" y="1076"/>
    </contour>
    <contour>
      <point x="368" y="1137" type="curve" smooth="yes"/>
      <point x="243" y="1137"/>
      <point x="198" y="1205"/>
      <point x="198" y="1437" type="curve" smooth="yes"/>
      <point x="198" y="1668"/>
      <point x="243" y="1737"/>
      <point x="368" y="1737" type="curve" smooth="yes"/>
      <point x="492" y="1737"/>
      <point x="538" y="1668"/>
      <point x="538" y="1437" type="curve" smooth="yes"/>
      <point x="538" y="1205"/>
      <point x="492" y="1137"/>
    </contour>
    <contour>
      <point x="101" y="885" type="line"/>
      <point x="636" y="885" type="line"/>
      <point x="636" y="968" type="line"/>
      <point x="101" y="968" type="line"/>
    </contour>
  </outline>
</glyph>
<glyph name="onequarter" format="2">
  <advance width="1700"/>
  <unicode hex="00BC"/>
  <outline>
    <component base="one" xScale="0.65" yScale="0.5" xOffset="-43" yOffset="825"/>
    <contour>
      <point x="1445" y="1700" type="line"/>
      <point x="1314" y="1700" type="line"/>
      <point x="285" y="-50" type="line"/>
      <point x="416" y="-50" type="line"/>
    </contour>
    <contour>
      <point x="1053" y="355" type="line"/>
      <point x="1362" y="685" type="line"/>
      <point x="1362" y="60" type="line"/>
      <point x="1251" y="43" type="line"/>
      <point x="1251" y="0" type="line"/>
      <point x="1595" y="0" type="line"/>
      <point x="1595" y="43" type="line"/>
      <point x="1491" y="60" type="line"/>
      <point x="1491" y="820" type="line"/>
      <point x="1362" y="820" type="line"/>
      <point x="942" y="370" type="line"/>
      <point x="942" y="285" type="line"/>
      <point x="1597" y="285" type="line"/>
      <point x="1597" y="355" type="line"/>
    </contour>
  </outline>
</glyph>
<glyph name="onehalf" format="2">
  <advance width="1700"/>
  <unicode hex="00BD"/>
  <outline>
    <contour>
      <point x="1345" y="1700" type="line"/>
      <point x="1214" y="1700" type="line"/>
      <point x="185" y="-50" type="line"/>
      <point x="316" y="-50" type="line"/>
    </contour>
    <contour>
      <point x="1260" y="772" type="curve" smooth="yes"/>
      <point x="1388" y="772"/>
      <point x="1447" y="720"/>
      <point x="1447" y="649" type="curve" smooth="yes"/>
      <point x="1447" y="512"/>
      <point x="1167" y="291"/>
      <point x="988" y="162" type="curve"/>
      <point x="988" y="0" type="line"/>
      <point x="1598" y="0" type="line"/>
      <point x="1598" y="145" type="line"/>
      <point x="1543" y="145" type="line"/>
      <point x="1520" y="60" type="line"/>
      <point x="1112" y="60" type="line"/>
      <point x="1112" y="114" type="line"/>
      <point x="1237" y="204"/>
      <point x="1592" y="483"/>
      <point x="1592" y="653" type="curve" smooth="yes"/>
      <point x="1592" y="736"/>
      <point x="1498" y="833"/>
      <point x="1276" y="833" type="curve" smooth="yes"/>
      <point x="1091" y="833"/>
      <point x="958" y="754"/>
      <point x="958" y="685" type="curve" smooth="yes"/>
      <point x="958" y="640"/>
      <point x="1002" y="603"/>
      <point x="1055" y="603" type="curve" smooth="yes"/>
      <point x="1105" y="603"/>
      <point x="1144" y="629"/>
      <point x="1144" y="669" type="curve" smooth="yes"/>
      <point x="1144" y="696"/>
      <point x="1105" y="725"/>
      <point x="1062" y="722" type="curve"/>
      <point x="1092" y="747"/>
      <point x="1173" y="772"/>
    </contour>
    <contour>
      <point x="253" y="1534" type="line"/>
      <point x="253" y="885" type="line"/>
      <point x="104" y="868" type="line"/>
      <point x="104" y="825" type="line"/>
      <point x="531" y="825" type="line"/>
      <point x="531" y="868" type="line"/>
      <point x="382" y="885" type="line"/>
      <point x="382" y="1650" type="line"/>
      <point x="280" y="1650" type="line"/>
      <point x="102" y="1539" type="line"/>
      <point x="102" y="1496" type="line"/>
    </contour>
  </outline>
</glyph>
<glyph name="threequarters" format="2">
  <advance width="1875"/>
  <unicode hex="00BE"/>
  <guideline x="419" y="1437" angle="221.2643"/>
  <outline>
    <contour>
      <point x="406" y="886" type="curve" smooth="yes"/>
      <point x="538" y="886"/>
      <point x="608" y="943"/>
      <point x="608" y="1061" type="curve" smooth="yes"/>
      <point x="608" y="1178"/>
      <point x="456" y="1264"/>
      <point x="270" y="1231" type="curve"/>
      <point x="257" y="1295" type="line"/>
      <point x="581" y="1579" type="line"/>
      <point x="216" y="1579" type="line"/>
      <point x="194" y="1497" type="line"/>
      <point x="138" y="1497" type="line"/>
      <point x="138" y="1650" type="line"/>
      <point x="716" y="1650" type="line"/>
      <point x="716" y="1573" type="line"/>
      <point x="406" y="1301" type="line"/>
      <point x="526" y="1324"/>
      <point x="749" y="1226"/>
      <point x="749" y="1070" type="curve" smooth="yes"/>
      <point x="749" y="905"/>
      <point x="599" y="815"/>
      <point x="406" y="815" type="curve" smooth="yes"/>
      <point x="212" y="815"/>
      <point x="115" y="880"/>
      <point x="115" y="964" type="curve" smooth="yes"/>
      <point x="115" y="1016"/>
      <point x="155" y="1046"/>
      <point x="209" y="1046" type="curve" smooth="yes"/>
      <point x="264" y="1046"/>
      <point x="298" y="1022"/>
      <point x="298" y="984" type="curve" smooth="yes"/>
      <point x="298" y="956"/>
      <point x="259" y="927"/>
      <point x="216" y="929" type="curve"/>
      <point x="244" y="901"/>
      <point x="317" y="886"/>
    </contour>
    <contour>
      <point x="1221" y="355" type="line"/>
      <point x="1530" y="685" type="line"/>
      <point x="1530" y="60" type="line"/>
      <point x="1419" y="43" type="line"/>
      <point x="1419" y="0" type="line"/>
      <point x="1763" y="0" type="line"/>
      <point x="1763" y="43" type="line"/>
      <point x="1659" y="60" type="line"/>
      <point x="1659" y="820" type="line"/>
      <point x="1530" y="820" type="line"/>
      <point x="1110" y="370" type="line"/>
      <point x="1110" y="284" type="line"/>
      <point x="1765" y="284" type="line"/>
      <point x="1765" y="355" type="line"/>
    </contour>
    <contour>
      <point x="1655" y="1720" type="line"/>
      <point x="1502" y="1720" type="line"/>
      <point x="353" y="-70" type="line"/>
      <point x="506" y="-70" type="line"/>
    </contour>
  </outline>
</glyph>
<glyph name="questiondown" format="2">
  <advance width="1022"/>
  <unicode hex="00BF"/>
  <outline>
    <contour>
      <point x="606" y="-479" type="curve" smooth="yes"/>
      <point x="408" y="-479"/>
      <point x="318" y="-389"/>
      <point x="318" y="-227" type="curve" smooth="yes"/>
      <point x="318" y="-73"/>
      <point x="368" y="-13"/>
      <point x="498" y="100" type="curve" smooth="yes"/>
      <point x="655" y="236"/>
      <point x="748" y="435"/>
      <point x="748" y="677" type="curve"/>
      <point x="556" y="677" type="line"/>
      <point x="556" y="492"/>
      <point x="498" y="337"/>
      <point x="355" y="207" type="curve" smooth="yes"/>
      <point x="224" y="88"/>
      <point x="116" y="-2"/>
      <point x="116" y="-235" type="curve" smooth="yes"/>
      <point x="116" y="-455"/>
      <point x="322" y="-599"/>
      <point x="588" y="-599" type="curve" smooth="yes"/>
      <point x="877" y="-599"/>
      <point x="1022" y="-466"/>
      <point x="1022" y="-329" type="curve" smooth="yes"/>
      <point x="1022" y="-222"/>
      <point x="952" y="-155"/>
      <point x="871" y="-155" type="curve" smooth="yes"/>
      <point x="789" y="-155"/>
      <point x="735" y="-215"/>
      <point x="735" y="-288" type="curve" smooth="yes"/>
      <point x="735" y="-345"/>
      <point x="789" y="-409"/>
      <point x="856" y="-404" type="curve"/>
      <point x="828" y="-441"/>
      <point x="746" y="-479"/>
    </contour>
    <contour>
      <point x="641" y="1060" type="curve" smooth="yes"/>
      <point x="571" y="1060"/>
      <point x="515" y="1004"/>
      <point x="515" y="941" type="curve" smooth="yes"/>
      <point x="515" y="875"/>
      <point x="571" y="820"/>
      <point x="641" y="820" type="curve" smooth="yes"/>
      <point x="708" y="820"/>
      <point x="763" y="875"/>
      <point x="763" y="941" type="curve" smooth="yes"/>
      <point x="763" y="1004"/>
      <point x="708" y="1060"/>
    </contour>
  </outline>
</glyph>
<glyph name="AE" format="2">
  <advance width="2049"/>
  <unicode hex="00C6"/>
  <outline>
    <contour>
      <point x="1658" y="947" type="line"/>
      <point x="626" y="947" type="line"/>
      <point x="626" y="831" type="line"/>
      <point x="1658" y="831" type="line"/>
      <point x="1693" y="671" type="line"/>
      <point x="1788" y="671" type="line"/>
      <point x="1788" y="1107" type="line"/>
      <point x="1693" y="1107" type="line"/>
    </contour>
    <contour>
      <point x="1819" y="1534" type="line"/>
      <point x="1854" y="1344" type="line"/>
      <point x="1949" y="1344" type="line"/>
      <point x="1949" y="1650" type="line"/>
      <point x="1100" y="1650" type="line"/>
      <point x="1100" y="1534" type="line"/>
    </contour>
    <contour>
      <point x="1819" y="116" type="line"/>
      <point x="1105" y="116" type="line"/>
      <point x="1100" y="0" type="line"/>
      <point x="1949" y="0" type="line"/>
      <point x="1949" y="306" type="line"/>
      <point x="1854" y="306" type="line"/>
    </contour>
    <contour>
      <point x="1173" y="0" type="line"/>
      <point x="1173" y="1650" type="line"/>
      <point x="985" y="1650" type="line"/>
      <point x="985" y="120" type="line"/>
      <point x="835" y="85" type="line"/>
      <point x="835" y="0" type="line"/>
    </contour>
    <contour>
      <point x="287" y="120" type="line"/>
      <point x="985" y="1399" type="line"/>
      <point x="985" y="1650" type="line"/>
      <point x="150" y="120" type="line"/>
      <point x="0" y="85" type="line"/>
      <point x="0" y="0" type="line"/>
      <point x="457" y="0" type="line"/>
      <point x="457" y="85" type="line"/>
    </contour>
  </outline>
</glyph>
<glyph name="Icircumflex" format="2">
  <advance width="722"/>
  <unicode hex="00CE"/>
  <outline>
    <contour>
      <point x="251" y="229" type="line" smooth="yes"/>
      <point x="251" y="75"/>
      <point x="198" y="37"/>
      <point x="48" y="37" type="curve"/>
      <point x="48" y="0" type="line"/>
      <point x="674" y="0" type="line"/>
      <point x="674" y="37" type="line"/>
      <point x="528" y="37"/>
      <point x="472" y="75"/>
      <point x="472" y="229" type="curve" smooth="yes"/>
      <point x="472" y="1209" type="line" smooth="yes"/>
      <point x="472" y="1362"/>
      <point x="528" y="1400"/>
      <point x="674" y="1400" type="curve"/>
      <point x="674" y="1437" type="line"/>
      <point x="48" y="1437" type="line"/>
      <point x="48" y="1400" type="line"/>
      <point x="198" y="1400"/>
      <point x="251" y="1362"/>
      <point x="251" y="1209" type="curve" smooth="yes"/>
    </contour>
    <contour>
      <point x="258" y="1778" type="line"/>
      <point x="48" y="1501" type="line"/>
      <point x="83" y="1501" type="line"/>
      <point x="360" y="1651" type="line"/>
      <point x="636" y="1501" type="line"/>
      <point x="674" y="1501" type="line"/>
      <point x="460" y="1778" type="line"/>
    </contour>
  </outline>
</glyph>
<glyph name="Eth" format="2">
  <advance width="1557"/>
  <unicode hex="00D0"/>
  <anchor x="744" y="-110" name="LL"/>
  <anchor x="744" y="1745" name="LU"/>
  <outline>
    <component base="D"/>
    <contour>
      <point x="115" y="888" type="line"/>
      <point x="115" y="778" type="line"/>
      <point x="756" y="778" type="line"/>
      <point x="756" y="888" type="line"/>
    </contour>
  </outline>
</glyph>
<glyph name="multiply" format="2">
  <advance width="1162"/>
  <unicode hex="00D7"/>
  <outline>
    <contour>
      <point x="320" y="489" type="line"/>
      <point x="223" y="586" type="line"/>
      <point x="842" y="1205" type="line"/>
      <point x="939" y="1108" type="line"/>
    </contour>
    <contour>
      <point x="842" y="489" type="line"/>
      <point x="223" y="1108" type="line"/>
      <point x="320" y="1205" type="line"/>
      <point x="939" y="586" type="line"/>
    </contour>
  </outline>
</glyph>
<glyph name="Oslash" format="2">
  <advance width="1528"/>
  <unicode hex="00D8"/>
  <anchor x="764" y="-110" name="LL"/>
  <anchor x="764" y="1775" name="LU"/>
  <outline>
    <component base="O"/>
    <contour>
      <point x="265" y="-115" type="line"/>
      <point x="1363" y="1716" type="line"/>
      <point x="1260" y="1773" type="line"/>
      <point x="162" y="-58" type="line"/>
    </contour>
  </outline>
</glyph>
<glyph name="Thorn" format="2">
  <advance width="1402"/>
  <unicode hex="00DE"/>
  <anchor x="737" y="-110" name="LL"/>
  <anchor x="738" y="1745" name="LU"/>
  <outline>
    <contour>
      <point x="458" y="1530" type="line"/>
      <point x="628" y="1565" type="line"/>
      <point x="628" y="1650" type="line"/>
      <point x="115" y="1650" type="line"/>
      <point x="115" y="1565" type="line"/>
      <point x="265" y="1530" type="line"/>
      <point x="265" y="120" type="line"/>
      <point x="115" y="85" type="line"/>
      <point x="115" y="0" type="line"/>
      <point x="628" y="0" type="line"/>
      <point x="628" y="85" type="line"/>
      <point x="458" y="120" type="line"/>
    </contour>
    <contour>
      <point x="270" y="438" type="line"/>
      <point x="671" y="438" type="line" smooth="yes"/>
      <point x="1001" y="438"/>
      <point x="1287" y="533"/>
      <point x="1287" y="853" type="curve" smooth="yes"/>
      <point x="1287" y="1187"/>
      <point x="1011" y="1250"/>
      <point x="671" y="1250" type="curve" smooth="yes"/>
      <point x="380" y="1250" type="line"/>
      <point x="380" y="1140" type="line"/>
      <point x="693" y="1140" type="line" smooth="yes"/>
      <point x="944" y="1140"/>
      <point x="1077" y="1093"/>
      <point x="1077" y="846" type="curve" smooth="yes"/>
      <point x="1077" y="623"/>
      <point x="939" y="548"/>
      <point x="703" y="548" type="curve" smooth="yes"/>
      <point x="270" y="548" type="line"/>
    </contour>
  </outline>
</glyph>
<glyph name="germandbls" format="2">
  <advance width="1434"/>
  <unicode hex="00DF"/>
  <outline>
    <contour>
      <point x="912" y="90" type="curve" smooth="yes"/>
      <point x="1043" y="90"/>
      <point x="1160" y="210"/>
      <point x="1160" y="459" type="curve" smooth="yes"/>
      <point x="1160" y="775"/>
      <point x="875" y="818"/>
      <point x="781" y="829" type="curve"/>
      <point x="781" y="939" type="line"/>
      <point x="912" y="960"/>
      <point x="1036" y="1119"/>
      <point x="1036" y="1256" type="curve" smooth="yes"/>
      <point x="1036" y="1414"/>
      <point x="941" y="1569"/>
      <point x="743" y="1569" type="curve" smooth="yes"/>
      <point x="608" y="1569"/>
      <point x="457" y="1488"/>
      <point x="457" y="1331" type="curve" smooth="yes"/>
      <point x="457" y="0" type="line"/>
      <point x="115" y="0" type="line"/>
      <point x="115" y="85" type="line"/>
      <point x="269" y="120" type="line"/>
      <point x="269" y="1250" type="line" smooth="yes"/>
      <point x="269" y="1504"/>
      <point x="506" y="1670"/>
      <point x="750" y="1670" type="curve" smooth="yes"/>
      <point x="982" y="1670"/>
      <point x="1246" y="1547"/>
      <point x="1246" y="1305" type="curve" smooth="yes"/>
      <point x="1246" y="1037"/>
      <point x="1058" y="952"/>
      <point x="901" y="904" type="curve"/>
      <point x="1080" y="876"/>
      <point x="1370" y="786"/>
      <point x="1370" y="424" type="curve" smooth="yes"/>
      <point x="1370" y="120"/>
      <point x="1135" y="-20"/>
      <point x="905" y="-20" type="curve" smooth="yes"/>
      <point x="726" y="-20"/>
      <point x="576" y="113"/>
      <point x="576" y="260" type="curve" smooth="yes"/>
      <point x="576" y="367"/>
      <point x="646" y="434"/>
      <point x="727" y="434" type="curve" smooth="yes"/>
      <point x="809" y="434"/>
      <point x="863" y="374"/>
      <point x="863" y="301" type="curve" smooth="yes"/>
      <point x="863" y="244"/>
      <point x="809" y="180"/>
      <point x="742" y="185" type="curve"/>
      <point x="770" y="128"/>
      <point x="824" y="90"/>
    </contour>
  </outline>
</glyph>
<glyph name="atilde" format="2">
  <advance width="940"/>
  <unicode hex="00E3"/>
  <outline>
    <contour>
      <point x="771" y="734" type="line"/>
      <point x="771" y="890"/>
      <point x="688" y="992"/>
      <point x="460" y="992" type="curve" smooth="yes"/>
      <point x="266" y="992"/>
      <point x="101" y="894"/>
      <point x="101" y="763" type="curve" smooth="yes"/>
      <point x="101" y="700"/>
      <point x="139" y="651"/>
      <point x="195" y="651" type="curve" smooth="yes"/>
      <point x="266" y="651"/>
      <point x="281" y="711"/>
      <point x="281" y="778" type="curve" smooth="yes"/>
      <point x="281" y="853"/>
      <point x="307" y="928"/>
      <point x="426" y="928" type="curve" smooth="yes"/>
      <point x="532" y="928"/>
      <point x="595" y="869"/>
      <point x="595" y="688" type="curve" smooth="yes"/>
      <point x="595" y="628" type="line"/>
      <point x="366" y="557"/>
      <point x="67" y="472"/>
      <point x="67" y="221" type="curve" smooth="yes"/>
      <point x="67" y="86"/>
      <point x="154" y="-23"/>
      <point x="292" y="-23" type="curve" smooth="yes"/>
      <point x="445" y="-23"/>
      <point x="513" y="64"/>
      <point x="595" y="135" type="curve"/>
      <point x="595" y="67"/>
      <point x="628" y="-23"/>
      <point x="700" y="-23" type="curve" smooth="yes"/>
      <point x="809" y="-23"/>
      <point x="884" y="45"/>
      <point x="928" y="123" type="curve"/>
      <point x="928" y="195" type="line"/>
      <point x="898" y="150"/>
      <point x="869" y="108"/>
      <point x="819" y="108" type="curve" smooth="yes"/>
      <point x="786" y="108"/>
      <point x="771" y="142"/>
      <point x="771" y="183" type="curve" smooth="yes"/>
    </contour>
    <contour>
      <point x="595" y="202" type="line"/>
      <point x="528" y="146"/>
      <point x="464" y="98"/>
      <point x="385" y="98" type="curve" smooth="yes"/>
      <point x="314" y="98"/>
      <point x="243" y="176"/>
      <point x="243" y="273" type="curve" smooth="yes"/>
      <point x="243" y="412"/>
      <point x="445" y="513"/>
      <point x="595" y="565" type="curve"/>
    </contour>
    <contour>
      <point x="131" y="1190" type="line"/>
      <point x="142" y="1250"/>
      <point x="164" y="1340"/>
      <point x="239" y="1340" type="curve" smooth="yes"/>
      <point x="285" y="1340"/>
      <point x="341" y="1304"/>
      <point x="401" y="1265" type="curve" smooth="yes"/>
      <point x="460" y="1227"/>
      <point x="524" y="1190"/>
      <point x="595" y="1190" type="curve" smooth="yes"/>
      <point x="753" y="1190"/>
      <point x="805" y="1340"/>
      <point x="805" y="1471" type="curve"/>
      <point x="775" y="1471" type="line"/>
      <point x="763" y="1411"/>
      <point x="741" y="1325"/>
      <point x="666" y="1325" type="curve" smooth="yes"/>
      <point x="622" y="1325"/>
      <point x="565" y="1358"/>
      <point x="505" y="1396" type="curve" smooth="yes"/>
      <point x="445" y="1433"/>
      <point x="382" y="1471"/>
      <point x="310" y="1471" type="curve" smooth="yes"/>
      <point x="154" y="1471"/>
      <point x="98" y="1325"/>
      <point x="98" y="1190" type="curve"/>
    </contour>
  </outline>
</glyph>
<glyph name="aring" format="2">
  <advance width="940"/>
  <unicode hex="00E5"/>
  <anchor x="520" y="0" name="PB"/>
  <anchor x="530" y="200" name="def"/>
  <outline>
    <contour>
      <point x="771" y="734" type="line"/>
      <point x="771" y="890"/>
      <point x="688" y="992"/>
      <point x="460" y="992" type="curve" smooth="yes"/>
      <point x="266" y="992"/>
      <point x="101" y="894"/>
      <point x="101" y="763" type="curve" smooth="yes"/>
      <point x="101" y="700"/>
      <point x="139" y="651"/>
      <point x="195" y="651" type="curve" smooth="yes"/>
      <point x="266" y="651"/>
      <point x="281" y="711"/>
      <point x="281" y="778" type="curve" smooth="yes"/>
      <point x="281" y="853"/>
      <point x="307" y="928"/>
      <point x="426" y="928" type="curve" smooth="yes"/>
      <point x="532" y="928"/>
      <point x="595" y="869"/>
      <point x="595" y="688" type="curve" smooth="yes"/>
      <point x="595" y="628" type="line"/>
      <point x="366" y="557"/>
      <point x="67" y="472"/>
      <point x="67" y="221" type="curve" smooth="yes"/>
      <point x="67" y="86"/>
      <point x="154" y="-23"/>
      <point x="292" y="-23" type="curve" smooth="yes"/>
      <point x="445" y="-23"/>
      <point x="513" y="64"/>
      <point x="595" y="135" type="curve"/>
      <point x="595" y="67"/>
      <point x="628" y="-23"/>
      <point x="700" y="-23" type="curve" smooth="yes"/>
      <point x="809" y="-23"/>
      <point x="884" y="45"/>
      <point x="928" y="123" type="curve"/>
      <point x="928" y="195" type="line"/>
      <point x="898" y="150"/>
      <point x="869" y="108"/>
      <point x="819" y="108" type="curve" smooth="yes"/>
      <point x="786" y="108"/>
      <point x="771" y="142"/>
      <point x="771" y="183" type="curve" smooth="yes"/>
    </contour>
    <contour>
      <point x="595" y="202" type="line"/>
      <point x="528" y="146"/>
      <point x="464" y="98"/>
      <point x="385" y="98" type="curve" smooth="yes"/>
      <point x="314" y="98"/>
      <point x="243" y="176"/>
      <point x="243" y="273" type="curve" smooth="yes"/>
      <point x="243" y="412"/>
      <point x="445" y="513"/>
      <point x="595" y="565" type="curve"/>
    </contour>
    <contour>
      <point x="625" y="1318" type="curve" smooth="yes"/>
      <point x="625" y="1393"/>
      <point x="569" y="1478"/>
      <point x="453" y="1478" type="curve" smooth="yes"/>
      <point x="318" y="1478"/>
      <point x="262" y="1393"/>
      <point x="262" y="1306" type="curve" smooth="yes"/>
      <point x="262" y="1227"/>
      <point x="326" y="1152"/>
      <point x="441" y="1152" type="curve" smooth="yes"/>
      <point x="557" y="1152"/>
      <point x="625" y="1246"/>
    </contour>
    <contour>
      <point x="554" y="1302" type="curve" smooth="yes"/>
      <point x="554" y="1262"/>
      <point x="532" y="1202"/>
      <point x="453" y="1202" type="curve" smooth="yes"/>
      <point x="363" y="1202"/>
      <point x="333" y="1276"/>
      <point x="333" y="1333" type="curve" smooth="yes"/>
      <point x="333" y="1358"/>
      <point x="352" y="1430"/>
      <point x="423" y="1430" type="curve" smooth="yes"/>
      <point x="520" y="1430"/>
      <point x="554" y="1366"/>
    </contour>
  </outline>
</glyph>
<glyph name="ae" format="2">
  <advance width="1941"/>
  <unicode hex="00E6"/>
  <anchor x="993" y="-110" name="LL"/>
  <anchor x="993" y="1350" name="LU"/>
  <anchor x="520" y="0" name="PB"/>
  <anchor x="530" y="0" name="def"/>
  <outline>
    <contour>
      <point x="457" y="-20" type="curve" smooth="yes"/>
      <point x="725" y="-20"/>
      <point x="906" y="148"/>
      <point x="936" y="226" type="curve"/>
      <point x="892" y="298" type="line"/>
      <point x="810" y="198"/>
      <point x="675" y="97"/>
      <point x="520" y="97" type="curve" smooth="yes"/>
      <point x="406" y="97"/>
      <point x="318" y="197"/>
      <point x="318" y="316" type="curve" smooth="yes"/>
      <point x="318" y="555"/>
      <point x="572" y="597"/>
      <point x="917" y="597" type="curve"/>
      <point x="917" y="703" type="line"/>
      <point x="470" y="703"/>
      <point x="120" y="648"/>
      <point x="120" y="305" type="curve" smooth="yes"/>
      <point x="120" y="86"/>
      <point x="288" y="-20"/>
    </contour>
    <contour>
      <point x="862" y="231" type="line"/>
      <point x="1050" y="231" type="line"/>
      <point x="1050" y="960" type="line" smooth="yes"/>
      <point x="1050" y="1169"/>
      <point x="865" y="1255"/>
      <point x="569" y="1255" type="curve" smooth="yes"/>
      <point x="285" y="1255"/>
      <point x="131" y="1129"/>
      <point x="131" y="990" type="curve" smooth="yes"/>
      <point x="131" y="900"/>
      <point x="198" y="827"/>
      <point x="280" y="827" type="curve" smooth="yes"/>
      <point x="356" y="827"/>
      <point x="416" y="878"/>
      <point x="416" y="959" type="curve" smooth="yes"/>
      <point x="416" y="1012"/>
      <point x="357" y="1070"/>
      <point x="290" y="1065" type="curve"/>
      <point x="336" y="1114"/>
      <point x="411" y="1145"/>
      <point x="545" y="1145" type="curve" smooth="yes"/>
      <point x="762" y="1145"/>
      <point x="862" y="1081"/>
      <point x="862" y="971" type="curve" smooth="yes"/>
    </contour>
    <component base="e" xOffset="740"/>
  </outline>
</glyph>
<glyph name="eth" format="2">
  <advance width="1246"/>
  <unicode hex="00F0"/>
  <anchor x="623" y="-110" name="LL"/>
  <anchor x="624" y="1880" name="LU"/>
  <anchor x="519" y="0" name="PB"/>
  <anchor x="579" y="200" name="def"/>
  <outline>
    <contour>
      <point x="415" y="1651" type="line"/>
      <point x="762" y="1545"/>
      <point x="922" y="1442"/>
      <point x="922" y="618" type="curve"/>
      <point x="1121" y="708" type="line"/>
      <point x="1121" y="1502"/>
      <point x="870" y="1683"/>
      <point x="502" y="1803" type="curve"/>
      <point x="252" y="1726" type="line"/>
      <point x="252" y="1651" type="line"/>
    </contour>
    <contour>
      <point x="623" y="-20" type="curve" smooth="yes"/>
      <point x="907" y="-20"/>
      <point x="1121" y="92"/>
      <point x="1121" y="698" type="curve" smooth="yes"/>
      <point x="1121" y="1103"/>
      <point x="907" y="1230"/>
      <point x="623" y="1230" type="curve" smooth="yes"/>
      <point x="339" y="1230"/>
      <point x="125" y="1103"/>
      <point x="125" y="618" type="curve" smooth="yes"/>
      <point x="125" y="102"/>
      <point x="339" y="-20"/>
    </contour>
    <contour>
      <point x="622" y="90" type="curve" smooth="yes"/>
      <point x="406" y="90"/>
      <point x="322" y="197"/>
      <point x="322" y="618" type="curve" smooth="yes"/>
      <point x="322" y="1009"/>
      <point x="406" y="1120"/>
      <point x="622" y="1120" type="curve" smooth="yes"/>
      <point x="838" y="1120"/>
      <point x="922" y="1008"/>
      <point x="922" y="618" type="curve" smooth="yes"/>
      <point x="922" y="197"/>
      <point x="838" y="90"/>
    </contour>
    <contour>
      <point x="406" y="1458" type="line"/>
      <point x="445" y="1355" type="line"/>
      <point x="1102" y="1619" type="line"/>
      <point x="1063" y="1722" type="line"/>
    </contour>
  </outline>
</glyph>
<glyph name="otilde" format="2">
  <advance width="1071"/>
  <unicode hex="00F5"/>
  <anchor x="520" y="0" name="PB"/>
  <anchor x="580" y="200" name="def"/>
  <outline>
    <contour>
      <point x="535" y="-23" type="curve" smooth="yes"/>
      <point x="805" y="-23"/>
      <point x="1003" y="221"/>
      <point x="1003" y="513" type="curve" smooth="yes"/>
      <point x="1003" y="778"/>
      <point x="805" y="992"/>
      <point x="535" y="992" type="curve" smooth="yes"/>
      <point x="266" y="992"/>
      <point x="67" y="759"/>
      <point x="67" y="472" type="curve" smooth="yes"/>
      <point x="67" y="202"/>
      <point x="266" y="-23"/>
    </contour>
    <contour>
      <point x="569" y="52" type="curve" smooth="yes"/>
      <point x="378" y="52"/>
      <point x="266" y="281"/>
      <point x="266" y="561" type="curve" smooth="yes"/>
      <point x="266" y="759"/>
      <point x="374" y="921"/>
      <point x="494" y="921" type="curve" smooth="yes"/>
      <point x="722" y="921"/>
      <point x="805" y="696"/>
      <point x="805" y="416" type="curve" smooth="yes"/>
      <point x="805" y="217"/>
      <point x="707" y="52"/>
    </contour>
    <contour>
      <point x="243" y="1190" type="line"/>
      <point x="254" y="1250"/>
      <point x="277" y="1340"/>
      <point x="352" y="1340" type="curve" smooth="yes"/>
      <point x="397" y="1340"/>
      <point x="453" y="1304"/>
      <point x="513" y="1265" type="curve" smooth="yes"/>
      <point x="572" y="1227"/>
      <point x="636" y="1190"/>
      <point x="707" y="1190" type="curve" smooth="yes"/>
      <point x="865" y="1190"/>
      <point x="917" y="1340"/>
      <point x="917" y="1471" type="curve"/>
      <point x="887" y="1471" type="line"/>
      <point x="876" y="1411"/>
      <point x="853" y="1325"/>
      <point x="778" y="1325" type="curve" smooth="yes"/>
      <point x="734" y="1325"/>
      <point x="678" y="1358"/>
      <point x="618" y="1396" type="curve" smooth="yes"/>
      <point x="557" y="1434"/>
      <point x="494" y="1471"/>
      <point x="423" y="1471" type="curve" smooth="yes"/>
      <point x="266" y="1471"/>
      <point x="210" y="1325"/>
      <point x="210" y="1190" type="curve"/>
    </contour>
  </outline>
</glyph>
<glyph name="divide" format="2">
  <advance width="1084"/>
  <unicode hex="00F7"/>
  <outline>
    <contour>
      <point x="120" y="858" type="line"/>
      <point x="120" y="720" type="line"/>
      <point x="964" y="720" type="line"/>
      <point x="964" y="858" type="line"/>
    </contour>
    <contour>
      <point x="543" y="1003" type="curve" smooth="yes"/>
      <point x="606" y="1003"/>
      <point x="658" y="1055"/>
      <point x="658" y="1119" type="curve" smooth="yes"/>
      <point x="658" y="1182"/>
      <point x="606" y="1234"/>
      <point x="543" y="1234" type="curve" smooth="yes"/>
      <point x="479" y="1234"/>
      <point x="427" y="1182"/>
      <point x="427" y="1119" type="curve" smooth="yes"/>
      <point x="427" y="1055"/>
      <point x="479" y="1003"/>
    </contour>
    <contour>
      <point x="543" y="344" type="curve" smooth="yes"/>
      <point x="606" y="344"/>
      <point x="658" y="396"/>
      <point x="658" y="460" type="curve" smooth="yes"/>
      <point x="658" y="523"/>
      <point x="606" y="575"/>
      <point x="543" y="575" type="curve" smooth="yes"/>
      <point x="479" y="575"/>
      <point x="427" y="523"/>
      <point x="427" y="460" type="curve" smooth="yes"/>
      <point x="427" y="396"/>
      <point x="479" y="344"/>
    </contour>
  </outline>
</glyph>
<glyph name="oslash" format="2">
  <advance width="1246"/>
  <unicode hex="00F8"/>
  <anchor x="520" y="0" name="PB"/>
  <anchor x="580" y="0" name="def"/>
  <outline>
    <component base="o"/>
    <contour>
      <point x="267" y="-113" type="line"/>
      <point x="1086" y="1293" type="line"/>
      <point x="981" y="1348" type="line"/>
      <point x="162" y="-58" type="line"/>
    </contour>
  </outline>
</glyph>
<glyph name="thorn" format="2">
  <advance width="1301"/>
  <unicode hex="00FE"/>
  <anchor x="670" y="-690" name="LL"/>
  <anchor x="670" y="1880" name="LU"/>
  <anchor x="520" y="-200" name="PB"/>
  <anchor x="580" y="200" name="def"/>
  <outline>
    <contour>
      <point x="70" y="-600" type="line"/>
      <point x="578" y="-600" type="line"/>
      <point x="578" y="-515" type="line"/>
      <point x="408" y="-480" type="line"/>
      <point x="408" y="1793" type="line"/>
      <point x="70" y="1793" type="line"/>
      <point x="70" y="1708" type="line"/>
      <point x="220" y="1673" type="line"/>
      <point x="220" y="-480" type="line"/>
      <point x="70" y="-515" type="line"/>
    </contour>
    <contour>
      <point x="645" y="-20" type="curve" smooth="yes"/>
      <point x="962" y="-20"/>
      <point x="1176" y="149"/>
      <point x="1176" y="639" type="curve" smooth="yes"/>
      <point x="1176" y="1179"/>
      <point x="1021" y="1255"/>
      <point x="801" y="1255" type="curve" smooth="yes"/>
      <point x="608" y="1255"/>
      <point x="454" y="1170"/>
      <point x="347" y="1091" type="curve"/>
      <point x="377" y="1004" type="line"/>
      <point x="526" y="1100"/>
      <point x="629" y="1136"/>
      <point x="755" y="1136" type="curve" smooth="yes"/>
      <point x="896" y="1136"/>
      <point x="978" y="1075"/>
      <point x="978" y="639" type="curve" smooth="yes"/>
      <point x="978" y="274"/>
      <point x="877" y="85"/>
      <point x="646" y="85" type="curve" smooth="yes"/>
      <point x="495" y="85"/>
      <point x="408" y="172"/>
      <point x="408" y="231" type="curve"/>
      <point x="220" y="184" type="line"/>
      <point x="220" y="97"/>
      <point x="402" y="-20"/>
    </contour>
  </outline>
</glyph>
<glyph name="ydieresis" format="2">
  <advance width="1085"/>
  <unicode hex="00FF"/>
  <anchor x="520" y="-200" name="PB"/>
  <anchor x="502" y="0" name="def"/>
  <outline>
    <contour>
      <point x="303" y="1374" type="curve" smooth="yes"/>
      <point x="303" y="1318"/>
      <point x="352" y="1269"/>
      <point x="408" y="1269" type="curve" smooth="yes"/>
      <point x="464" y="1269"/>
      <point x="513" y="1318"/>
      <point x="513" y="1374" type="curve" smooth="yes"/>
      <point x="513" y="1430"/>
      <point x="464" y="1478"/>
      <point x="408" y="1478" type="curve" smooth="yes"/>
      <point x="352" y="1478"/>
      <point x="303" y="1430"/>
    </contour>
    <contour>
      <point x="678" y="1374" type="curve" smooth="yes"/>
      <point x="678" y="1318"/>
      <point x="726" y="1269"/>
      <point x="782" y="1269" type="curve" smooth="yes"/>
      <point x="838" y="1269"/>
      <point x="887" y="1318"/>
      <point x="887" y="1374" type="curve" smooth="yes"/>
      <point x="887" y="1430"/>
      <point x="838" y="1478"/>
      <point x="782" y="1478" type="curve" smooth="yes"/>
      <point x="726" y="1478"/>
      <point x="678" y="1430"/>
    </contour>
    <contour>
      <point x="516" y="48" type="line"/>
      <point x="457" y="-101" type="line"/>
      <point x="426" y="-168"/>
      <point x="389" y="-273"/>
      <point x="318" y="-273" type="curve" smooth="yes"/>
      <point x="247" y="-273"/>
      <point x="258" y="-235"/>
      <point x="176" y="-235" type="curve" smooth="yes"/>
      <point x="98" y="-235"/>
      <point x="71" y="-281"/>
      <point x="71" y="-345" type="curve" smooth="yes"/>
      <point x="71" y="-401"/>
      <point x="135" y="-449"/>
      <point x="210" y="-449" type="curve" smooth="yes"/>
      <point x="322" y="-449"/>
      <point x="445" y="-345"/>
      <point x="509" y="-191" type="curve" smooth="yes"/>
      <point x="902" y="763" type="line" smooth="yes"/>
      <point x="953" y="886"/>
      <point x="970" y="932"/>
      <point x="1052" y="932" type="curve"/>
      <point x="1052" y="969" type="line"/>
      <point x="738" y="969" type="line"/>
      <point x="738" y="932" type="line"/>
      <point x="804" y="932"/>
      <point x="834" y="915"/>
      <point x="834" y="871" type="curve" smooth="yes"/>
      <point x="834" y="846"/>
      <point x="823" y="812"/>
      <point x="805" y="767" type="curve" smooth="yes"/>
      <point x="607" y="273" type="line"/>
      <point x="416" y="670" type="line" smooth="yes"/>
      <point x="382" y="741"/>
      <point x="341" y="809"/>
      <point x="341" y="857" type="curve" smooth="yes"/>
      <point x="341" y="894"/>
      <point x="352" y="932"/>
      <point x="445" y="932" type="curve"/>
      <point x="445" y="969" type="line"/>
      <point x="0" y="969" type="line"/>
      <point x="0" y="932" type="line"/>
      <point x="67" y="932"/>
      <point x="135" y="857"/>
      <point x="217" y="682" type="curve" smooth="yes"/>
    </contour>
  </outline>
</glyph>
<glyph name="uni0111" format="2">
  <advance width="1301"/>
  <unicode hex="0111"/>
  <anchor x="0" y="0" name="PB"/>
  <anchor x="0" y="0" name="def"/>
  <outline>
    <component base="d"/>
    <contour>
      <point x="595" y="1513" type="line"/>
      <point x="595" y="1403" type="line"/>
      <point x="1231" y="1403" type="line"/>
      <point x="1231" y="1513" type="line"/>
    </contour>
  </outline>
</glyph>
<glyph name="uni0115" format="2">
  <advance width="979"/>
  <unicode hex="0115"/>
  <outline>
    <contour>
      <point x="502" y="-23" type="curve" smooth="yes"/>
      <point x="682" y="-23"/>
      <point x="870" y="142"/>
      <point x="922" y="341" type="curve"/>
      <point x="881" y="349" type="line"/>
      <point x="851" y="225"/>
      <point x="701" y="127"/>
      <point x="551" y="127" type="curve" smooth="yes"/>
      <point x="367" y="127"/>
      <point x="236" y="337"/>
      <point x="236" y="600" type="curve"/>
      <point x="896" y="600" type="line"/>
      <point x="896" y="817"/>
      <point x="735" y="994"/>
      <point x="502" y="994" type="curve" smooth="yes"/>
      <point x="240" y="994"/>
      <point x="67" y="765"/>
      <point x="67" y="450" type="curve" smooth="yes"/>
      <point x="67" y="191"/>
      <point x="262" y="-23"/>
    </contour>
    <contour>
      <point x="236" y="652" type="line"/>
      <point x="247" y="799"/>
      <point x="341" y="922"/>
      <point x="450" y="922" type="curve" smooth="yes"/>
      <point x="577" y="922"/>
      <point x="679" y="799"/>
      <point x="679" y="652" type="curve"/>
    </contour>
    <contour>
      <point x="773" y="1478" type="line"/>
      <point x="751" y="1422"/>
      <point x="646" y="1287"/>
      <point x="496" y="1287" type="curve" smooth="yes"/>
      <point x="347" y="1287"/>
      <point x="241" y="1422"/>
      <point x="219" y="1478" type="curve"/>
      <point x="181" y="1478" type="line"/>
      <point x="200" y="1384"/>
      <point x="291" y="1160"/>
      <point x="496" y="1160" type="curve" smooth="yes"/>
      <point x="702" y="1160"/>
      <point x="788" y="1384"/>
      <point x="807" y="1478" type="curve"/>
    </contour>
  </outline>
</glyph>
<glyph name="OE" format="2">
  <advance width="2096"/>
  <unicode hex="0152"/>
  <anchor x="1126" y="-110" name="LL"/>
  <anchor x="1126" y="1775" name="LU"/>
  <outline>
    <contour>
      <point x="1693" y="947" type="line"/>
      <point x="1139" y="947" type="line"/>
      <point x="1139" y="831" type="line"/>
      <point x="1693" y="831" type="line"/>
      <point x="1728" y="671" type="line"/>
      <point x="1823" y="671" type="line"/>
      <point x="1823" y="1107" type="line"/>
      <point x="1728" y="1107" type="line"/>
    </contour>
    <contour>
      <point x="1866" y="1534" type="line"/>
      <point x="1901" y="1344" type="line"/>
      <point x="1996" y="1344" type="line"/>
      <point x="1996" y="1650" type="line"/>
      <point x="1147" y="1650" type="line"/>
      <point x="1147" y="1534" type="line"/>
    </contour>
    <contour>
      <point x="1866" y="116" type="line"/>
      <point x="1152" y="116" type="line"/>
      <point x="1147" y="0" type="line"/>
      <point x="1996" y="0" type="line"/>
      <point x="1996" y="306" type="line"/>
      <point x="1901" y="306" type="line"/>
    </contour>
    <contour>
      <point x="1220" y="0" type="line"/>
      <point x="1220" y="1650" type="line"/>
      <point x="1032" y="1650" type="line"/>
      <point x="1032" y="0" type="line"/>
    </contour>
    <contour>
      <point x="1032" y="199" type="line"/>
      <point x="974" y="140"/>
      <point x="875" y="96"/>
      <point x="751" y="96" type="curve" smooth="yes"/>
      <point x="435" y="96"/>
      <point x="338" y="349"/>
      <point x="338" y="843" type="curve" smooth="yes"/>
      <point x="338" y="1337"/>
      <point x="461" y="1564"/>
      <point x="777" y="1564" type="curve" smooth="yes"/>
      <point x="895" y="1564"/>
      <point x="985" y="1519"/>
      <point x="1032" y="1474" type="curve"/>
      <point x="1032" y="1650" type="line"/>
      <point x="951" y="1672"/>
      <point x="884" y="1680"/>
      <point x="764" y="1680" type="curve" smooth="yes"/>
      <point x="329" y="1680"/>
      <point x="125" y="1473"/>
      <point x="125" y="830" type="curve" smooth="yes"/>
      <point x="125" y="187"/>
      <point x="329" y="-20"/>
      <point x="764" y="-20" type="curve" smooth="yes"/>
      <point x="876" y="-20"/>
      <point x="950" y="-19"/>
      <point x="1032" y="0" type="curve"/>
    </contour>
  </outline>
</glyph>
<glyph name="oe" format="2">
  <advance width="1599"/>
  <unicode hex="0153"/>
  <anchor x="520" y="0" name="PB"/>
  <anchor x="740" y="0" name="def"/>
  <outline>
    <contour>
      <point x="1160" y="-23" type="curve" smooth="yes"/>
      <point x="1321" y="-23"/>
      <point x="1489" y="142"/>
      <point x="1535" y="341" type="curve"/>
      <point x="1497" y="348" type="line"/>
      <point x="1471" y="225"/>
      <point x="1337" y="127"/>
      <point x="1202" y="127" type="curve" smooth="yes"/>
      <point x="1037" y="127"/>
      <point x="921" y="337"/>
      <point x="921" y="599" type="curve"/>
      <point x="1512" y="599" type="line"/>
      <point x="1512" y="816"/>
      <point x="1366" y="992"/>
      <point x="1160" y="992" type="curve" smooth="yes"/>
      <point x="1037" y="992"/>
      <point x="936" y="928"/>
      <point x="865" y="827" type="curve"/>
      <point x="801" y="928"/>
      <point x="685" y="992"/>
      <point x="535" y="992" type="curve" smooth="yes"/>
      <point x="266" y="992"/>
      <point x="67" y="759"/>
      <point x="67" y="472" type="curve" smooth="yes"/>
      <point x="67" y="202"/>
      <point x="266" y="-23"/>
      <point x="535" y="-23" type="curve" smooth="yes"/>
      <point x="700" y="-23"/>
      <point x="805" y="67"/>
      <point x="861" y="146" type="curve"/>
      <point x="932" y="41"/>
      <point x="1040" y="-23"/>
    </contour>
    <contour>
      <point x="569" y="52" type="curve" smooth="yes"/>
      <point x="378" y="52"/>
      <point x="266" y="281"/>
      <point x="266" y="561" type="curve" smooth="yes"/>
      <point x="266" y="759"/>
      <point x="374" y="921"/>
      <point x="494" y="921" type="curve" smooth="yes"/>
      <point x="674" y="921"/>
      <point x="767" y="715"/>
      <point x="767" y="457" type="curve" smooth="yes"/>
      <point x="767" y="217"/>
      <point x="688" y="52"/>
    </contour>
    <contour>
      <point x="921" y="651" type="line"/>
      <point x="928" y="797"/>
      <point x="1015" y="921"/>
      <point x="1112" y="921" type="curve" smooth="yes"/>
      <point x="1227" y="921"/>
      <point x="1318" y="797"/>
      <point x="1318" y="651" type="curve"/>
    </contour>
  </outline>
</glyph>
<glyph name="uni016D" format="2">
  <advance width="1099"/>
  <unicode hex="016D"/>
  <outline>
    <contour>
      <point x="19" y="971" type="line"/>
      <point x="19" y="934" type="line"/>
      <point x="139" y="934"/>
      <point x="169" y="892"/>
      <point x="169" y="765" type="curve" smooth="yes"/>
      <point x="169" y="281" type="line" smooth="yes"/>
      <point x="169" y="112"/>
      <point x="292" y="-23"/>
      <point x="450" y="-23" type="curve" smooth="yes"/>
      <point x="551" y="-23"/>
      <point x="690" y="71"/>
      <point x="750" y="184" type="curve"/>
      <point x="750" y="-23" type="line"/>
      <point x="799" y="-23" type="line"/>
      <point x="1099" y="112" type="line"/>
      <point x="1084" y="142" type="line"/>
      <point x="1061" y="127"/>
      <point x="1035" y="124"/>
      <point x="1012" y="124" type="curve" smooth="yes"/>
      <point x="945" y="124"/>
      <point x="926" y="161"/>
      <point x="926" y="289" type="curve" smooth="yes"/>
      <point x="926" y="971" type="line"/>
      <point x="596" y="971" type="line"/>
      <point x="596" y="934" type="line"/>
      <point x="716" y="934"/>
      <point x="750" y="892"/>
      <point x="750" y="765" type="curve" smooth="yes"/>
      <point x="750" y="262" type="line"/>
      <point x="705" y="176"/>
      <point x="611" y="105"/>
      <point x="540" y="105" type="curve" smooth="yes"/>
      <point x="431" y="105"/>
      <point x="345" y="184"/>
      <point x="345" y="281" type="curve" smooth="yes"/>
      <point x="345" y="971" type="line"/>
    </contour>
    <contour>
      <point x="793" y="1478" type="line"/>
      <point x="771" y="1422"/>
      <point x="666" y="1287"/>
      <point x="516" y="1287" type="curve" smooth="yes"/>
      <point x="367" y="1287"/>
      <point x="261" y="1422"/>
      <point x="239" y="1478" type="curve"/>
      <point x="201" y="1478" type="line"/>
      <point x="220" y="1384"/>
      <point x="311" y="1160"/>
      <point x="516" y="1160" type="curve" smooth="yes"/>
      <point x="722" y="1160"/>
      <point x="808" y="1384"/>
      <point x="827" y="1478" type="curve"/>
    </contour>
  </outline>
</glyph>
<glyph name="zcaron" format="2">
  <advance width="977"/>
  <unicode hex="017E"/>
  <outline>
    <contour>
      <point x="41" y="0" type="line"/>
      <point x="906" y="0" type="line"/>
      <point x="925" y="307" type="line"/>
      <point x="887" y="307" type="line"/>
      <point x="880" y="221"/>
      <point x="853" y="127"/>
      <point x="819" y="104" type="curve" smooth="yes"/>
      <point x="794" y="86"/>
      <point x="738" y="71"/>
      <point x="692" y="71" type="curve" smooth="yes"/>
      <point x="281" y="71" type="line"/>
      <point x="928" y="932" type="line"/>
      <point x="928" y="969" type="line"/>
      <point x="123" y="969" type="line"/>
      <point x="123" y="700" type="line"/>
      <point x="161" y="700" type="line"/>
      <point x="161" y="763"/>
      <point x="183" y="834"/>
      <point x="210" y="861" type="curve"/>
      <point x="232" y="880"/>
      <point x="285" y="898"/>
      <point x="333" y="898" type="curve" smooth="yes"/>
      <point x="682" y="898" type="line"/>
      <point x="41" y="52" type="line"/>
    </contour>
    <contour>
      <point x="632" y="1119" type="line"/>
      <point x="842" y="1471" type="line"/>
      <point x="809" y="1471" type="line"/>
      <point x="532" y="1246" type="line"/>
      <point x="254" y="1471" type="line"/>
      <point x="217" y="1471" type="line"/>
      <point x="430" y="1119" type="line"/>
    </contour>
  </outline>
</glyph>
<glyph name="florin" format="2">
  <advance width="1250"/>
  <unicode hex="0192"/>
  <outline>
    <contour>
      <point x="286" y="1240" type="line"/>
      <point x="286" y="1130" type="line"/>
      <point x="1036" y="1130" type="line"/>
      <point x="1036" y="1240" type="line"/>
    </contour>
    <contour>
      <point x="320" y="-423" type="curve" smooth="yes"/>
      <point x="191" y="-423"/>
      <point x="174" y="-346"/>
      <point x="185" y="-351" type="curve"/>
      <point x="122" y="-357" type="line"/>
      <point x="136" y="-361"/>
      <point x="150" y="-363"/>
      <point x="163" y="-363" type="curve" smooth="yes"/>
      <point x="229" y="-363"/>
      <point x="281" y="-315"/>
      <point x="281" y="-247" type="curve" smooth="yes"/>
      <point x="281" y="-182"/>
      <point x="230" y="-131"/>
      <point x="155" y="-131" type="curve" smooth="yes"/>
      <point x="81" y="-131"/>
      <point x="13" y="-173"/>
      <point x="13" y="-282" type="curve" smooth="yes"/>
      <point x="13" y="-443"/>
      <point x="150" y="-530"/>
      <point x="343" y="-530" type="curve" smooth="yes"/>
      <point x="542" y="-530"/>
      <point x="666" y="-371"/>
      <point x="674" y="-174" type="curve" smooth="yes"/>
      <point x="746" y="1513" type="line" smooth="yes"/>
      <point x="750" y="1614"/>
      <point x="810" y="1697"/>
      <point x="910" y="1697" type="curve" smooth="yes"/>
      <point x="1039" y="1697"/>
      <point x="1056" y="1620"/>
      <point x="1045" y="1625" type="curve"/>
      <point x="1108" y="1631" type="line"/>
      <point x="1094" y="1635"/>
      <point x="1080" y="1637"/>
      <point x="1067" y="1637" type="curve" smooth="yes"/>
      <point x="1001" y="1637"/>
      <point x="949" y="1589"/>
      <point x="949" y="1521" type="curve" smooth="yes"/>
      <point x="949" y="1456"/>
      <point x="1000" y="1405"/>
      <point x="1075" y="1405" type="curve" smooth="yes"/>
      <point x="1149" y="1405"/>
      <point x="1217" y="1447"/>
      <point x="1217" y="1556" type="curve" smooth="yes"/>
      <point x="1217" y="1717"/>
      <point x="1080" y="1804"/>
      <point x="887" y="1804" type="curve" smooth="yes"/>
      <point x="688" y="1804"/>
      <point x="563" y="1644"/>
      <point x="555" y="1448" type="curve" smooth="yes"/>
      <point x="483" y="-239" type="line" smooth="yes"/>
      <point x="479" y="-341"/>
      <point x="420" y="-423"/>
    </contour>
  </outline>
</glyph>
<glyph name="uni01AF" format="2">
  <advance width="1799"/>
  <unicode hex="01AF"/>
  <anchor x="866" y="-110" name="LL"/>
  <anchor x="866" y="1745" name="LU"/>
  <outline>
    <component base="uni031B" xOffset="1749" yOffset="380"/>
    <contour>
      <point x="1279" y="1530" type="line"/>
      <point x="1279" y="615" type="line" smooth="yes"/>
      <point x="1279" y="231"/>
      <point x="1119" y="100"/>
      <point x="866" y="100" type="curve" smooth="yes"/>
      <point x="575" y="100"/>
      <point x="463" y="231"/>
      <point x="463" y="615" type="curve" smooth="yes"/>
      <point x="463" y="1530" type="line"/>
      <point x="633" y="1565" type="line"/>
      <point x="633" y="1650" type="line"/>
      <point x="110" y="1650" type="line"/>
      <point x="110" y="1565" type="line"/>
      <point x="260" y="1530" type="line"/>
      <point x="260" y="615" type="line" smooth="yes"/>
      <point x="260" y="117"/>
      <point x="470" y="-20"/>
      <point x="860" y="-20" type="curve" smooth="yes"/>
      <point x="1172" y="-20"/>
      <point x="1407" y="117"/>
      <point x="1407" y="615" type="curve" smooth="yes"/>
      <point x="1407" y="1530" type="line"/>
      <point x="1504" y="1565" type="line"/>
      <point x="1504" y="1650" type="line"/>
      <point x="1109" y="1650" type="line"/>
      <point x="1109" y="1565" type="line"/>
    </contour>
  </outline>
</glyph>
